<svg version="1.1" xmlns="http://www.w3.org/2000/svg" xmlns:xlink="http://www.w3.org/1999/xlink" width="53.27685" height="93.13728" viewBox="0,0,53.27685,93.13728"><defs><linearGradient x1="232.95505" y1="161.34275" x2="240.89401" y2="159.17634" gradientUnits="userSpaceOnUse" id="color-1"><stop offset="0" stop-color="#00a415"/><stop offset="1" stop-color="#00ff39"/></linearGradient><linearGradient x1="239.99982" y1="174.44489" x2="239.99982" y2="207.8907" gradientUnits="userSpaceOnUse" id="color-2"><stop offset="0" stop-color="#80ff00"/><stop offset="1" stop-color="#65c900"/></linearGradient><linearGradient x1="239.99982" y1="174.44489" x2="239.99982" y2="207.8907" gradientUnits="userSpaceOnUse" id="color-3"><stop offset="0" stop-color="#478f00"/><stop offset="1" stop-color="#366b00"/></linearGradient></defs><g transform="translate(-213.39493,-146.2147)"><g stroke-miterlimit="10"><path d="M215.96164,236.85198v-88.0706h48.21014v88.0706z" fill="#585858" stroke="#b5b5b5" stroke-width="5" stroke-linecap="butt"/><text transform="translate(229.43755,220.21061) scale(0.1811,0.1811)" font-size="40" xml:space="preserve" fill="#ffffff" stroke="none" stroke-width="1" stroke-linecap="butt" font-family="Sans Serif" font-weight="normal" text-anchor="start"><tspan x="0" dy="0">green</tspan></text><text transform="translate(220.31255,229.28842) scale(0.15633,0.15633)" font-size="40" xml:space="preserve" fill="#ffffff" stroke="none" stroke-width="1" stroke-linecap="butt" font-family="Sans Serif" font-weight="normal" text-anchor="start"><tspan x="0" dy="0">click to equip</tspan></text><path d="M215.89493,211.2853v-62.5706h48.21014v62.5706z" fill="#ffffff" stroke="#b5b5b5" stroke-width="5" stroke-linecap="butt"/><g><path d="M242.04858,164.64975c0,0 -3.87415,0.30388 -7.36618,-2.80928c-3.41192,-3.04176 -4.33743,-7.02318 -4.33743,-7.02318c0,0 4.51275,-1.1223 8.30981,2.13246c3.4296,2.93977 3.39379,7.70001 3.39379,7.70001z" fill="url(#color-1)" stroke="#156b00" stroke-width="1.5" stroke-linecap="butt"/><path d="M239.76551,177.13455c0,0 0.42427,-6.3878 1.32591,-9.79117c0.83793,-3.1629 4.27362,-4.2833 4.27362,-4.2833" fill="none" stroke="#8f4500" stroke-width="2.5" stroke-linecap="round"/><path d="M223.2769,191.16779c-0.15133,-12.6367 4.92567,-13.83191 11.7149,-15.96011c1.58114,-0.49563 3.26336,1.20459 5.008,1.20459c1.60613,0 3.15937,-1.74097 4.62955,-1.3183c6.98388,2.00783 11.94447,2.08542 12.09336,16.0738c0.11095,10.42321 -2.30774,9.71612 -5.94123,12.78373c-2.03437,1.71752 -4.0303,3.10957 -6.72352,3.70117c-1.16079,0.25497 -2.8208,-1.72936 -4.05816,-1.72936c-1.09572,0 -2.16683,1.86203 -3.20375,1.66084c-2.32547,-0.45119 -4.47897,-1.38423 -6.35237,-2.69099c-4.33229,-3.02194 -7.02986,-2.29259 -7.16679,-13.72536z" fill="url(#color-2)" stroke="url(#color-3)" stroke-width="1" stroke-linecap="butt"/></g></g></g></svg>