<svg version="1.1" xmlns="http://www.w3.org/2000/svg" xmlns:xlink="http://www.w3.org/1999/xlink" width="53.21014" height="67.5706" viewBox="0,0,53.21014,67.5706"><defs><linearGradient x1="232.95505" y1="161.34275" x2="240.89401" y2="159.17634" gradientUnits="userSpaceOnUse" id="color-1"><stop offset="0" stop-color="#00a415"/><stop offset="1" stop-color="#00ff39"/></linearGradient><linearGradient x1="245.40885" y1="163.61909" x2="246.983" y2="171.69638" gradientUnits="userSpaceOnUse" id="color-2"><stop offset="0" stop-color="#00a415"/><stop offset="1" stop-color="#00ff39"/></linearGradient><linearGradient x1="229.90225" y1="173.05015" x2="236.77895" y2="168.53004" gradientUnits="userSpaceOnUse" id="color-3"><stop offset="0" stop-color="#00a415"/><stop offset="1" stop-color="#00ff39"/></linearGradient><linearGradient x1="240.16649" y1="174.94489" x2="240.16649" y2="208.3907" gradientUnits="userSpaceOnUse" id="color-4"><stop offset="0" stop-color="#ff0000"/><stop offset="1" stop-color="#ca0000"/></linearGradient><linearGradient x1="240.16649" y1="174.94489" x2="240.16649" y2="208.3907" gradientUnits="userSpaceOnUse" id="color-5"><stop offset="0" stop-color="#8e0000"/><stop offset="1" stop-color="#6b0000"/></linearGradient><linearGradient x1="221.73872" y1="184.70131" x2="223.68031" y2="176.7044" gradientUnits="userSpaceOnUse" id="color-6"><stop offset="0" stop-color="#00a415"/><stop offset="1" stop-color="#00ff39"/></linearGradient><linearGradient x1="223.674" y1="196.25785" x2="219.75368" y2="189.02242" gradientUnits="userSpaceOnUse" id="color-7"><stop offset="0" stop-color="#00a415"/><stop offset="1" stop-color="#00ff39"/></linearGradient><linearGradient x1="230.5225" y1="205.4308" x2="224.20072" y2="200.16245" gradientUnits="userSpaceOnUse" id="color-8"><stop offset="0" stop-color="#00a415"/><stop offset="1" stop-color="#00ff39"/></linearGradient><linearGradient x1="257.04821" y1="185.53464" x2="255.10662" y2="177.53773" gradientUnits="userSpaceOnUse" id="color-9"><stop offset="0" stop-color="#00a415"/><stop offset="1" stop-color="#00ff39"/></linearGradient><linearGradient x1="255.11293" y1="197.09118" x2="259.03325" y2="189.85575" gradientUnits="userSpaceOnUse" id="color-10"><stop offset="0" stop-color="#00a415"/><stop offset="1" stop-color="#00ff39"/></linearGradient><linearGradient x1="248.26443" y1="206.26413" x2="254.58621" y2="200.99579" gradientUnits="userSpaceOnUse" id="color-11"><stop offset="0" stop-color="#00a415"/><stop offset="1" stop-color="#00ff39"/></linearGradient></defs><g transform="translate(-213.39493,-146.2147)"><g stroke-miterlimit="10"><path d="M215.89493,211.2853v-62.5706h48.21014v62.5706z" fill="#ffffff" stroke="#b5b5b5" stroke-width="5" stroke-linecap="butt"/><path d="M242.04858,164.64975c0,0 -3.87415,0.30388 -7.36618,-2.80928c-3.41192,-3.04176 -4.33743,-7.02318 -4.33743,-7.02318c0,0 4.51275,-1.1223 8.30981,2.13246c3.4296,2.93977 3.39379,7.70001 3.39379,7.70001z" fill="url(#color-1)" stroke="#156b00" stroke-width="1.5" stroke-linecap="butt"/><path d="M241.43927,172.44355c0,0 -0.01692,-3.88601 3.34564,-7.13858c3.28545,-3.17795 7.32434,-3.80688 7.32434,-3.80688c0,0 0.78594,4.58332 -2.74037,8.12962c-3.18504,3.20311 -7.92963,2.81582 -7.92963,2.81582z" fill="url(#color-2)" stroke="#156b00" stroke-width="1.5" stroke-linecap="butt"/><path d="M239.57294,173.37616c0,0 -3.58924,1.48955 -7.87414,-0.38812c-4.18661,-1.83462 -6.30043,-5.33319 -6.30043,-5.33319c0,0 3.94276,-2.46558 8.56156,-0.54781c4.17182,1.73217 5.613,6.26913 5.613,6.26913z" fill="url(#color-3)" stroke="#156b00" stroke-width="1.5" stroke-linecap="butt"/><path d="M239.76551,177.13455c0,0 0.42427,-6.3878 1.32591,-9.79117c0.83793,-3.1629 4.27362,-4.2833 4.27362,-4.2833" fill="none" stroke="#8f4500" stroke-width="2.5" stroke-linecap="round"/><path d="M223.44357,191.66779c-0.15133,-12.6367 4.92567,-13.83191 11.7149,-15.96011c1.58114,-0.49563 3.26336,1.20459 5.008,1.20459c1.60613,0 3.15937,-1.74097 4.62955,-1.3183c6.98388,2.00783 11.94447,2.08542 12.09336,16.0738c0.11095,10.42321 -2.30774,9.71612 -5.94123,12.78373c-2.03437,1.71752 -4.0303,3.10957 -6.72352,3.70117c-1.16079,0.25497 -2.8208,-1.72936 -4.05816,-1.72936c-1.09572,0 -2.16683,1.86203 -3.20375,1.66084c-2.32547,-0.45119 -4.47897,-1.38423 -6.35237,-2.69099c-4.33229,-3.02194 -7.02986,-2.29259 -7.16679,-13.72536z" fill="url(#color-4)" stroke="url(#color-5)" stroke-width="1" stroke-linecap="butt"/><path d="M229.02978,178.33979c0,0 -1.60692,3.53825 -6.0203,5.09006c-4.31215,1.51621 -8.24482,0.40159 -8.24482,0.40159c0,0 1.19922,-4.49292 5.88402,-6.2433c4.23142,-1.58098 8.3811,0.75166 8.3811,0.75166z" fill="url(#color-6)" stroke="#156b00" stroke-width="1.5" stroke-linecap="butt"/><path d="M224.81939,186.64969c0,0 1.17964,3.70269 -1.05483,7.81282c-2.18323,4.01585 -5.84855,5.82519 -5.84855,5.82519c0,0 -2.12215,-4.13775 0.1806,-8.57717c2.0799,-4.00979 6.72279,-5.06082 6.72279,-5.06082z" fill="url(#color-7)" stroke="#156b00" stroke-width="1.5" stroke-linecap="butt"/><path d="M228.02703,196.08194c0,0 2.46738,3.00224 1.91449,7.64771c-0.54021,4.53891 -3.27447,7.57735 -3.27447,7.57735c0,0 -3.50401,-3.05719 -3.00969,-8.03382c0.44648,-4.49501 4.36967,-7.19123 4.36967,-7.19123z" fill="url(#color-8)" stroke="#156b00" stroke-width="1.5" stroke-linecap="butt"/><path d="M249.75715,179.17313c0,0 4.14968,-2.33264 8.3811,-0.75166c4.6848,1.75037 5.88402,6.24329 5.88402,6.24329c0,0 -3.93267,1.11462 -8.24482,-0.40159c-4.41338,-1.55181 -6.0203,-5.09006 -6.0203,-5.09006z" fill="url(#color-9)" stroke="#156b00" stroke-width="1.5" stroke-linecap="butt"/><path d="M253.96753,187.48303c0,0 4.64289,1.05103 6.72279,5.06082c2.30275,4.43943 0.1806,8.57717 0.1806,8.57717c0,0 -3.66531,-1.80935 -5.84854,-5.82519c-2.23447,-4.11013 -1.05483,-7.81281 -1.05483,-7.81281z" fill="url(#color-10)" stroke="#156b00" stroke-width="1.5" stroke-linecap="butt"/><path d="M250.75989,196.91527c0,0 3.92319,2.69622 4.36967,7.19123c0.49432,4.97663 -3.00969,8.03382 -3.00969,8.03382c0,0 -2.73426,-3.03844 -3.27447,-7.57735c-0.55289,-4.64547 1.9145,-7.64771 1.9145,-7.64771z" fill="url(#color-11)" stroke="#156b00" stroke-width="1.5" stroke-linecap="butt"/><path d="M215.89493,211.2853v-62.5706h48.21014v62.5706z" fill="none" stroke="#b5b5b5" stroke-width="5" stroke-linecap="butt"/></g></g></svg>