<svg version="1.1" xmlns="http://www.w3.org/2000/svg" xmlns:xlink="http://www.w3.org/1999/xlink" width="490" height="369.77022" viewBox="0,0,490,369.77022"><defs><radialGradient cx="240.5" cy="180.5" r="245" gradientUnits="userSpaceOnUse" id="color-1"><stop offset="0" stop-color="#f5ff5f" stop-opacity="0"/><stop offset="1" stop-color="#f5ff5f"/></radialGradient></defs><g transform="translate(4.5,4.77022)"><g stroke-miterlimit="10"><path d="M-4.5,365v-369h490v369z" fill="url(#color-1)" stroke="none" stroke-width="0"/><g fill="#fff652" stroke-width="10"><g stroke="#005dff"><path d="M426.725,305.70784l3.25153,-7.35787c0,0 10.03805,6.19485 15.53706,8.62487c5.71357,2.52484 18.12528,6.25076 18.12528,6.25076l-3.25153,7.35787c0,0 -12.56776,-3.79482 -18.30926,-6.33206c-5.46569,-2.41535 -15.35309,-8.54363 -15.35309,-8.54363z"/><path d="M455.1881,314.32421l3.13366,8.75937c0,0 -9.07271,6.18692 -15.01117,11.78236c-6.70281,6.3157 -20.80812,21.30876 -20.80812,21.30876l-5.51661,-5.85476c0,0 13.93509,-14.83271 20.61336,-21.12523c5.97814,-5.63285 17.58887,-14.8705 17.58887,-14.8705z"/></g><g stroke="none"><path d="M426.725,305.70784l3.25153,-7.35787c0,0 10.03805,6.19485 15.53706,8.62487c5.71357,2.52484 18.12528,6.25076 18.12528,6.25076l-3.25153,7.35787c0,0 -12.56776,-3.79482 -18.30926,-6.33206c-5.46569,-2.41535 -15.35309,-8.54363 -15.35309,-8.54363z"/><path d="M455.1881,314.32421l5.51661,5.85475c0,0 -11.45565,9.09154 -17.39411,14.68698c-6.70281,6.3157 -20.80812,21.30876 -20.80812,21.30876l-5.51661,-5.85476c0,0 13.93509,-14.83271 20.61336,-21.12523c5.97814,-5.63285 17.58887,-14.8705 17.58887,-14.8705z"/></g></g><g fill="#fff652" stroke-width="10"><g stroke="#005dff"><path d="M35.89175,21.65405c-5.16267,-3.57059 -14.96351,-12.30514 -14.96351,-12.30514l4.5758,-6.61612c0,0 9.66055,8.63754 14.7981,12.19072c4.94467,3.41979 15.47056,8.74352 15.47056,8.74352l-4.5758,6.61612c0,0 -10.39049,-5.23002 -15.30515,-8.62909z"/><path d="M25.48879,33.27906c-1.87731,8.98166 -7.24644,28.61254 -7.24644,28.61254l-7.87415,-1.64587c0,0 5.41692,-19.85973 7.30118,-28.87444c1.66937,-7.9867 2.20585,-18.95503 2.20585,-18.95503l9.10622,-1.90335c0,0 -1.81218,14.72614 -3.49272,22.76622z"/></g><g stroke="none"><path d="M35.89175,21.65405c-5.16267,-3.57059 -14.96351,-12.30514 -14.96351,-12.30514l4.5758,-6.61612c0,0 9.66055,8.63754 14.7981,12.19072c4.94467,3.41979 15.47056,8.74352 15.47056,8.74352l-4.5758,6.61612c0,0 -10.39049,-5.23002 -15.30515,-8.62909z"/><path d="M25.48879,33.27906c-1.87731,8.98166 -7.24644,28.61254 -7.24644,28.61254l-7.87415,-1.64587c0,0 5.41692,-19.85973 7.30118,-28.87444c1.66937,-7.9867 3.43797,-22.50425 3.43797,-22.50425l7.87416,1.64587c0,0 -1.81218,14.72614 -3.49272,22.76622z"/></g></g><g fill="#fff652" stroke-width="10"><g stroke="#005dff"><path d="M39.21194,306.15931c-5.74149,2.53718 -18.30919,6.33207 -18.30919,6.33207l-3.25153,-7.35794c0,0 12.41177,-3.72586 18.12528,-6.25076c5.49901,-2.43003 15.537,-8.62487 15.537,-8.62487l3.25153,7.35787c0,0 -9.88733,6.12829 -15.35309,8.54363z"/><path d="M43.69079,321.10261c6.67827,6.29252 20.61336,21.12523 20.61336,21.12523l-5.5166,5.85476c0,0 -14.10524,-14.99305 -20.80812,-21.30876c-5.93846,-5.59544 -15.01117,-11.78236 -15.01117,-11.78236l3.13366,-8.75937c0,0 11.6108,9.23765 17.58887,14.8705z"/></g><g stroke="none"><path d="M39.21194,306.15931c-5.74149,2.53718 -18.30919,6.33207 -18.30919,6.33207l-3.25153,-7.35794c0,0 12.41177,-3.72586 18.12528,-6.25076c5.49901,-2.43003 15.537,-8.62487 15.537,-8.62487l3.25153,7.35787c0,0 -9.88733,6.12829 -15.35309,8.54363z"/><path d="M43.69079,321.10261c6.67827,6.29252 20.61336,21.12523 20.61336,21.12523l-5.5166,5.85476c0,0 -14.10524,-14.99305 -20.80812,-21.30876c-5.93846,-5.59544 -17.39411,-14.68698 -17.39411,-14.68698l5.51654,-5.85469c0,0 11.6108,9.23766 17.58887,14.87051z"/></g></g><g fill="#fff652" stroke-width="10"><g stroke="#005dff"><path d="M422.81023,32.71084l-4.57581,-6.61606c0,0 10.52596,-5.32373 15.47056,-8.74352c5.13754,-3.55325 14.79816,-12.19078 14.79816,-12.19078l4.57581,6.61612c0,0 -9.80089,8.73456 -14.96357,12.30508c-4.91473,3.39908 -15.30522,8.62916 -15.30522,8.62916z"/><path d="M445.02562,12.94047l9.10622,1.90336c0,0 0.53648,10.96833 2.20585,18.95503c1.88426,9.01478 7.30118,28.87444 7.30118,28.87444l-7.87415,1.6458c0,0 -5.36906,-19.63081 -7.24644,-28.61247c-1.68054,-8.04008 -3.49272,-22.76616 -3.49272,-22.76616z"/></g><g stroke="none"><path d="M422.81023,32.71084l-4.57581,-6.61606c0,0 10.52596,-5.32373 15.47056,-8.74352c5.13754,-3.55325 14.79816,-12.19078 14.79816,-12.19078l4.57581,6.61612c0,0 -9.80089,8.73456 -14.96357,12.30508c-4.91473,3.39908 -15.30522,8.62916 -15.30522,8.62916z"/><path d="M445.02562,12.94047l7.87409,-1.64586c0,0 1.7686,14.51755 3.43797,22.50425c1.88426,9.01478 7.30118,28.87444 7.30118,28.87444l-7.87415,1.6458c0,0 -5.36906,-19.63081 -7.24644,-28.61247c-1.68054,-8.04008 -3.49272,-22.76616 -3.49272,-22.76616z"/></g></g></g></g></svg>