<svg version="1.1" xmlns="http://www.w3.org/2000/svg" xmlns:xlink="http://www.w3.org/1999/xlink" width="53.21014" height="53.60124" viewBox="0,0,53.21014,53.60124"><defs><linearGradient x1="240.99978" y1="162.91516" x2="245.5426" y2="168.66082" gradientUnits="userSpaceOnUse" id="color-1"><stop offset="0" stop-color="#ffdb4c"/><stop offset="1" stop-color="#eab626"/></linearGradient><linearGradient x1="225.92091" y1="196.60449" x2="253.60459" y2="174.71634" gradientUnits="userSpaceOnUse" id="color-2"><stop offset="0" stop-color="#eab626"/><stop offset="1" stop-color="#ffdb4c"/></linearGradient></defs><g transform="translate(-213.39493,-153.25267)"><g stroke-miterlimit="10"><path d="M215.89493,204.35391v-48.60124h48.21014v48.60124z" fill="#ffffff" stroke="#b5b5b5" stroke-width="5"/><g stroke-width="0.5"><path d="M244.05023,169.84078l-4.48383,-5.67105l2.41905,-2.15516c0,0 0.94399,1.99909 1.69901,2.90064c0.68397,0.81671 2.63906,2.27932 2.63906,2.27932z" fill="url(#color-1)" stroke="#625125"/><path d="M227.2536,197.36978c-0.96318,-1.21821 -0.81975,-3.00314 0.27699,-3.42289c3.48531,-1.33394 9.89848,-2.50471 13.36184,-8.39144c0.58405,-0.99273 2.06772,-1.84742 2.67749,-5.71944c0.29555,-1.87674 -0.15934,-3.16526 -0.1507,-4.47213c0.01465,-2.21477 -1.0904,-4.94262 -0.6065,-6.51603c0.71373,-2.32073 5.87817,-2.34012 7.57308,-0.19643c1.92088,2.42948 3.21334,6.96081 2.97415,11.87622c-0.26189,5.38197 -2.31548,11.18918 -6.31097,14.34823c-7.64463,6.04425 -15.77131,7.58347 -19.79537,2.49392z" fill="url(#color-2)" stroke="#625125"/><path d="M239.67226,163.8435l-0.76697,-0.97005c0,0 0.20887,-0.62811 0.34897,-1.04944c0.10012,-0.3011 -0.20716,-0.70813 -0.04096,-1.20792c0.07155,-0.21516 0.23769,-0.70001 0.54095,-0.8671c0.48471,-0.26707 1.1606,-0.16211 1.1606,-0.16211c0,0 0.42364,0.69024 0.58151,1.05747c0.17711,0.41198 0.43009,1.29561 0.43009,1.29561z" fill="#d9cab5" stroke="#614125"/></g></g></g></svg>