<svg version="1.1" xmlns="http://www.w3.org/2000/svg" xmlns:xlink="http://www.w3.org/1999/xlink" width="53.21014" height="93.20782" viewBox="0,0,53.21014,93.20782"><defs><linearGradient x1="231.72228" y1="181.33335" x2="231.72228" y2="200.19958" gradientUnits="userSpaceOnUse" id="color-1"><stop offset="0" stop-color="#00ff39"/><stop offset="1" stop-color="#00a415"/></linearGradient><linearGradient x1="247.05559" y1="185.8889" x2="247.05559" y2="204.75513" gradientUnits="userSpaceOnUse" id="color-2"><stop offset="0" stop-color="#00ff39"/><stop offset="1" stop-color="#00a415"/></linearGradient><linearGradient x1="216.6311" y1="166.7199" x2="233.83531" y2="166.7199" gradientUnits="userSpaceOnUse" id="color-3"><stop offset="0" stop-color="#ff0000"/><stop offset="1" stop-color="#740000"/></linearGradient><linearGradient x1="226.55998" y1="160.35696" x2="234.49979" y2="160.35696" gradientUnits="userSpaceOnUse" id="color-4"><stop offset="0" stop-color="#ff0000"/><stop offset="1" stop-color="#740000"/></linearGradient></defs><g transform="translate(-213.46164,-146.14416)"><g stroke-miterlimit="10"><path d="M215.96164,236.85198v-88.0706h48.21014v88.0706z" fill="#585858" stroke="#b5b5b5" stroke-width="5" stroke-linecap="butt"/><path d="M215.96164,211.35198v-62.70782h48.21014v62.70782z" fill="none" stroke="#b5b5b5" stroke-width="5" stroke-linecap="butt"/><text transform="translate(225.68755,220.21061) scale(0.1811,0.1811)" font-size="40" xml:space="preserve" fill="#ffffff" stroke="none" stroke-width="1" stroke-linecap="butt" font-family="Sans Serif" font-weight="normal" text-anchor="start"><tspan x="0" dy="0">opposite</tspan></text><text transform="translate(220.31254,229.28842) scale(0.15633,0.15633)" font-size="40" xml:space="preserve" fill="#ffffff" stroke="none" stroke-width="1" stroke-linecap="butt" font-family="Sans Serif" font-weight="normal" text-anchor="start"><tspan x="0" dy="0">click to equip</tspan></text><path d="M215.96164,211.35198v-62.70782h48.21014v62.70782z" fill="none" stroke="#b5b5b5" stroke-width="5" stroke-linecap="butt"/><path d="M215.96164,211.35198v-62.5706h48.21014v62.5706z" fill="#ffffff" stroke="#b5b5b5" stroke-width="5" stroke-linecap="butt"/><path d="M215.96164,211.35198v-62.70782h48.21014v62.70782z" fill="none" stroke="#b5b5b5" stroke-width="5" stroke-linecap="butt"/><path d="M215.96165,211.35198v-62.5706h48.21014v62.5706z" fill="#ffffff" stroke="#b5b5b5" stroke-width="5" stroke-linecap="butt"/><g><path d="M221.27782,190.8889c0,-5.27739 4.67614,-9.55555 10.44445,-9.55555c5.7683,0 10.44445,4.27817 10.44445,9.55555c0,4.44105 -3.31146,8.17448 -7.79857,9.24627c-0.84502,0.20184 -2.06507,-0.13516 -2.97921,-0.13516c-1.44641,0 -2.49081,0.17545 -3.74337,-0.31084c-3.74267,-1.45305 -6.36774,-4.84619 -6.36774,-8.80027z" fill="url(#color-1)" stroke="#156b00" stroke-width="2.5" stroke-linecap="butt"/><path d="M236.61116,195.44445c0,-5.27739 4.67614,-9.55555 10.44445,-9.55555c5.7683,0 10.44445,4.27817 10.44445,9.55555c0,4.44105 -3.31146,8.17448 -7.79857,9.24627c-0.84502,0.20184 -2.06507,-0.13516 -2.97921,-0.13516c-1.44641,0 -2.49081,0.17545 -3.74337,-0.31084c-3.74267,-1.45305 -6.36774,-4.84619 -6.36774,-8.80027z" fill="url(#color-2)" stroke="#156b00" stroke-width="2.5" stroke-linecap="butt"/><path d="M231.94446,185.11112c0,0 -0.56313,-0.90428 -1.0991,-2.08633c-0.67633,-1.4916 -1.23043,-3.78091 0.32632,-9.22024c2.24632,-7.84867 2.72834,-6.93788 2.72834,-6.93788" fill="none" stroke="#6c0000" stroke-width="2.5" stroke-linecap="round"/><path d="M233.9861,166.86804c0,0 6.57181,0.35881 9.6279,10.27586c3.08056,9.99643 4.42215,13.2992 4.42215,13.2992" fill="none" stroke="#6c0000" stroke-width="2.5" stroke-linecap="round"/><path d="M233.23338,184.66667c0,0 -0.10034,1.53333 -1.4,1.53333c-1.8552,0 -1.66666,-1.13333 -1.66666,-1.13333" fill="none" stroke="#156b00" stroke-width="1" stroke-linecap="round"/><path d="M249.67117,190.46243c0,0 0.25176,1.12098 -1.60053,1.22495c-1.29762,0.07283 -1.48373,-1.45246 -1.48373,-1.45246" fill="none" stroke="#156b00" stroke-width="1" stroke-linecap="round"/><path d="M233.83531,166.36718c0,0 -3.1962,3.95238 -9.29367,4.46826c-2.87229,-0.01333 -7.91056,-2.45483 -7.91056,-2.45483c0,0 3.28793,-5.01541 6.83929,-5.7167c5.87664,-0.61257 10.36494,3.70328 10.36494,3.70328z" fill="url(#color-3)" stroke="#6c0000" stroke-width="1.5" stroke-linecap="butt"/><path d="M233.95636,166.63193c0,0 -3.57077,-0.96338 -5.70885,-4.86883c-2.08903,-3.81586 -1.64882,-7.68112 -1.64882,-7.68112c0,0 4.40446,0.43326 6.77089,4.56297c2.13742,3.73005 0.58678,7.98699 0.58678,7.98699z" fill="url(#color-4)" stroke="#6c0000" stroke-width="1.5" stroke-linecap="butt"/></g><path d="M215.96165,211.35198v-62.70782h48.21014v62.70782z" fill="none" stroke="#b5b5b5" stroke-width="5" stroke-linecap="butt"/></g></g></svg>