<svg version="1.1" xmlns="http://www.w3.org/2000/svg" xmlns:xlink="http://www.w3.org/1999/xlink" width="53.21014" height="67.5706" viewBox="0,0,53.21014,67.5706"><defs><linearGradient x1="240.00003" y1="180.46472" x2="240.00003" y2="209.53532" gradientUnits="userSpaceOnUse" id="color-1"><stop offset="0" stop-color="#fff652" stop-opacity="0"/><stop offset="1" stop-color="#fff652"/></linearGradient><linearGradient x1="240.00003" y1="179.53532" x2="240.00003" y2="150.46472" gradientUnits="userSpaceOnUse" id="color-2"><stop offset="0" stop-color="#fff652" stop-opacity="0"/><stop offset="1" stop-color="#fff652"/></linearGradient><radialGradient cx="240.00003" cy="180.00002" r="31.2853" gradientUnits="userSpaceOnUse" id="color-3"><stop offset="0" stop-color="#ffffff"/><stop offset="1" stop-color="#005dff"/></radialGradient></defs><g transform="translate(-213.39495,-146.21472)"><g stroke-miterlimit="10"><path d="M215.89496,211.28532v-62.5706h48.21014v62.5706z" fill="#ffffff" stroke="#b5b5b5" stroke-width="5" stroke-linecap="butt"/><path d="M215.89496,209.53532v-29.0706h48.21014v29.0706z" fill="url(#color-1)" stroke="none" stroke-width="0" stroke-linecap="butt"/><path d="M264.1051,150.46472v29.0706h-48.21014v-29.0706z" fill="url(#color-2)" stroke="none" stroke-width="0" stroke-linecap="butt"/><path d="M215.89496,211.28532v-62.5706h48.21014v62.5706z" fill="none" stroke="url(#color-3)" stroke-width="5" stroke-linecap="butt"/><g stroke="#0044b9"><path d="M221.31807,174.49919l2.7743,-7.5361l31.43124,0.0768l3.15832,7.4593l-18.68193,18.68193z" fill="#0095ff" stroke-width="2.5" stroke-linecap="butt"/><g fill="none" stroke-width="0.5" stroke-linecap="round"><path d="M257.7415,174.65279h-35.3294"/><path d="M228.70995,168.35494l-1.84327,5.37621l13.05652,17.35749"/><path d="M233.31814,168.20134l-1.99688,5.99064l9.06276,17.30628"/><path d="M237.26069,168.45734l-1.68967,5.37621l4.9666,18.12552"/><path d="M251.59726,168.35494l1.53606,5.83703l-12.95411,16.48705"/><path d="M248.06432,168.66216l0.76803,5.37621l-8.70434,16.28224"/><path d="M242.99532,168.04773l1.84327,5.37621l-4.76179,17.20388"/><path d="M239.9232,166.81888l0.30721,25.1914"/></g></g><g stroke="#0044b9"><path d="M221.8514,201.03698l0.75468,-2.05l8.55005,0.02089l0.85914,2.02911l-5.08193,5.08193z" fill="#0095ff" stroke-width="1" stroke-linecap="butt"/><g fill="none" stroke-width="0.5" stroke-linecap="round"><path d="M231.75944,201.07877h-9.61044"/><path d="M223.86217,199.3656l-0.50141,1.46246l3.55168,4.72165"/><path d="M225.11571,199.32382l-0.5432,1.6296l2.46529,4.70772"/><path d="M226.18818,199.39346l-0.45963,1.46246l1.35103,4.93057"/><path d="M230.08806,199.3656l0.41784,1.58781l-3.52383,4.48487"/><path d="M229.12702,199.44917l0.20892,1.46246l-2.36779,4.42916"/><path d="M227.74813,199.28203l0.50141,1.46246l-1.29532,4.67987"/><path d="M226.91244,198.94776l0.08357,6.85266"/></g></g><g stroke="#0044b9"><path d="M248.71807,201.43698l0.75467,-2.04999l8.55005,0.02089l0.85914,2.0291l-5.08193,5.08193z" fill="#0095ff" stroke-width="1" stroke-linecap="butt"/><g fill="none" stroke-width="0.5" stroke-linecap="round"><path d="M258.62611,201.47877h-9.61044"/><path d="M250.72884,199.76561l-0.50141,1.46246l3.55169,4.72165"/><path d="M251.98237,199.72382l-0.5432,1.6296l2.46528,4.70772"/><path d="M253.05484,199.79346l-0.45963,1.46246l1.35103,4.93057"/><path d="M256.95473,199.76561l0.41784,1.58781l-3.52383,4.48487"/><path d="M255.99369,199.84917l0.20893,1.46246l-2.36779,4.42916"/><path d="M254.6148,199.68204l0.50141,1.46246l-1.29532,4.67986"/><path d="M253.77911,199.34776l0.08357,6.85265"/></g></g><g stroke="#0044b9"><path d="M221.85141,155.03698l0.75467,-2.04999l8.55005,0.02089l0.85914,2.0291l-5.08193,5.08193z" fill="#0095ff" stroke-width="1" stroke-linecap="butt"/><g fill="none" stroke-width="0.5" stroke-linecap="round"><path d="M231.75945,155.07877h-9.61044"/><path d="M223.86217,153.3656l-0.50141,1.46246l3.55168,4.72165"/><path d="M225.11571,153.32382l-0.54319,1.6296l2.46528,4.70772"/><path d="M226.18818,153.39346l-0.45963,1.46246l1.35103,4.93057"/><path d="M230.08807,153.3656l0.41784,1.58781l-3.52383,4.48487"/><path d="M229.12702,153.44917l0.20893,1.46246l-2.36779,4.42916"/><path d="M227.74813,153.28204l0.50142,1.46246l-1.29532,4.67986"/><path d="M226.91244,152.94776l0.08357,6.85265"/></g></g><g stroke="#0044b9"><path d="M248.71807,155.43698l0.75467,-2.04999l8.55004,0.02089l0.85914,2.02911l-5.08193,5.08193z" fill="#0095ff" stroke-width="1" stroke-linecap="butt"/><g fill="none" stroke-width="0.5" stroke-linecap="round"><path d="M258.62611,155.47877h-9.61044"/><path d="M250.72884,153.76561l-0.50142,1.46246l3.55168,4.72165"/><path d="M251.98237,153.72382l-0.54319,1.6296l2.46528,4.70772"/><path d="M253.05484,153.79346l-0.45963,1.46245l1.35103,4.93058"/><path d="M256.95473,153.76561l0.41784,1.58781l-3.52383,4.48487"/><path d="M255.99369,153.84917l0.20892,1.46246l-2.36779,4.42915"/><path d="M254.6148,153.68204l0.50142,1.46245l-1.29532,4.67987"/><path d="M253.77911,153.34776l0.08357,6.85265"/></g></g></g></g></svg>