<svg version="1.1" xmlns="http://www.w3.org/2000/svg" xmlns:xlink="http://www.w3.org/1999/xlink" width="53.21014" height="53.60124" viewBox="0,0,53.21014,53.60124"><defs><linearGradient x1="235.63207" y1="181.56525" x2="235.63207" y2="197.18778" gradientUnits="userSpaceOnUse" id="color-1"><stop offset="0" stop-color="#ff0000"/><stop offset="1" stop-color="#740000"/></linearGradient><linearGradient x1="248.16641" y1="185.28923" x2="248.16641" y2="200.91175" gradientUnits="userSpaceOnUse" id="color-2"><stop offset="0" stop-color="#ff0000"/><stop offset="1" stop-color="#740000"/></linearGradient><linearGradient x1="224.8734" y1="167.29988" x2="235.51373" y2="172.86192" gradientUnits="userSpaceOnUse" id="color-3"><stop offset="0" stop-color="#00a415"/><stop offset="1" stop-color="#00ff39"/></linearGradient><linearGradient x1="231.65526" y1="164.75213" x2="238.03937" y2="165.23445" gradientUnits="userSpaceOnUse" id="color-4"><stop offset="0" stop-color="#00a415"/><stop offset="1" stop-color="#00ff39"/></linearGradient></defs><g transform="translate(-213.39493,-153.25267)"><g stroke-miterlimit="10"><path d="M215.89493,204.35391v-48.60124h48.21014v48.60124z" fill="#ffffff" stroke="#b5b5b5" stroke-width="5" stroke-linecap="butt"/><g><path d="M227.09417,189.37652c0,-4.31404 3.82255,-7.81126 8.53789,-7.81126c4.71534,0 8.53789,3.49722 8.53789,7.81126c0,3.63037 -2.70698,6.68229 -6.375,7.55843c-0.69077,0.165 -1.68811,-0.11049 -2.43538,-0.11049c-1.18238,0 -2.03613,0.14342 -3.06005,-0.2541c-3.05947,-1.18781 -5.20536,-3.96155 -5.20536,-7.19385z" fill="url(#color-1)" stroke="#6c0000" stroke-width="2.5" stroke-linecap="butt"/><path d="M239.62854,193.10049c0,-4.31404 3.82255,-7.81126 8.53789,-7.81126c4.71534,0 8.53789,3.49722 8.53789,7.81126c0,3.63037 -2.70698,6.68229 -6.375,7.55843c-0.69077,0.165 -1.68811,-0.11049 -2.43538,-0.11049c-1.18238,0 -2.03613,0.14342 -3.06005,-0.2541c-3.05947,-1.18781 -5.20536,-3.96155 -5.20536,-7.19385z" fill="url(#color-2)" stroke="#6c0000" stroke-width="2.5" stroke-linecap="butt"/><path d="M235.81371,184.65343c0,0 -0.46033,-0.73921 -0.89847,-1.70549c-0.55287,-1.21932 -1.00582,-3.09073 0.26675,-7.53716c1.83627,-6.41595 2.2303,-5.67142 2.2303,-5.67142" fill="none" stroke="#156b00" stroke-width="2.5" stroke-linecap="round"/><path d="M237.48266,169.74049c0,0 5.37218,0.29331 7.8704,8.40008c2.51823,8.17166 3.61492,10.87153 3.61492,10.87153" fill="none" stroke="#156b00" stroke-width="2.5" stroke-linecap="round"/><path d="M236.86735,184.29011c0,0 -0.08202,1.25343 -1.14444,1.25343c-1.51655,0 -1.36242,-0.92645 -1.36242,-0.92645" fill="none" stroke="#6c0000" stroke-width="1" stroke-linecap="round"/><path d="M250.30454,189.0279c0,0 0.2058,0.91635 -1.30837,1.00134c-1.06075,0.05954 -1.21289,-1.18732 -1.21289,-1.18732" fill="none" stroke="#6c0000" stroke-width="1" stroke-linecap="round"/><path d="M237.3594,169.33105c0,0 -2.61276,3.2309 -7.59718,3.65261c-2.34798,-0.0109 -6.46655,-2.00672 -6.46655,-2.00672c0,0 2.68774,-4.09988 5.59083,-4.67316c4.8039,-0.50075 8.4729,3.02727 8.4729,3.02727z" fill="url(#color-3)" stroke="#156b00" stroke-width="1.5" stroke-linecap="butt"/><path d="M237.45834,169.54748c0,0 -2.91895,-0.78752 -4.66674,-3.98006c-1.70769,-3.1193 -1.34784,-6.27899 -1.34784,-6.27899c0,0 3.60046,0.35417 5.53492,3.73003c1.74725,3.04916 0.47967,6.52903 0.47967,6.52903z" fill="url(#color-4)" stroke="#156b00" stroke-width="1.5" stroke-linecap="butt"/></g></g></g></svg>