<svg version="1.1" xmlns="http://www.w3.org/2000/svg" xmlns:xlink="http://www.w3.org/1999/xlink" width="251.53362" height="236.7352" viewBox="0,0,251.53362,236.7352"><defs><linearGradient x1="243.78143" y1="115.38073" x2="260.96355" y2="137.11233" gradientUnits="userSpaceOnUse" id="color-1"><stop offset="0" stop-color="#ffdb4c"/><stop offset="1" stop-color="#eab626"/></linearGradient><linearGradient x1="186.74925" y1="242.80249" x2="291.45607" y2="160.01585" gradientUnits="userSpaceOnUse" id="color-2"><stop offset="0" stop-color="#eab626"/><stop offset="1" stop-color="#ffdb4c"/></linearGradient></defs><g transform="translate(-117.23697,-62.3052)"><g stroke-miterlimit="10"><g stroke-width="0.5"><path d="M255.31899,141.57521l-16.95899,-21.44937l9.14949,-8.15138c0,0 3.5704,7.56108 6.4261,10.97097c2.58693,3.089 9.98161,8.62097 9.98161,8.62097z" fill="url(#color-1)" stroke="#625125"/><path d="M191.7898,245.69704c-3.643,-4.60759 -3.10049,-11.35864 1.04765,-12.94627c13.18235,-5.04532 37.43862,-9.47346 50.53795,-31.73859c2.20902,-3.75475 7.82064,-6.98742 10.12697,-21.63242c1.11785,-7.09833 -0.60267,-11.97183 -0.57,-16.91476c0.0554,-8.37685 -4.12418,-18.69428 -2.29395,-24.64532c2.69952,-8.77759 22.23276,-8.85094 28.64335,-0.74295c7.26525,9.18893 12.15368,26.3276 11.24899,44.91894c-0.99053,20.356 -8.75774,42.32038 -23.86974,54.26874c-28.91398,22.86091 -59.65117,28.68266 -74.87122,9.43266z" fill="url(#color-2)" stroke="#625125"/><path d="M238.76039,118.89197l-2.90087,-3.66897c0,0 0.78999,-2.37568 1.31991,-3.96927c0.37869,-1.13883 -0.78352,-2.67835 -0.15491,-4.56867c0.27061,-0.81379 0.89899,-2.64762 2.04601,-3.27959c1.8333,-1.01012 4.38967,-0.61313 4.38967,-0.61313c0,0 1.60233,2.61067 2.19943,3.99961c0.66989,1.5582 1.62671,4.90035 1.62671,4.90035z" fill="#d9cab5" stroke="#614125"/></g><text transform="translate(161.55783,288.0504) scale(0.8792,0.8792)" font-size="40" xml:space="preserve" fill="#9c9c9c" stroke="#000000" stroke-width="1" font-family="Sans Serif" font-weight="400" text-anchor="start"><tspan x="0" dy="0">+50 coins</tspan></text><text transform="translate(117.67657,257.64377) scale(0.8792,0.8792)" font-size="40" xml:space="preserve" fill="#9c9c9c" stroke="#000000" stroke-width="1" font-family="Sans Serif" font-weight="400" text-anchor="start"><tspan x="0" dy="0">0.19% CHANCE</tspan></text><text transform="translate(141.31863,100.5504) scale(0.8792,0.8792)" font-size="40" xml:space="preserve" fill="#9c9c9c" stroke="#000000" stroke-width="1" font-family="Sans Serif" font-weight="400" text-anchor="start"><tspan x="0" dy="0">3X BANANA!</tspan></text></g></g></svg>