<svg version="1.1" xmlns="http://www.w3.org/2000/svg" xmlns:xlink="http://www.w3.org/1999/xlink" width="53.21014" height="67.5706" viewBox="0,0,53.21014,67.5706"><g transform="translate(-213.46162,-146.28138)"><g stroke-miterlimit="10"><path d="M215.96163,211.35198v-62.5706h48.21014v62.5706z" fill="#ffffff" stroke="#b5b5b5" stroke-width="5" stroke-linecap="butt"/><path d="M227.54541,157.97392c0,0 2.29477,-0.3234 3.22197,0.23814c1.16816,0.70748 3.23258,3.67095 3.23258,3.67095c0,0 1.89181,-1.24249 2.28392,-1.92867c0.44872,-0.78526 0.26154,-2.52587 0.26154,-2.52587" fill="none" stroke="#6b2d00" stroke-width="1.5" stroke-linecap="round"/><path d="M232.81814,179.06483c0,0 -1.49395,-4.26773 -1.36721,-6.53637c0.29613,-5.30064 3.00357,-9.19091 3.00357,-9.19091" fill="none" stroke="#6b2d00" stroke-width="1.5" stroke-linecap="round"/><path d="M234.6976,163.7848c0,0 7.22022,0.05188 8.23875,3.03047c1.81197,5.29891 1.35544,13.70993 1.35544,13.70993" fill="none" stroke="#6b2d00" stroke-width="1.5" stroke-linecap="round"/><path d="M232.22925,165.10603c0,0 -1.61964,0.42481 -1.81717,-0.88098c-0.20047,-1.32524 1.27444,-1.56654 1.27444,-1.56654l5.92558,-1.31397c0,0 1.32929,-0.40495 1.63822,0.98824c0.29944,1.35037 -1.0955,1.45928 -1.0955,1.45928z" fill="#b36934" stroke="#6b2d00" stroke-width="1.5" stroke-linecap="butt"/><path d="M232.90905,162.88302l0.36364,1.45455" fill="none" stroke="#6b2d00" stroke-width="1.5" stroke-linecap="round"/><path d="M236.54541,162.15574l0.36364,1.45455" fill="none" stroke="#6b2d00" stroke-width="1.5" stroke-linecap="round"/><g fill="#000000" stroke="none" stroke-linecap="butt"><path d="M224.52147,184.6369c0.6493,-4.09093 4.49201,-6.88092 8.58294,-6.23162c4.09093,0.6493 6.88092,4.49201 6.23162,8.58294c-0.6493,4.09093 -4.49201,6.88092 -8.58294,6.23162c-4.09093,-0.6493 -6.88092,-4.49201 -6.23162,-8.58294z" stroke-width="none"/><path d="M226.86515,185.239l1.35379,-8.5296l10.05595,1.59605l-1.35379,8.5296z" stroke-width="0"/></g><g fill="#000000" stroke="none" stroke-linecap="butt"><path d="M239.5367,190.62737c-1.51528,-3.85503 0.38145,-8.20852 4.23648,-9.7238c3.85503,-1.51528 8.20852,0.38145 9.7238,4.23648c1.51528,3.85503 -0.38145,8.20852 -4.23648,9.7238c-3.85503,1.51528 -8.20852,-0.38145 -9.7238,-4.23648z" stroke-width="none"/><path d="M241.86195,189.95759l-3.15937,-8.03773l9.47606,-3.72473l3.15937,8.03774z" stroke-width="0"/></g></g></g></svg>