<svg version="1.1" xmlns="http://www.w3.org/2000/svg" xmlns:xlink="http://www.w3.org/1999/xlink" width="53.27686" height="93.20782" viewBox="0,0,53.27686,93.20782"><defs><linearGradient x1="240" y1="168.6237" x2="240" y2="196.53899" gradientUnits="userSpaceOnUse" id="color-1"><stop offset="0" stop-color="#ff0000"/><stop offset="1" stop-color="#ecff00"/></linearGradient><linearGradient x1="240" y1="168.6237" x2="240" y2="196.53899" gradientUnits="userSpaceOnUse" id="color-2"><stop offset="0" stop-color="#800000"/><stop offset="1" stop-color="#eeff00"/></linearGradient><linearGradient x1="236.06403" y1="177.11116" x2="244.17142" y2="163.59794" gradientUnits="userSpaceOnUse" id="color-3"><stop offset="0" stop-color="#00a415"/><stop offset="1" stop-color="#00ff39"/></linearGradient></defs><g transform="translate(-213.39493,-146.14416)"><g stroke-miterlimit="10"><path d="M215.96164,236.85198v-88.0706h48.21014v88.0706z" fill="#585858" stroke="#b5b5b5" stroke-width="5" stroke-linecap="butt"/><path d="M215.96164,211.35198v-62.70782h48.21014v62.70782z" fill="none" stroke="#b5b5b5" stroke-width="5" stroke-linecap="butt"/><text transform="translate(227.56255,220.21061) scale(0.1811,0.1811)" font-size="40" xml:space="preserve" fill="#ffffff" stroke="none" stroke-width="1" stroke-linecap="butt" font-family="Sans Serif" font-weight="normal" text-anchor="start"><tspan x="0" dy="0">mango</tspan></text><text transform="translate(220.31255,229.28842) scale(0.15633,0.15633)" font-size="40" xml:space="preserve" fill="#ffffff" stroke="none" stroke-width="1" stroke-linecap="butt" font-family="Sans Serif" font-weight="normal" text-anchor="start"><tspan x="0" dy="0">click to equip</tspan></text><path d="M215.96164,211.35198v-62.70782h48.21014v62.70782z" fill="none" stroke="#b5b5b5" stroke-width="5" stroke-linecap="butt"/><path d="M215.96164,211.35198v-62.70782h48.21014v62.70782z" fill="none" stroke="#b5b5b5" stroke-width="5" stroke-linecap="butt"/><path d="M215.96165,211.35198v-62.70782h48.21014v62.70782z" fill="none" stroke="#b5b5b5" stroke-width="5" stroke-linecap="butt"/><path d="M215.89493,211.2853v-62.5706h48.21014v62.5706z" fill="#ffffff" stroke="#b5b5b5" stroke-width="5" stroke-linecap="butt"/><g><path d="M219.54542,186.63543c-0.01733,-0.67626 -0.42641,-5.30923 1.30725,-7.13787c2.21553,-2.33692 3.58225,-4.43495 5.47064,-6.04315c3.77206,-3.21239 7.94051,-4.80743 13.31751,-4.80743c6.50226,0 12.99555,-0.48404 16.74757,2.96219c0.89728,0.82415 2.84877,1.52955 3.40426,2.82972c1.25805,2.94456 0.47548,7.07806 0.47548,9.31223c0,3.93578 -1.67626,6.18438 -13.16556,11.80993c-0.9791,0.4794 -2.00149,1.03594 -3.09548,0.97305c-13.39948,-0.77033 -11.74333,-0.81299 -18.56866,-3.08927c-2.4117,-0.80431 -5.8068,-3.44644 -5.893,-6.80939z" fill="url(#color-1)" stroke="url(#color-2)" stroke-width="1.5" stroke-linecap="butt"/><path d="M257.13211,175.27569l-1.85289,-2.1231l3.50351,-1.77877l0.83843,1.55952z" fill="#156b00" stroke="none" stroke-width="0" stroke-linecap="butt"/><path d="M251.47616,169.77416c0,0 3.66823,-0.51057 4.87318,-0.0724c1.27128,0.46228 2.34074,2.6649 2.34074,2.6649" fill="none" stroke="#156b00" stroke-width="1.5" stroke-linecap="round"/><path d="M253.01913,169.63661c0,0 -4.95431,5.55274 -13.90723,5.87437c-8.74754,0.31424 -15.30194,-3.96486 -15.30194,-3.96486c0,0 4.75309,-7.53041 14.31536,-8.06038c8.63687,-0.47869 14.89382,6.15088 14.89382,6.15088z" fill="url(#color-3)" stroke="#156b00" stroke-width="1.5" stroke-linecap="butt"/></g></g></g></svg>