<svg version="1.1" xmlns="http://www.w3.org/2000/svg" xmlns:xlink="http://www.w3.org/1999/xlink" width="53.21014" height="67.5706" viewBox="0,0,53.21014,67.5706"><defs><linearGradient x1="240.00003" y1="180.26472" x2="240.00003" y2="209.33532" gradientUnits="userSpaceOnUse" id="color-1"><stop offset="0" stop-color="#fff652" stop-opacity="0"/><stop offset="1" stop-color="#fff652"/></linearGradient><linearGradient x1="240.00003" y1="179.53532" x2="240.00003" y2="150.46472" gradientUnits="userSpaceOnUse" id="color-2"><stop offset="0" stop-color="#fff652" stop-opacity="0"/><stop offset="1" stop-color="#fff652"/></linearGradient><radialGradient cx="240.00003" cy="180.00002" r="31.2853" gradientUnits="userSpaceOnUse" id="color-3"><stop offset="0" stop-color="#ffffff"/><stop offset="1" stop-color="#005dff"/></radialGradient></defs><g transform="translate(-213.39495,-146.21472)"><g stroke-miterlimit="10"><path d="M215.89496,211.28532v-62.5706h48.21014v62.5706z" fill="#ffffff" stroke="#b5b5b5" stroke-width="5"/><path d="M215.89496,209.33532v-29.0706h48.21014v29.0706z" fill="url(#color-1)" stroke="none" stroke-width="0"/><path d="M264.1051,150.46472v29.0706h-48.21014v-29.0706z" fill="url(#color-2)" stroke="none" stroke-width="0"/><path d="M215.89496,211.28532v-62.5706h48.21014v62.5706z" fill="none" stroke="url(#color-3)" stroke-width="5"/><g fill="#fff652"><g stroke="#005dff" stroke-width="5"><path d="M229.80861,169.01007v-4.43996c0,0 6.44965,0.88799 9.76791,0.88799c3.44772,0 10.54491,-0.88799 10.54491,-0.88799v4.43996c0,0 -7.19134,0.88799 -10.65591,0.88799c-3.29817,0 -9.65691,-0.88799 -9.65691,-0.88799z"/><path d="M246.10025,167.01005l3.53617,3.72299c0,0 -3.20003,5.14748 -4.9497,9.29713c-1.97488,4.68379 -5.75096,15.39972 -5.75096,15.39972l-4.09116,-1.725c0,0 3.72594,-10.59702 5.69358,-15.26363c1.76135,-4.17738 5.56207,-11.43121 5.56207,-11.43121z"/></g><g stroke="none" stroke-width="0"><path d="M229.80861,169.01007v-4.43996c0,0 6.44965,0.88799 9.76791,0.88799c3.44772,0 10.54491,-0.88799 10.54491,-0.88799v4.43996c0,0 -7.19134,0.88799 -10.65591,0.88799c-3.29817,0 -9.65691,-0.88799 -9.65691,-0.88799z"/><path d="M246.10025,167.01005l4.09116,1.725c0,0 -3.75503,7.14547 -5.5047,11.29512c-1.97488,4.68379 -5.75096,15.39972 -5.75096,15.39972l-4.09116,-1.725c0,0 3.72594,-10.59702 5.69358,-15.26363c1.76135,-4.17738 5.56207,-11.43121 5.56207,-11.43121z"/></g></g><g fill="#fff652" stroke-width="1"><g stroke="#005dff"><path d="M252.41518,198.95668l0.50069,-1.13301c0,0 1.54572,0.95392 2.39249,1.32811c0.87981,0.38879 2.79104,0.96253 2.79104,0.96253l-0.50069,1.13301c0,0 -1.93526,-0.58435 -2.81937,-0.97505c-0.84164,-0.37193 -2.36416,-1.3156 -2.36416,-1.3156z"/><path d="M256.7981,200.28348l0.48254,1.34882c0,0 -1.39707,0.9527 -2.31151,1.81432c-1.03214,0.97253 -3.20416,3.28125 -3.20416,3.28125l-0.84948,-0.90155c0,0 2.14581,-2.28403 3.17417,-3.25299c0.92055,-0.86738 2.70844,-2.28985 2.70844,-2.28985z"/></g><g stroke="none"><path d="M252.41518,198.95668l0.50069,-1.13301c0,0 1.54572,0.95392 2.39249,1.32811c0.87981,0.38879 2.79104,0.96253 2.79104,0.96253l-0.50069,1.13301c0,0 -1.93526,-0.58435 -2.81937,-0.97505c-0.84164,-0.37193 -2.36416,-1.3156 -2.36416,-1.3156z"/><path d="M256.7981,200.28348l0.84948,0.90155c0,0 -1.76401,1.39997 -2.67845,2.26159c-1.03214,0.97253 -3.20416,3.28125 -3.20416,3.28125l-0.84948,-0.90155c0,0 2.14581,-2.28403 3.17417,-3.25299c0.92055,-0.86738 2.70844,-2.28985 2.70844,-2.28985z"/></g></g><g fill="#fff652" stroke-width="1"><g stroke="#005dff"><path d="M225.50242,156.71165c-0.79498,-0.54982 -2.30417,-1.89482 -2.30417,-1.89482l0.70461,-1.01879c0,0 1.48759,1.33006 2.2787,1.8772c0.76141,0.5266 2.38225,1.34638 2.38225,1.34638l-0.70461,1.01879c0,0 -1.59999,-0.80535 -2.35678,-1.32876z"/><path d="M223.90051,158.50174c-0.28908,1.38305 -1.11585,4.40593 -1.11585,4.40593l-1.21251,-0.25344c0,0 0.83413,-3.05812 1.12428,-4.44626c0.25706,-1.22984 0.33967,-2.91881 0.33967,-2.91881l1.40223,-0.29309c0,0 -0.27905,2.26762 -0.53783,3.50568z"/></g><g stroke="none"><path d="M225.50242,156.71165c-0.79498,-0.54982 -2.30417,-1.89482 -2.30417,-1.89482l0.70461,-1.01879c0,0 1.48759,1.33006 2.2787,1.8772c0.76141,0.5266 2.38225,1.34638 2.38225,1.34638l-0.70461,1.01879c0,0 -1.59999,-0.80535 -2.35678,-1.32876z"/><path d="M223.90051,158.50174c-0.28908,1.38305 -1.11585,4.40593 -1.11585,4.40593l-1.21251,-0.25344c0,0 0.83413,-3.05812 1.12428,-4.44626c0.25706,-1.22984 0.5294,-3.46534 0.5294,-3.46534l1.21251,0.25344c0,0 -0.27905,2.26762 -0.53783,3.50568z"/></g></g><g fill="#fff652" stroke-width="1"><g stroke="#005dff"><path d="M224.89222,200.27227c-0.88411,0.39069 -2.81936,0.97505 -2.81936,0.97505l-0.50069,-1.13302c0,0 1.91124,-0.57373 2.79104,-0.96253c0.84677,-0.37419 2.39248,-1.32811 2.39248,-1.32811l0.50069,1.13301c0,0 -1.52251,0.94367 -2.36416,1.3156z"/><path d="M225.5819,202.57333c1.02836,0.96896 3.17417,3.25299 3.17417,3.25299l-0.84948,0.90155c0,0 -2.17201,-2.30872 -3.20416,-3.28125c-0.91444,-0.86162 -2.31151,-1.81432 -2.31151,-1.81432l0.48254,-1.34882c0,0 1.7879,1.42247 2.70844,2.28985z"/></g><g stroke="none"><path d="M224.89222,200.27227c-0.88411,0.39069 -2.81936,0.97505 -2.81936,0.97505l-0.50069,-1.13302c0,0 1.91124,-0.57373 2.79104,-0.96253c0.84677,-0.37419 2.39248,-1.32811 2.39248,-1.32811l0.50069,1.13301c0,0 -1.52251,0.94367 -2.36416,1.3156z"/><path d="M225.5819,202.57333c1.02836,0.96896 3.17417,3.25299 3.17417,3.25299l-0.84948,0.90155c0,0 -2.17201,-2.30872 -3.20416,-3.28125c-0.91444,-0.86162 -2.67845,-2.26159 -2.67845,-2.26159l0.84947,-0.90154c0,0 1.7879,1.42247 2.70844,2.28985z"/></g></g><g fill="#fff652" stroke-width="1"><g stroke="#005dff"><path d="M251.81236,158.04042l-0.70461,-1.01878c0,0 1.62085,-0.81978 2.38225,-1.34638c0.79111,-0.54715 2.27871,-1.87721 2.27871,-1.87721l0.70461,1.01879c0,0 -1.5092,1.345 -2.30418,1.89481c-0.7568,0.52341 -2.35679,1.32877 -2.35679,1.32877z"/><path d="M255.23322,154.99606l1.40223,0.29309c0,0 0.08261,1.68897 0.33967,2.91881c0.29015,1.38815 1.12428,4.44626 1.12428,4.44626l-1.21251,0.25343c0,0 -0.82676,-3.02287 -1.11585,-4.40592c-0.25878,-1.23806 -0.53783,-3.50567 -0.53783,-3.50567z"/></g><g stroke="none"><path d="M251.81236,158.04042l-0.70461,-1.01878c0,0 1.62085,-0.81978 2.38225,-1.34638c0.79111,-0.54715 2.27871,-1.87721 2.27871,-1.87721l0.70461,1.01879c0,0 -1.5092,1.345 -2.30418,1.89481c-0.7568,0.52341 -2.35679,1.32877 -2.35679,1.32877z"/><path d="M255.23322,154.99606l1.2125,-0.25344c0,0 0.27234,2.2355 0.5294,3.46534c0.29015,1.38815 1.12428,4.44626 1.12428,4.44626l-1.21251,0.25343c0,0 -0.82676,-3.02287 -1.11585,-4.40592c-0.25878,-1.23806 -0.53783,-3.50567 -0.53783,-3.50567z"/></g></g></g></g></svg>