<svg version="1.1" xmlns="http://www.w3.org/2000/svg" xmlns:xlink="http://www.w3.org/1999/xlink" width="53.27685" height="93.13728" viewBox="0,0,53.27685,93.13728"><defs><linearGradient x1="241.1678" y1="160.04395" x2="246.47407" y2="166.75521" gradientUnits="userSpaceOnUse" id="color-1"><stop offset="0" stop-color="#ffdb4c"/><stop offset="1" stop-color="#eab626"/></linearGradient><linearGradient x1="223.55484" y1="199.39497" x2="255.89092" y2="173.82839" gradientUnits="userSpaceOnUse" id="color-2"><stop offset="0" stop-color="#eab626"/><stop offset="1" stop-color="#ffdb4c"/></linearGradient></defs><g transform="translate(-213.39493,-146.2147)"><g stroke-miterlimit="10"><path d="M215.96164,236.85198v-88.0706h48.21014v88.0706z" fill="#585858" stroke="#b5b5b5" stroke-width="5"/><text transform="translate(227.56255,220.21061) scale(0.1811,0.1811)" font-size="40" xml:space="preserve" fill="#ffffff" stroke="none" stroke-width="1" font-family="Sans Serif" font-weight="normal" text-anchor="start"><tspan x="0" dy="0">default</tspan></text><text transform="translate(220.31255,229.28842) scale(0.15633,0.15633)" font-size="40" xml:space="preserve" fill="#ffffff" stroke="none" stroke-width="1" font-family="Sans Serif" font-weight="normal" text-anchor="start"><tspan x="0" dy="0">click to equip</tspan></text><path d="M215.89493,211.2853v-62.5706h48.21014v62.5706z" fill="#ffffff" stroke="#b5b5b5" stroke-width="5"/><g stroke-width="0.5"><path d="M244.73089,168.13346l-5.23736,-6.6241l2.82559,-2.51735c0,0 1.10263,2.33505 1.98454,3.38811c0.79891,0.95396 3.08257,2.66237 3.08257,2.66237z" fill="url(#color-1)" stroke="#625125"/><path d="M225.11149,200.28888c-1.12505,-1.42294 -0.95751,-3.50783 0.32354,-3.99813c4.07104,-1.55812 11.56198,-2.92564 15.60738,-9.80167c0.6822,-1.15956 2.41521,-2.15789 3.12746,-6.68063c0.34522,-2.19214 -0.18612,-3.6972 -0.17603,-5.2237c0.01711,-2.58698 -1.27365,-5.77326 -0.70843,-7.61109c0.83368,-2.71074 6.86603,-2.73339 8.84578,-0.22944c2.24369,2.83777 3.75336,8.13062 3.47397,13.87209c-0.3059,6.28644 -2.70461,13.06959 -7.37157,16.75954c-8.92936,7.06002 -18.42177,8.85792 -23.1221,2.91304z" fill="url(#color-2)" stroke="#625125"/><path d="M239.61718,161.12831l-0.89586,-1.13307c0,0 0.24397,-0.73367 0.40762,-1.22581c0.11695,-0.3517 -0.24197,-0.82714 -0.04784,-1.41092c0.08357,-0.25132 0.27763,-0.81765 0.63186,-1.01282c0.56617,-0.31195 1.35564,-0.18935 1.35564,-0.18935c0,0 0.49484,0.80624 0.67924,1.23518c0.20688,0.48121 0.50237,1.51335 0.50237,1.51335z" fill="#d9cab5" stroke="#614125"/></g></g></g></svg>