<svg version="1.1" xmlns="http://www.w3.org/2000/svg" xmlns:xlink="http://www.w3.org/1999/xlink" width="53.21014" height="67.5706" viewBox="0,0,53.21014,67.5706"><defs><linearGradient x1="239.12665" y1="173.32397" x2="239.12665" y2="197.90328" gradientUnits="userSpaceOnUse" id="color-1"><stop offset="0" stop-color="#1d4004"/><stop offset="1" stop-color="#000000"/></linearGradient><linearGradient x1="241.79228" y1="172.54083" x2="241.79228" y2="195.74831" gradientUnits="userSpaceOnUse" id="color-2"><stop offset="0" stop-color="#598a36"/><stop offset="1" stop-color="#3d4226"/></linearGradient><linearGradient x1="241.79242" y1="180.24074" x2="241.79242" y2="192.52338" gradientUnits="userSpaceOnUse" id="color-3"><stop offset="0" stop-color="#491b00"/><stop offset="1" stop-color="#553625"/></linearGradient></defs><g transform="translate(-213.39493,-146.2147)"><g stroke-miterlimit="10"><path d="M215.89493,211.2853v-62.5706h48.21014v62.5706z" fill="#ffffff" stroke="#b5b5b5" stroke-width="5"/><g stroke="none"><path d="M222.65811,185.61363c0.11763,-5.95127 1.80707,-7.26331 6.0359,-11.27451c2.85885,-4.95881 1.07792,-12.16362 9.96211,-12.07584c8.24457,0.08146 7.58312,7.02983 10.7515,11.92158c4.55757,4.31232 6.06996,5.96634 6.18758,11.42875c0.14615,6.78651 -7.37322,12.28966 -16.46854,12.28966c-9.09533,0 -16.60269,-5.50301 -16.46854,-12.28966z" fill="url(#color-1)" stroke-width="0"/><path d="M226.24288,184.14457c0.11107,-5.6191 1.70621,-6.85793 5.69903,-10.64524c2.69929,-4.68204 1.01776,-11.48473 9.4061,-11.40185c7.78441,0.07692 7.15989,6.63748 10.15144,11.25621c4.30321,4.07164 5.73117,5.63334 5.84224,10.79088c0.13798,6.40774 -6.9617,11.60373 -15.54938,11.60373c-8.5877,0 -15.67605,-5.19587 -15.54938,-11.60373z" fill="url(#color-2)" stroke-width="0"/><path d="M248.51199,186.38206c0,3.39175 -3.00844,6.14132 -6.71955,6.14132c-3.71111,0 -6.71955,-2.74956 -6.71955,-6.14132c0,-3.39175 3.00844,-6.14132 6.71955,-6.14132c3.71111,0 6.71955,2.74956 6.71955,6.14132z" fill="url(#color-3)" stroke-width="0"/><path d="M232.59131,191.3877c-0.32494,0 -0.32494,-0.19978 -0.32494,-0.19978c0,-0.0498 0,-0.13451 0,-0.22149c-0.80672,-0.55789 -1.62945,-1.12848 -2.21887,-1.7305c-0.83247,-0.85437 -1.31936,-1.95502 -1.36325,-3.05537c-0.44933,-1.02073 0.10241,-1.96196 1.08422,-2.84895c0.25198,-0.26218 0.55018,-0.50462 0.89708,-0.72101c1.39586,-1.02018 3.17648,-1.9737 4.38548,-2.90286c1.21312,-0.90266 2.12802,-3.90573 1.4071,-5.05474c-0.15536,-0.24762 -1.27585,-0.32015 -1.54735,-0.49406c-0.54617,-0.34986 -0.6401,-1.19048 -0.82206,-1.64428c-0.0094,-1.89415 0.38883,-5.75192 3.55633,-6.75813c0,0 0.29064,-0.08935 0.43596,0.08935c0.14532,0.17869 -0.14532,0.26804 -0.14532,0.26804c-2.88784,0.85001 -3.18968,4.68235 -3.20195,6.35197c0.14522,0.35074 0.21647,1.151 0.64268,1.41432c0.43683,0.26989 1.35467,0.18274 1.66656,0.59858c0.72744,0.96986 0.2101,3.11007 -0.6556,4.49896c1.12605,-1.00017 1.8579,-2.10123 1.8579,-3.69263c0,-2.41784 0.51991,-4.73324 0.51991,-7.11231c0,0 0,-0.19978 0.32494,-0.19978c0.32494,0 0.32494,0.19978 0.32494,0.19978c0,2.38 -0.51991,4.69422 -0.51991,7.11231c0,3.18499 -2.84867,4.63731 -6.07817,6.90375c-2.49561,0.71113 -3.55372,2.34688 -3.49639,3.99892c0.02926,0.07081 0.06353,0.142 0.103,0.2136c1.16708,0.14821 2.08759,0.95937 2.91137,1.47318l0.24138,0.29196c0.19142,-0.82082 0.4543,-1.62892 0.73876,-2.48275c0.36282,-1.08903 -0.07718,-2.12037 0.77453,-3.17812c0.39372,-0.47751 0.24123,-1.07361 0.63243,-1.52736c0.79177,-0.91838 2.84966,-1.39989 3.94794,-2.14808c1.22533,-0.83475 0.87503,-2.23096 0.87509,-3.28514c0.00082,-2.30464 -0.89774,-5.20398 1.6379,-7.0228c0,0 0.21147,-0.15169 0.45818,-0.02167c0.24671,0.13002 0.03524,0.28171 0.03524,0.28171c-2.39233,1.71602 -1.48067,4.57847 -1.48144,6.76281c-0.00006,1.17287 0.3252,2.62106 -1.04252,3.5528c-1.04893,0.71458 -3.10731,1.19689 -3.85607,2.06736c-0.37494,0.43589 -0.24599,1.04676 -0.62548,1.51905c-0.83272,1.01255 -0.36958,2.03037 -0.71914,3.07961c-0.5582,1.67551 -1.03527,3.1686 -1.03555,4.94452c0,0.03676 0,0.07351 0,0.11027c0.3877,0.26695 0.76876,0.53144 1.1143,0.7961l0.23597,0.02567c0,0 0.30373,0.071 0.18824,0.25774c-0.11548,0.18674 -0.41921,0.11574 -0.41921,0.11574l-0.512,-0.14918c-0.22611,-0.17352 -0.46727,-0.34729 -0.71564,-0.5219c-0.0479,0.02604 -0.11698,0.04482 -0.2166,0.04482zM232.47667,188.48972c-0.29064,0.08935 -0.43596,-0.08935 -0.43596,-0.08935l-0.23291,-0.29217c-0.76051,-0.4591 -1.4551,-1.0428 -2.41651,-1.31429c0.15941,0.8037 0.57648,1.58466 1.21347,2.23644c0.45219,0.465 1.04768,0.90899 1.66721,1.34288c0.02195,-0.65826 0.10712,-1.28155 0.23513,-1.89375c-0.00957,0.00353 -0.0197,0.00695 -0.03043,0.01025z" fill="#491b00" stroke-width="0.5"/><path d="M250.98369,188.82651c-0.31851,-0.03955 -0.25418,-0.23538 -0.25418,-0.23538l0.12761,-0.38849c0.18369,-0.50187 0.54836,-0.60015 0.93285,-1.02518c0.28299,-1.91909 3.33141,-6.00837 0.25416,-7.61781c-1.29263,-0.7095 -1.62382,-2.18637 -2.75357,-3.02597c-1.34917,-1.00267 -4.77067,-2.24722 -4.80637,-3.7259c0,-2.34515 -0.21091,-4.72882 0.26246,-7.05718c0,0 0.0403,-0.19824 0.36274,-0.17346c0.32243,0.02478 0.28213,0.22302 0.28213,0.22302c-0.46996,2.31156 -0.25744,4.67932 -0.25744,7.00762c-0.04051,1.29605 3.46745,2.58699 4.65723,3.4712c1.07455,0.79858 1.41289,2.36011 2.67392,2.97632c3.47078,1.81526 0.12356,5.89257 -0.05193,8.03525c-0.35065,0.39602 -0.79933,0.55937 -0.91914,0.99119l-0.12761,0.38849c0,0 -0.06433,0.19583 -0.38284,0.15628z" fill="#491b00" stroke-width="0.5"/><path d="M248.9377,189.67899c-0.14532,-0.17869 0.14532,-0.26804 0.14532,-0.26804l0.38881,-0.08617c-0.49101,-2.17146 -0.3609,-4.6006 -0.65022,-6.76185c-0.71582,-1.57001 -1.65495,-3.19891 -2.44176,-4.83517c-0.32377,-0.67331 -1.35695,-1.60325 -0.01101,-1.7634c0,0 0.32494,0 0.32494,0.19978c0,0.19978 -0.32494,0.19978 -0.32494,0.19978c-0.02529,-0.00984 0.77779,1.48086 0.93605,2.05086c0.41946,1.51072 1.51034,2.67811 2.15642,4.07767c0.29392,2.33764 0.83883,4.63164 0.56334,7.04239l-0.651,0.23349c0,0 -0.29064,0.08935 -0.43596,-0.08935z" fill="#491b00" stroke-width="0.5"/></g></g></g></svg>