<svg version="1.1" xmlns="http://www.w3.org/2000/svg" xmlns:xlink="http://www.w3.org/1999/xlink" width="53.21014" height="67.5706" viewBox="0,0,53.21014,67.5706"><defs><radialGradient cx="238.60833" cy="179.03403" r="4.59167" gradientUnits="userSpaceOnUse" id="color-1"><stop offset="0" stop-color="#ffffff"/><stop offset="1" stop-color="#6f258a"/></radialGradient></defs><g transform="translate(-213.39493,-146.2147)"><g stroke-miterlimit="10"><path d="M215.89493,211.2853v-62.5706h48.21014v62.5706z" fill="#ffffff" stroke="#b5b5b5" stroke-width="5"/><g stroke="#000000" stroke-width="1.5"><path d="M237.74444,181.03542v-15.14444h4.51111v15.14444z" fill="#9a5800"/><path d="M235.78888,180.32292c0,-2.53591 2.05576,-4.59167 4.59167,-4.59167c2.53591,0 4.59167,2.05576 4.59167,4.59167c0,2.53591 -2.05576,4.59167 -4.59167,4.59167c-2.53591,0 -4.59167,-2.05576 -4.59167,-4.59167z" fill="url(#color-1)"/><path d="M228.72222,168.95209v-3.86667c0,0 4.04035,0.80556 6.76667,0.80556c4.16452,0 15.78889,0 15.78889,0v3.86667c0,0 -13.13538,0 -17.23889,0c-2.27888,0 -5.31667,-0.80556 -5.31667,-0.80556z" fill="#9a5800"/></g></g></g></svg>