<svg version="1.1" xmlns="http://www.w3.org/2000/svg" xmlns:xlink="http://www.w3.org/1999/xlink" width="53.21014" height="53.60124" viewBox="0,0,53.21014,53.60124"><defs><linearGradient x1="234.63981" y1="164.92738" x2="240.68022" y2="163.27905" gradientUnits="userSpaceOnUse" id="color-1"><stop offset="0" stop-color="#00a415"/><stop offset="1" stop-color="#00ff39"/></linearGradient><linearGradient x1="239.99987" y1="174.89623" x2="239.99987" y2="200.34371" gradientUnits="userSpaceOnUse" id="color-2"><stop offset="0" stop-color="#ff0000"/><stop offset="1" stop-color="#ca0000"/></linearGradient><linearGradient x1="239.99987" y1="174.89623" x2="239.99987" y2="200.34371" gradientUnits="userSpaceOnUse" id="color-3"><stop offset="0" stop-color="#8e0000"/><stop offset="1" stop-color="#6b0000"/></linearGradient></defs><g transform="translate(-213.39493,-153.25267)"><g stroke-miterlimit="10"><path d="M215.89493,204.35391v-48.60124h48.21014v48.60124z" fill="#ffffff" stroke="#b5b5b5" stroke-width="5" stroke-linecap="butt"/><g><path d="M241.55868,167.44353c0,0 -2.94767,0.23121 -5.60461,-2.13746c-2.59598,-2.31434 -3.30016,-5.34363 -3.30016,-5.34363c0,0 3.43356,-0.85391 6.32258,1.6225c2.60943,2.23674 2.58219,5.85861 2.58219,5.85861z" fill="url(#color-1)" stroke="#156b00" stroke-width="1.5" stroke-linecap="butt"/><path d="M239.8216,176.94268c0,0 0.32281,-4.8602 1.00883,-7.44968c0.63754,-2.40651 3.25161,-3.25898 3.25161,-3.25898" fill="none" stroke="#8f4500" stroke-width="2.5" stroke-linecap="round"/><path d="M227.27612,187.61997c-0.11514,-9.61472 3.74773,-10.5241 8.91336,-12.14336c1.20302,-0.3771 2.48295,0.91652 3.81037,0.91652c1.22204,0 2.40383,-1.32463 3.52242,-1.00304c5.31373,1.52767 9.08803,1.58671 9.20132,12.22986c0.08442,7.93057 -1.75586,7.39258 -4.52043,9.72659c-1.54786,1.30679 -3.06648,2.36594 -5.11564,2.81606c-0.8832,0.194 -2.14623,-1.3158 -3.08768,-1.3158c-0.83369,0 -1.64865,1.41674 -2.4376,1.26366c-1.76935,-0.34329 -3.40786,-1.0532 -4.83324,-2.04746c-3.29625,-2.29926 -5.34872,-1.74433 -5.4529,-10.44303z" fill="url(#color-2)" stroke="url(#color-3)" stroke-width="1" stroke-linecap="butt"/></g></g></g></svg>