<svg version="1.1" xmlns="http://www.w3.org/2000/svg" xmlns:xlink="http://www.w3.org/1999/xlink" width="53.21015" height="93.20782" viewBox="0,0,53.21015,93.20782"><defs><linearGradient x1="227.49732" y1="168.16496" x2="215.71754" y2="170.6619" gradientUnits="userSpaceOnUse" id="color-1"><stop offset="0" stop-color="#ff0000"/><stop offset="1" stop-color="#740000"/></linearGradient><linearGradient x1="254.40696" y1="191.185" x2="253.83878" y2="210.48082" gradientUnits="userSpaceOnUse" id="color-2"><stop offset="0" stop-color="#00a415"/><stop offset="1" stop-color="#00ff39"/></linearGradient><linearGradient x1="232.97844" y1="199.20307" x2="225.53022" y2="189.82188" gradientUnits="userSpaceOnUse" id="color-3"><stop offset="0" stop-color="#00a415"/><stop offset="1" stop-color="#00ff39"/></linearGradient><linearGradient x1="234.48954" y1="169.62638" x2="234.48653" y2="157.42931" gradientUnits="userSpaceOnUse" id="color-4"><stop offset="0" stop-color="#ff0000"/><stop offset="1" stop-color="#740000"/></linearGradient></defs><g transform="translate(-213.46163,-146.14416)"><g stroke-miterlimit="10"><path d="M215.96164,236.85198v-88.0706h48.21014v88.0706z" fill="#585858" stroke="#b5b5b5" stroke-width="5" stroke-linecap="butt"/><path d="M215.96164,211.35198v-62.70782h48.21014v62.70782z" fill="none" stroke="#b5b5b5" stroke-width="5" stroke-linecap="butt"/><text transform="translate(229.43754,220.21061) scale(0.1811,0.1811)" font-size="40" xml:space="preserve" fill="#ffffff" stroke="none" stroke-width="1" stroke-linecap="butt" font-family="Sans Serif" font-weight="normal" text-anchor="start"><tspan x="0" dy="0">weird</tspan></text><text transform="translate(220.31253,229.28842) scale(0.15633,0.15633)" font-size="40" xml:space="preserve" fill="#ffffff" stroke="none" stroke-width="1" stroke-linecap="butt" font-family="Sans Serif" font-weight="normal" text-anchor="start"><tspan x="0" dy="0">click to equip</tspan></text><path d="M215.96164,211.35198v-62.70782h48.21014v62.70782z" fill="none" stroke="#b5b5b5" stroke-width="5" stroke-linecap="butt"/><path d="M215.96164,211.35198v-62.5706h48.21014v62.5706z" fill="#ffffff" stroke="#b5b5b5" stroke-width="5" stroke-linecap="butt"/><path d="M220.24282,162.97566c3.2529,-0.68951 6.50084,1.63383 7.25449,5.18932c0.75365,3.55548 -1.27239,6.99675 -4.52527,7.68626c-2.73739,0.58024 -5.47127,-0.9731 -6.71816,-3.59885c-0.23482,-0.49449 -0.1865,-1.29053 -0.30593,-1.85399c-0.18898,-0.89154 -0.43358,-1.51237 -0.29749,-2.34796c0.40664,-2.49677 2.15514,-4.55814 4.59237,-5.07476z" fill="url(#color-1)" stroke="#6c0000" stroke-width="2.5" stroke-linecap="butt"/><path d="M260.24187,210.66934c0,0 -6.50821,-1.50861 -10.62004,-8.42081c-1.63388,-3.4033 -1.64114,-10.76182 -1.64114,-10.76182c0,0 7.81762,1.00653 10.68634,4.80221c4.09931,6.5956 1.57483,14.38043 1.57483,14.38043z" fill="url(#color-2)" stroke="#156b00" stroke-width="1.5" stroke-linecap="butt"/><path d="M232.19223,185.14044c0,0 2.62673,5.00962 0.46233,11.46613c-2.11476,6.30839 -6.91169,9.82836 -6.91169,9.82836c0,0 -4.08775,-5.39511 -1.9087,-12.34089c1.96816,-6.2736 8.35807,-8.9536 8.35807,-8.9536z" fill="url(#color-3)" stroke="#156b00" stroke-width="1.5" stroke-linecap="butt"/><path d="M215.96164,211.35198v-62.70782h48.21014v62.70782z" fill="none" stroke="#b5b5b5" stroke-width="5" stroke-linecap="butt"/><path d="M225.71338,168.59531c0,0 8.73148,-1.70223 9.46295,-1.48246c2.03703,0.61202 6.18904,2.73418 8.43768,10.03105c3.08056,9.99643 4.42215,13.2992 4.42215,13.2992" fill="none" stroke="#156b00" stroke-width="2.5" stroke-linecap="round"/><path d="M241.15387,163.52621c0.00083,3.36813 -2.9829,6.09927 -6.66434,6.10017c-3.68144,0.00091 -6.66652,-2.72877 -6.66735,-6.09689c-0.0007,-2.83436 2.11215,-5.21763 4.97574,-5.90237c0.53928,-0.12895 1.31799,0.08594 1.90141,0.08579c0.92313,-0.00023 1.58965,-0.11237 2.38914,0.1978c2.38887,0.92678 4.06477,3.09193 4.0654,5.6155z" fill="url(#color-4)" stroke="#6c0000" stroke-width="2.5" stroke-linecap="butt"/><path d="M231.94446,185.11112c0,0 -0.56313,-0.90428 -1.0991,-2.08633c-0.67633,-1.4916 -1.23043,-3.78091 0.32632,-9.22024c2.24632,-7.84867 2.72834,-6.93788 2.72834,-6.93788" fill="none" stroke="#156b00" stroke-width="2.5" stroke-linecap="round"/><path d="M232.8195,166.70788c0,0 -0.16085,-0.71539 1.0213,-0.78204c0.82815,-0.04669 0.94717,0.92675 0.94717,0.92675" fill="none" stroke="#6c0000" stroke-width="1" stroke-linecap="round"/><path d="M225.64014,169.53191c0,0 -0.95823,0.13849 -1.12803,-0.6626c-0.24239,-1.14351 0.48081,-1.17538 0.48081,-1.17538" fill="none" stroke="#6c0000" stroke-width="1" stroke-linecap="round"/></g></g></svg>