<svg version="1.1" xmlns="http://www.w3.org/2000/svg" xmlns:xlink="http://www.w3.org/1999/xlink" width="53.21014" height="67.5706" viewBox="0,0,53.21014,67.5706"><defs><linearGradient x1="222.16861" y1="154.53801" x2="222.16861" y2="171.3244" gradientUnits="userSpaceOnUse" id="color-1"><stop offset="0" stop-color="#4eab0c"/><stop offset="1" stop-color="#10480c"/></linearGradient><linearGradient x1="223.2879" y1="154.00316" x2="223.2879" y2="169.85266" gradientUnits="userSpaceOnUse" id="color-2"><stop offset="0" stop-color="#a4ff63"/><stop offset="1" stop-color="#edff95"/></linearGradient><linearGradient x1="223.28796" y1="159.2618" x2="223.28796" y2="167.6502" gradientUnits="userSpaceOnUse" id="color-3"><stop offset="0" stop-color="#772c00"/><stop offset="1" stop-color="#784c35"/></linearGradient><linearGradient x1="228.35689" y1="155.22559" x2="228.35689" y2="172.01199" gradientUnits="userSpaceOnUse" id="color-4"><stop offset="0" stop-color="#4eab0c"/><stop offset="1" stop-color="#10480c"/></linearGradient><linearGradient x1="229.47618" y1="154.69075" x2="229.47618" y2="170.54025" gradientUnits="userSpaceOnUse" id="color-5"><stop offset="0" stop-color="#a4ff63"/><stop offset="1" stop-color="#edff95"/></linearGradient><linearGradient x1="229.47624" y1="159.94939" x2="229.47624" y2="168.33779" gradientUnits="userSpaceOnUse" id="color-6"><stop offset="0" stop-color="#772c00"/><stop offset="1" stop-color="#784c35"/></linearGradient><linearGradient x1="235.37026" y1="154.67552" x2="235.37026" y2="171.46192" gradientUnits="userSpaceOnUse" id="color-7"><stop offset="0" stop-color="#4eab0c"/><stop offset="1" stop-color="#10480c"/></linearGradient><linearGradient x1="236.48955" y1="154.14068" x2="236.48955" y2="169.99018" gradientUnits="userSpaceOnUse" id="color-8"><stop offset="0" stop-color="#a4ff63"/><stop offset="1" stop-color="#edff95"/></linearGradient><linearGradient x1="236.48961" y1="159.39932" x2="236.48961" y2="167.78772" gradientUnits="userSpaceOnUse" id="color-9"><stop offset="0" stop-color="#772c00"/><stop offset="1" stop-color="#784c35"/></linearGradient><linearGradient x1="244.30887" y1="155.36311" x2="244.30887" y2="172.1495" gradientUnits="userSpaceOnUse" id="color-10"><stop offset="0" stop-color="#4eab0c"/><stop offset="1" stop-color="#10480c"/></linearGradient><linearGradient x1="245.42816" y1="154.82827" x2="245.42816" y2="170.67777" gradientUnits="userSpaceOnUse" id="color-11"><stop offset="0" stop-color="#a4ff63"/><stop offset="1" stop-color="#edff95"/></linearGradient><linearGradient x1="245.42822" y1="160.0869" x2="245.42822" y2="168.4753" gradientUnits="userSpaceOnUse" id="color-12"><stop offset="0" stop-color="#772c00"/><stop offset="1" stop-color="#784c35"/></linearGradient><linearGradient x1="251.59728" y1="156.46324" x2="251.59728" y2="173.24964" gradientUnits="userSpaceOnUse" id="color-13"><stop offset="0" stop-color="#4eab0c"/><stop offset="1" stop-color="#10480c"/></linearGradient><linearGradient x1="252.71657" y1="155.9284" x2="252.71657" y2="171.7779" gradientUnits="userSpaceOnUse" id="color-14"><stop offset="0" stop-color="#a4ff63"/><stop offset="1" stop-color="#edff95"/></linearGradient><linearGradient x1="252.71663" y1="161.18704" x2="252.71663" y2="169.57544" gradientUnits="userSpaceOnUse" id="color-15"><stop offset="0" stop-color="#772c00"/><stop offset="1" stop-color="#784c35"/></linearGradient><linearGradient x1="256.5479" y1="156.46324" x2="256.5479" y2="173.24964" gradientUnits="userSpaceOnUse" id="color-16"><stop offset="0" stop-color="#4eab0c"/><stop offset="1" stop-color="#10480c"/></linearGradient><linearGradient x1="257.66719" y1="155.9284" x2="257.66719" y2="171.7779" gradientUnits="userSpaceOnUse" id="color-17"><stop offset="0" stop-color="#a4ff63"/><stop offset="1" stop-color="#edff95"/></linearGradient><linearGradient x1="257.66725" y1="161.18704" x2="257.66725" y2="169.57544" gradientUnits="userSpaceOnUse" id="color-18"><stop offset="0" stop-color="#772c00"/><stop offset="1" stop-color="#784c35"/></linearGradient><linearGradient x1="222.30613" y1="163.06407" x2="222.30613" y2="179.85046" gradientUnits="userSpaceOnUse" id="color-19"><stop offset="0" stop-color="#4eab0c"/><stop offset="1" stop-color="#10480c"/></linearGradient><linearGradient x1="223.42542" y1="162.52923" x2="223.42542" y2="178.37873" gradientUnits="userSpaceOnUse" id="color-20"><stop offset="0" stop-color="#a4ff63"/><stop offset="1" stop-color="#edff95"/></linearGradient><linearGradient x1="223.42548" y1="167.78786" x2="223.42548" y2="176.17627" gradientUnits="userSpaceOnUse" id="color-21"><stop offset="0" stop-color="#772c00"/><stop offset="1" stop-color="#784c35"/></linearGradient><linearGradient x1="228.4944" y1="163.75165" x2="228.4944" y2="180.53805" gradientUnits="userSpaceOnUse" id="color-22"><stop offset="0" stop-color="#4eab0c"/><stop offset="1" stop-color="#10480c"/></linearGradient><linearGradient x1="229.61369" y1="163.21681" x2="229.61369" y2="179.06631" gradientUnits="userSpaceOnUse" id="color-23"><stop offset="0" stop-color="#a4ff63"/><stop offset="1" stop-color="#edff95"/></linearGradient><linearGradient x1="229.61375" y1="168.47545" x2="229.61375" y2="176.86385" gradientUnits="userSpaceOnUse" id="color-24"><stop offset="0" stop-color="#772c00"/><stop offset="1" stop-color="#784c35"/></linearGradient><linearGradient x1="235.50778" y1="163.20158" x2="235.50778" y2="179.98798" gradientUnits="userSpaceOnUse" id="color-25"><stop offset="0" stop-color="#4eab0c"/><stop offset="1" stop-color="#10480c"/></linearGradient><linearGradient x1="236.62707" y1="162.66674" x2="236.62707" y2="178.51624" gradientUnits="userSpaceOnUse" id="color-26"><stop offset="0" stop-color="#a4ff63"/><stop offset="1" stop-color="#edff95"/></linearGradient><linearGradient x1="236.62713" y1="167.92538" x2="236.62713" y2="176.31378" gradientUnits="userSpaceOnUse" id="color-27"><stop offset="0" stop-color="#772c00"/><stop offset="1" stop-color="#784c35"/></linearGradient><linearGradient x1="244.44639" y1="163.88917" x2="244.44639" y2="180.67556" gradientUnits="userSpaceOnUse" id="color-28"><stop offset="0" stop-color="#4eab0c"/><stop offset="1" stop-color="#10480c"/></linearGradient><linearGradient x1="245.56568" y1="163.35433" x2="245.56568" y2="179.20383" gradientUnits="userSpaceOnUse" id="color-29"><stop offset="0" stop-color="#a4ff63"/><stop offset="1" stop-color="#edff95"/></linearGradient><linearGradient x1="245.56574" y1="168.61296" x2="245.56574" y2="177.00136" gradientUnits="userSpaceOnUse" id="color-30"><stop offset="0" stop-color="#772c00"/><stop offset="1" stop-color="#784c35"/></linearGradient><linearGradient x1="251.7348" y1="164.98931" x2="251.7348" y2="181.7757" gradientUnits="userSpaceOnUse" id="color-31"><stop offset="0" stop-color="#4eab0c"/><stop offset="1" stop-color="#10480c"/></linearGradient><linearGradient x1="252.85409" y1="164.45447" x2="252.85409" y2="180.30397" gradientUnits="userSpaceOnUse" id="color-32"><stop offset="0" stop-color="#a4ff63"/><stop offset="1" stop-color="#edff95"/></linearGradient><linearGradient x1="252.85415" y1="169.7131" x2="252.85415" y2="178.1015" gradientUnits="userSpaceOnUse" id="color-33"><stop offset="0" stop-color="#772c00"/><stop offset="1" stop-color="#784c35"/></linearGradient><linearGradient x1="256.68542" y1="164.9893" x2="256.68542" y2="181.7757" gradientUnits="userSpaceOnUse" id="color-34"><stop offset="0" stop-color="#4eab0c"/><stop offset="1" stop-color="#10480c"/></linearGradient><linearGradient x1="257.80471" y1="164.45446" x2="257.80471" y2="180.30396" gradientUnits="userSpaceOnUse" id="color-35"><stop offset="0" stop-color="#a4ff63"/><stop offset="1" stop-color="#edff95"/></linearGradient><linearGradient x1="257.80477" y1="169.7131" x2="257.80477" y2="178.1015" gradientUnits="userSpaceOnUse" id="color-36"><stop offset="0" stop-color="#772c00"/><stop offset="1" stop-color="#784c35"/></linearGradient><linearGradient x1="222.30613" y1="170.07744" x2="222.30613" y2="186.86384" gradientUnits="userSpaceOnUse" id="color-37"><stop offset="0" stop-color="#4eab0c"/><stop offset="1" stop-color="#10480c"/></linearGradient><linearGradient x1="223.42542" y1="169.5426" x2="223.42542" y2="185.3921" gradientUnits="userSpaceOnUse" id="color-38"><stop offset="0" stop-color="#a4ff63"/><stop offset="1" stop-color="#edff95"/></linearGradient><linearGradient x1="223.42548" y1="174.80124" x2="223.42548" y2="183.18964" gradientUnits="userSpaceOnUse" id="color-39"><stop offset="0" stop-color="#772c00"/><stop offset="1" stop-color="#784c35"/></linearGradient><linearGradient x1="228.4944" y1="170.76503" x2="228.4944" y2="187.55142" gradientUnits="userSpaceOnUse" id="color-40"><stop offset="0" stop-color="#4eab0c"/><stop offset="1" stop-color="#10480c"/></linearGradient><linearGradient x1="229.61369" y1="170.23019" x2="229.61369" y2="186.07969" gradientUnits="userSpaceOnUse" id="color-41"><stop offset="0" stop-color="#a4ff63"/><stop offset="1" stop-color="#edff95"/></linearGradient><linearGradient x1="229.61375" y1="175.48882" x2="229.61375" y2="183.87722" gradientUnits="userSpaceOnUse" id="color-42"><stop offset="0" stop-color="#772c00"/><stop offset="1" stop-color="#784c35"/></linearGradient><linearGradient x1="235.50777" y1="170.21496" x2="235.50777" y2="187.00135" gradientUnits="userSpaceOnUse" id="color-43"><stop offset="0" stop-color="#4eab0c"/><stop offset="1" stop-color="#10480c"/></linearGradient><linearGradient x1="236.62706" y1="169.68012" x2="236.62706" y2="185.52962" gradientUnits="userSpaceOnUse" id="color-44"><stop offset="0" stop-color="#a4ff63"/><stop offset="1" stop-color="#edff95"/></linearGradient><linearGradient x1="236.62712" y1="174.93875" x2="236.62712" y2="183.32715" gradientUnits="userSpaceOnUse" id="color-45"><stop offset="0" stop-color="#772c00"/><stop offset="1" stop-color="#784c35"/></linearGradient><linearGradient x1="244.44639" y1="170.90254" x2="244.44639" y2="187.68894" gradientUnits="userSpaceOnUse" id="color-46"><stop offset="0" stop-color="#4eab0c"/><stop offset="1" stop-color="#10480c"/></linearGradient><linearGradient x1="245.56568" y1="170.3677" x2="245.56568" y2="186.2172" gradientUnits="userSpaceOnUse" id="color-47"><stop offset="0" stop-color="#a4ff63"/><stop offset="1" stop-color="#edff95"/></linearGradient><linearGradient x1="245.56574" y1="175.62634" x2="245.56574" y2="184.01474" gradientUnits="userSpaceOnUse" id="color-48"><stop offset="0" stop-color="#772c00"/><stop offset="1" stop-color="#784c35"/></linearGradient><linearGradient x1="251.7348" y1="172.00268" x2="251.7348" y2="188.78908" gradientUnits="userSpaceOnUse" id="color-49"><stop offset="0" stop-color="#4eab0c"/><stop offset="1" stop-color="#10480c"/></linearGradient><linearGradient x1="252.85409" y1="171.46784" x2="252.85409" y2="187.31734" gradientUnits="userSpaceOnUse" id="color-50"><stop offset="0" stop-color="#a4ff63"/><stop offset="1" stop-color="#edff95"/></linearGradient><linearGradient x1="252.85415" y1="176.72648" x2="252.85415" y2="185.11488" gradientUnits="userSpaceOnUse" id="color-51"><stop offset="0" stop-color="#772c00"/><stop offset="1" stop-color="#784c35"/></linearGradient><linearGradient x1="256.68541" y1="172.00268" x2="256.68541" y2="188.78907" gradientUnits="userSpaceOnUse" id="color-52"><stop offset="0" stop-color="#4eab0c"/><stop offset="1" stop-color="#10480c"/></linearGradient><linearGradient x1="257.80471" y1="171.46784" x2="257.80471" y2="187.31734" gradientUnits="userSpaceOnUse" id="color-53"><stop offset="0" stop-color="#a4ff63"/><stop offset="1" stop-color="#edff95"/></linearGradient><linearGradient x1="257.80476" y1="176.72647" x2="257.80476" y2="185.11487" gradientUnits="userSpaceOnUse" id="color-54"><stop offset="0" stop-color="#772c00"/><stop offset="1" stop-color="#784c35"/></linearGradient><linearGradient x1="222.71868" y1="176.67827" x2="222.71868" y2="193.46466" gradientUnits="userSpaceOnUse" id="color-55"><stop offset="0" stop-color="#4eab0c"/><stop offset="1" stop-color="#10480c"/></linearGradient><linearGradient x1="223.83797" y1="176.14343" x2="223.83797" y2="191.99293" gradientUnits="userSpaceOnUse" id="color-56"><stop offset="0" stop-color="#a4ff63"/><stop offset="1" stop-color="#edff95"/></linearGradient><linearGradient x1="223.83803" y1="181.40206" x2="223.83803" y2="189.79047" gradientUnits="userSpaceOnUse" id="color-57"><stop offset="0" stop-color="#772c00"/><stop offset="1" stop-color="#784c35"/></linearGradient><linearGradient x1="228.90695" y1="177.36585" x2="228.90695" y2="194.15225" gradientUnits="userSpaceOnUse" id="color-58"><stop offset="0" stop-color="#4eab0c"/><stop offset="1" stop-color="#10480c"/></linearGradient><linearGradient x1="230.02624" y1="176.83101" x2="230.02624" y2="192.68051" gradientUnits="userSpaceOnUse" id="color-59"><stop offset="0" stop-color="#a4ff63"/><stop offset="1" stop-color="#edff95"/></linearGradient><linearGradient x1="230.0263" y1="182.08965" x2="230.0263" y2="190.47805" gradientUnits="userSpaceOnUse" id="color-60"><stop offset="0" stop-color="#772c00"/><stop offset="1" stop-color="#784c35"/></linearGradient><linearGradient x1="235.92033" y1="176.81578" x2="235.92033" y2="193.60218" gradientUnits="userSpaceOnUse" id="color-61"><stop offset="0" stop-color="#4eab0c"/><stop offset="1" stop-color="#10480c"/></linearGradient><linearGradient x1="237.03962" y1="176.28094" x2="237.03962" y2="192.13044" gradientUnits="userSpaceOnUse" id="color-62"><stop offset="0" stop-color="#a4ff63"/><stop offset="1" stop-color="#edff95"/></linearGradient><linearGradient x1="237.03968" y1="181.53958" x2="237.03968" y2="189.92798" gradientUnits="userSpaceOnUse" id="color-63"><stop offset="0" stop-color="#772c00"/><stop offset="1" stop-color="#784c35"/></linearGradient><linearGradient x1="244.85894" y1="177.50337" x2="244.85894" y2="194.28976" gradientUnits="userSpaceOnUse" id="color-64"><stop offset="0" stop-color="#4eab0c"/><stop offset="1" stop-color="#10480c"/></linearGradient><linearGradient x1="245.97823" y1="176.96853" x2="245.97823" y2="192.81803" gradientUnits="userSpaceOnUse" id="color-65"><stop offset="0" stop-color="#a4ff63"/><stop offset="1" stop-color="#edff95"/></linearGradient><linearGradient x1="245.97829" y1="182.22716" x2="245.97829" y2="190.61556" gradientUnits="userSpaceOnUse" id="color-66"><stop offset="0" stop-color="#772c00"/><stop offset="1" stop-color="#784c35"/></linearGradient><linearGradient x1="252.14735" y1="178.60351" x2="252.14735" y2="195.3899" gradientUnits="userSpaceOnUse" id="color-67"><stop offset="0" stop-color="#4eab0c"/><stop offset="1" stop-color="#10480c"/></linearGradient><linearGradient x1="253.26664" y1="178.06867" x2="253.26664" y2="193.91817" gradientUnits="userSpaceOnUse" id="color-68"><stop offset="0" stop-color="#a4ff63"/><stop offset="1" stop-color="#edff95"/></linearGradient><linearGradient x1="253.2667" y1="183.3273" x2="253.2667" y2="191.7157" gradientUnits="userSpaceOnUse" id="color-69"><stop offset="0" stop-color="#772c00"/><stop offset="1" stop-color="#784c35"/></linearGradient><linearGradient x1="257.09797" y1="178.6035" x2="257.09797" y2="195.3899" gradientUnits="userSpaceOnUse" id="color-70"><stop offset="0" stop-color="#4eab0c"/><stop offset="1" stop-color="#10480c"/></linearGradient><linearGradient x1="258.21726" y1="178.06866" x2="258.21726" y2="193.91816" gradientUnits="userSpaceOnUse" id="color-71"><stop offset="0" stop-color="#a4ff63"/><stop offset="1" stop-color="#edff95"/></linearGradient><linearGradient x1="258.21732" y1="183.3273" x2="258.21732" y2="191.7157" gradientUnits="userSpaceOnUse" id="color-72"><stop offset="0" stop-color="#772c00"/><stop offset="1" stop-color="#784c35"/></linearGradient><linearGradient x1="222.16861" y1="181.90392" x2="222.16861" y2="198.69032" gradientUnits="userSpaceOnUse" id="color-73"><stop offset="0" stop-color="#4eab0c"/><stop offset="1" stop-color="#10480c"/></linearGradient><linearGradient x1="223.2879" y1="181.36908" x2="223.2879" y2="197.21858" gradientUnits="userSpaceOnUse" id="color-74"><stop offset="0" stop-color="#a4ff63"/><stop offset="1" stop-color="#edff95"/></linearGradient><linearGradient x1="223.28796" y1="186.62772" x2="223.28796" y2="195.01612" gradientUnits="userSpaceOnUse" id="color-75"><stop offset="0" stop-color="#772c00"/><stop offset="1" stop-color="#784c35"/></linearGradient><linearGradient x1="228.35688" y1="182.59151" x2="228.35688" y2="199.3779" gradientUnits="userSpaceOnUse" id="color-76"><stop offset="0" stop-color="#4eab0c"/><stop offset="1" stop-color="#10480c"/></linearGradient><linearGradient x1="229.47617" y1="182.05667" x2="229.47617" y2="197.90617" gradientUnits="userSpaceOnUse" id="color-77"><stop offset="0" stop-color="#a4ff63"/><stop offset="1" stop-color="#edff95"/></linearGradient><linearGradient x1="229.47623" y1="187.3153" x2="229.47623" y2="195.7037" gradientUnits="userSpaceOnUse" id="color-78"><stop offset="0" stop-color="#772c00"/><stop offset="1" stop-color="#784c35"/></linearGradient><linearGradient x1="235.37026" y1="182.04144" x2="235.37026" y2="198.82783" gradientUnits="userSpaceOnUse" id="color-79"><stop offset="0" stop-color="#4eab0c"/><stop offset="1" stop-color="#10480c"/></linearGradient><linearGradient x1="236.48955" y1="181.5066" x2="236.48955" y2="197.3561" gradientUnits="userSpaceOnUse" id="color-80"><stop offset="0" stop-color="#a4ff63"/><stop offset="1" stop-color="#edff95"/></linearGradient><linearGradient x1="236.48961" y1="186.76523" x2="236.48961" y2="195.15363" gradientUnits="userSpaceOnUse" id="color-81"><stop offset="0" stop-color="#772c00"/><stop offset="1" stop-color="#784c35"/></linearGradient><linearGradient x1="244.30887" y1="182.72902" x2="244.30887" y2="199.51542" gradientUnits="userSpaceOnUse" id="color-82"><stop offset="0" stop-color="#4eab0c"/><stop offset="1" stop-color="#10480c"/></linearGradient><linearGradient x1="245.42816" y1="182.19418" x2="245.42816" y2="198.04368" gradientUnits="userSpaceOnUse" id="color-83"><stop offset="0" stop-color="#a4ff63"/><stop offset="1" stop-color="#edff95"/></linearGradient><linearGradient x1="245.42822" y1="187.45282" x2="245.42822" y2="195.84122" gradientUnits="userSpaceOnUse" id="color-84"><stop offset="0" stop-color="#772c00"/><stop offset="1" stop-color="#784c35"/></linearGradient><linearGradient x1="251.59728" y1="183.82916" x2="251.59728" y2="200.61556" gradientUnits="userSpaceOnUse" id="color-85"><stop offset="0" stop-color="#4eab0c"/><stop offset="1" stop-color="#10480c"/></linearGradient><linearGradient x1="252.71657" y1="183.29432" x2="252.71657" y2="199.14382" gradientUnits="userSpaceOnUse" id="color-86"><stop offset="0" stop-color="#a4ff63"/><stop offset="1" stop-color="#edff95"/></linearGradient><linearGradient x1="252.71663" y1="188.55296" x2="252.71663" y2="196.94136" gradientUnits="userSpaceOnUse" id="color-87"><stop offset="0" stop-color="#772c00"/><stop offset="1" stop-color="#784c35"/></linearGradient><linearGradient x1="256.5479" y1="183.82916" x2="256.5479" y2="200.61555" gradientUnits="userSpaceOnUse" id="color-88"><stop offset="0" stop-color="#4eab0c"/><stop offset="1" stop-color="#10480c"/></linearGradient><linearGradient x1="257.66719" y1="183.29432" x2="257.66719" y2="199.14382" gradientUnits="userSpaceOnUse" id="color-89"><stop offset="0" stop-color="#a4ff63"/><stop offset="1" stop-color="#edff95"/></linearGradient><linearGradient x1="257.66725" y1="188.55295" x2="257.66725" y2="196.94135" gradientUnits="userSpaceOnUse" id="color-90"><stop offset="0" stop-color="#772c00"/><stop offset="1" stop-color="#784c35"/></linearGradient><linearGradient x1="222.44364" y1="189.05481" x2="222.44364" y2="205.84121" gradientUnits="userSpaceOnUse" id="color-91"><stop offset="0" stop-color="#4eab0c"/><stop offset="1" stop-color="#10480c"/></linearGradient><linearGradient x1="223.56293" y1="188.51997" x2="223.56293" y2="204.36947" gradientUnits="userSpaceOnUse" id="color-92"><stop offset="0" stop-color="#a4ff63"/><stop offset="1" stop-color="#edff95"/></linearGradient><linearGradient x1="223.56299" y1="193.77861" x2="223.56299" y2="202.16701" gradientUnits="userSpaceOnUse" id="color-93"><stop offset="0" stop-color="#772c00"/><stop offset="1" stop-color="#784c35"/></linearGradient><linearGradient x1="228.63191" y1="189.7424" x2="228.63191" y2="206.52879" gradientUnits="userSpaceOnUse" id="color-94"><stop offset="0" stop-color="#4eab0c"/><stop offset="1" stop-color="#10480c"/></linearGradient><linearGradient x1="229.7512" y1="189.20756" x2="229.7512" y2="205.05706" gradientUnits="userSpaceOnUse" id="color-95"><stop offset="0" stop-color="#a4ff63"/><stop offset="1" stop-color="#edff95"/></linearGradient><linearGradient x1="229.75126" y1="194.46619" x2="229.75126" y2="202.85459" gradientUnits="userSpaceOnUse" id="color-96"><stop offset="0" stop-color="#772c00"/><stop offset="1" stop-color="#784c35"/></linearGradient><linearGradient x1="235.64529" y1="189.19233" x2="235.64529" y2="205.97872" gradientUnits="userSpaceOnUse" id="color-97"><stop offset="0" stop-color="#4eab0c"/><stop offset="1" stop-color="#10480c"/></linearGradient><linearGradient x1="236.76458" y1="188.65749" x2="236.76458" y2="204.50699" gradientUnits="userSpaceOnUse" id="color-98"><stop offset="0" stop-color="#a4ff63"/><stop offset="1" stop-color="#edff95"/></linearGradient><linearGradient x1="236.76464" y1="193.91612" x2="236.76464" y2="202.30452" gradientUnits="userSpaceOnUse" id="color-99"><stop offset="0" stop-color="#772c00"/><stop offset="1" stop-color="#784c35"/></linearGradient><linearGradient x1="244.5839" y1="189.87991" x2="244.5839" y2="206.66631" gradientUnits="userSpaceOnUse" id="color-100"><stop offset="0" stop-color="#4eab0c"/><stop offset="1" stop-color="#10480c"/></linearGradient><linearGradient x1="245.70319" y1="189.34507" x2="245.70319" y2="205.19457" gradientUnits="userSpaceOnUse" id="color-101"><stop offset="0" stop-color="#a4ff63"/><stop offset="1" stop-color="#edff95"/></linearGradient><linearGradient x1="245.70325" y1="194.60371" x2="245.70325" y2="202.99211" gradientUnits="userSpaceOnUse" id="color-102"><stop offset="0" stop-color="#772c00"/><stop offset="1" stop-color="#784c35"/></linearGradient><linearGradient x1="251.87231" y1="190.98005" x2="251.87231" y2="207.76645" gradientUnits="userSpaceOnUse" id="color-103"><stop offset="0" stop-color="#4eab0c"/><stop offset="1" stop-color="#10480c"/></linearGradient><linearGradient x1="252.9916" y1="190.44521" x2="252.9916" y2="206.29471" gradientUnits="userSpaceOnUse" id="color-104"><stop offset="0" stop-color="#a4ff63"/><stop offset="1" stop-color="#edff95"/></linearGradient><linearGradient x1="252.99166" y1="195.70385" x2="252.99166" y2="204.09225" gradientUnits="userSpaceOnUse" id="color-105"><stop offset="0" stop-color="#772c00"/><stop offset="1" stop-color="#784c35"/></linearGradient><linearGradient x1="256.82293" y1="190.98005" x2="256.82293" y2="207.76644" gradientUnits="userSpaceOnUse" id="color-106"><stop offset="0" stop-color="#4eab0c"/><stop offset="1" stop-color="#10480c"/></linearGradient><linearGradient x1="257.94222" y1="190.44521" x2="257.94222" y2="206.29471" gradientUnits="userSpaceOnUse" id="color-107"><stop offset="0" stop-color="#a4ff63"/><stop offset="1" stop-color="#edff95"/></linearGradient><linearGradient x1="257.94228" y1="195.70384" x2="257.94228" y2="204.09224" gradientUnits="userSpaceOnUse" id="color-108"><stop offset="0" stop-color="#772c00"/><stop offset="1" stop-color="#784c35"/></linearGradient><linearGradient x1="221.48102" y1="194.28046" x2="221.48102" y2="211.06686" gradientUnits="userSpaceOnUse" id="color-109"><stop offset="0" stop-color="#4eab0c"/><stop offset="1" stop-color="#10480c"/></linearGradient><linearGradient x1="222.60031" y1="193.74562" x2="222.60031" y2="209.59512" gradientUnits="userSpaceOnUse" id="color-110"><stop offset="0" stop-color="#a4ff63"/><stop offset="1" stop-color="#edff95"/></linearGradient><linearGradient x1="222.60037" y1="199.00426" x2="222.60037" y2="207.39266" gradientUnits="userSpaceOnUse" id="color-111"><stop offset="0" stop-color="#772c00"/><stop offset="1" stop-color="#784c35"/></linearGradient><linearGradient x1="227.66929" y1="194.96805" x2="227.66929" y2="211.75444" gradientUnits="userSpaceOnUse" id="color-112"><stop offset="0" stop-color="#4eab0c"/><stop offset="1" stop-color="#10480c"/></linearGradient><linearGradient x1="228.78858" y1="194.43321" x2="228.78858" y2="210.28271" gradientUnits="userSpaceOnUse" id="color-113"><stop offset="0" stop-color="#a4ff63"/><stop offset="1" stop-color="#edff95"/></linearGradient><linearGradient x1="228.78864" y1="199.69184" x2="228.78864" y2="208.08024" gradientUnits="userSpaceOnUse" id="color-114"><stop offset="0" stop-color="#772c00"/><stop offset="1" stop-color="#784c35"/></linearGradient><linearGradient x1="234.68267" y1="194.41798" x2="234.68267" y2="211.20437" gradientUnits="userSpaceOnUse" id="color-115"><stop offset="0" stop-color="#4eab0c"/><stop offset="1" stop-color="#10480c"/></linearGradient><linearGradient x1="235.80196" y1="193.88314" x2="235.80196" y2="209.73264" gradientUnits="userSpaceOnUse" id="color-116"><stop offset="0" stop-color="#a4ff63"/><stop offset="1" stop-color="#edff95"/></linearGradient><linearGradient x1="235.80202" y1="199.14177" x2="235.80202" y2="207.53017" gradientUnits="userSpaceOnUse" id="color-117"><stop offset="0" stop-color="#772c00"/><stop offset="1" stop-color="#784c35"/></linearGradient><linearGradient x1="243.62128" y1="195.10556" x2="243.62128" y2="211.89196" gradientUnits="userSpaceOnUse" id="color-118"><stop offset="0" stop-color="#4eab0c"/><stop offset="1" stop-color="#10480c"/></linearGradient><linearGradient x1="244.74057" y1="194.57072" x2="244.74057" y2="210.42022" gradientUnits="userSpaceOnUse" id="color-119"><stop offset="0" stop-color="#a4ff63"/><stop offset="1" stop-color="#edff95"/></linearGradient><linearGradient x1="244.74063" y1="199.82936" x2="244.74063" y2="208.21776" gradientUnits="userSpaceOnUse" id="color-120"><stop offset="0" stop-color="#772c00"/><stop offset="1" stop-color="#784c35"/></linearGradient><linearGradient x1="250.90969" y1="196.2057" x2="250.90969" y2="212.9921" gradientUnits="userSpaceOnUse" id="color-121"><stop offset="0" stop-color="#4eab0c"/><stop offset="1" stop-color="#10480c"/></linearGradient><linearGradient x1="252.02898" y1="195.67086" x2="252.02898" y2="211.52036" gradientUnits="userSpaceOnUse" id="color-122"><stop offset="0" stop-color="#a4ff63"/><stop offset="1" stop-color="#edff95"/></linearGradient><linearGradient x1="252.02904" y1="200.9295" x2="252.02904" y2="209.3179" gradientUnits="userSpaceOnUse" id="color-123"><stop offset="0" stop-color="#772c00"/><stop offset="1" stop-color="#784c35"/></linearGradient><linearGradient x1="255.86031" y1="196.2057" x2="255.86031" y2="212.99209" gradientUnits="userSpaceOnUse" id="color-124"><stop offset="0" stop-color="#4eab0c"/><stop offset="1" stop-color="#10480c"/></linearGradient><linearGradient x1="256.9796" y1="195.67086" x2="256.9796" y2="211.52036" gradientUnits="userSpaceOnUse" id="color-125"><stop offset="0" stop-color="#a4ff63"/><stop offset="1" stop-color="#edff95"/></linearGradient><linearGradient x1="256.97966" y1="200.92949" x2="256.97966" y2="209.31789" gradientUnits="userSpaceOnUse" id="color-126"><stop offset="0" stop-color="#772c00"/><stop offset="1" stop-color="#784c35"/></linearGradient></defs><g transform="translate(-213.39493,-146.2147)"><g stroke-miterlimit="10"><path d="M215.89493,211.2853v-62.5706h48.21014v62.5706z" fill="#a3ff62" stroke="#b5b5b5" stroke-width="5"/><g stroke="none" stroke-width="0"><g><path d="M215.25352,162.9312c0.04939,-4.0644 0.75878,-4.96046 2.53446,-7.6999c1.20042,-3.38661 0.45262,-8.30712 4.18306,-8.24717c3.46187,0.05564 3.18413,4.80101 4.51452,8.14182c1.91371,2.94509 2.54876,4.0747 2.59815,7.80525c0.06137,4.63484 -3.09599,8.3932 -6.91509,8.3932c-3.8191,0 -6.97142,-3.75827 -6.91509,-8.3932z" fill="url(#color-1)"/><path d="M216.75876,161.92791c0.04664,-3.83756 0.71643,-4.68361 2.393,-7.27015c1.13343,-3.19759 0.42735,-7.84348 3.94959,-7.78687c3.26865,0.05253 3.00642,4.53305 4.26256,7.6874c1.8069,2.78072 2.4065,3.84728 2.45314,7.36961c0.05794,4.37615 -2.9232,7.92475 -6.52914,7.92475c-3.60595,0 -6.58232,-3.54851 -6.52914,-7.92475z" fill="url(#color-2)"/><path d="M226.10949,163.456c0,2.31639 -1.26324,4.1942 -2.82152,4.1942c-1.55828,0 -2.82152,-1.87781 -2.82152,-4.1942c0,-2.31639 1.26324,-4.1942 2.82152,-4.1942c1.55828,0 2.82152,1.87781 2.82152,4.1942z" fill="url(#color-3)"/></g><g><path d="M221.4418,163.61879c0.04939,-4.0644 0.75878,-4.96046 2.53445,-7.6999c1.20042,-3.38661 0.45262,-8.30712 4.18306,-8.24717c3.46187,0.05563 3.18413,4.80101 4.51452,8.14182c1.91371,2.9451 2.54876,4.0747 2.59815,7.80525c0.06136,4.63484 -3.09599,8.3932 -6.91509,8.3932c-3.81911,0 -6.97142,-3.75827 -6.91509,-8.3932z" fill="url(#color-4)"/><path d="M222.94703,162.6155c0.04664,-3.83756 0.71643,-4.6836 2.393,-7.27014c1.13342,-3.1976 0.42735,-7.84348 3.94959,-7.78687c3.26865,0.05253 3.00642,4.53306 4.26255,7.68741c1.80691,2.78072 2.40651,3.84728 2.45314,7.36961c0.05794,4.37616 -2.9232,7.92475 -6.52914,7.92475c-3.60595,0 -6.58232,-3.54851 -6.52914,-7.92475z" fill="url(#color-5)"/><path d="M232.29776,164.14359c0,2.31639 -1.26323,4.1942 -2.82152,4.1942c-1.55829,0 -2.82152,-1.8778 -2.82152,-4.1942c0,-2.31639 1.26324,-4.1942 2.82152,-4.1942c1.55829,0 2.82152,1.87781 2.82152,4.1942z" fill="url(#color-6)"/></g><g><path d="M228.45517,163.06872c0.04939,-4.0644 0.75878,-4.96047 2.53446,-7.6999c1.20042,-3.38661 0.45261,-8.30711 4.18306,-8.24717c3.46187,0.05563 3.18413,4.80101 4.51453,8.14182c1.91371,2.9451 2.54876,4.0747 2.59814,7.80524c0.06136,4.63484 -3.09599,8.3932 -6.91509,8.3932c-3.81911,0 -6.97142,-3.75827 -6.91509,-8.3932z" fill="url(#color-7)"/><path d="M229.9604,162.06543c0.04664,-3.83756 0.71643,-4.6836 2.39301,-7.27015c1.13342,-3.1976 0.42735,-7.84347 3.94959,-7.78687c3.26865,0.05253 3.00642,4.53305 4.26255,7.6874c1.80691,2.78072 2.4065,3.84728 2.45314,7.36961c0.05794,4.37616 -2.92319,7.92475 -6.52914,7.92475c-3.60595,0 -6.58233,-3.54851 -6.52914,-7.92475z" fill="url(#color-8)"/><path d="M239.31113,163.59352c0,2.31639 -1.26323,4.1942 -2.82152,4.1942c-1.55829,0 -2.82152,-1.8778 -2.82152,-4.1942c0,-2.31639 1.26323,-4.1942 2.82152,-4.1942c1.55829,0 2.82152,1.87781 2.82152,4.1942z" fill="url(#color-9)"/></g><g><path d="M237.39378,163.7563c0.04939,-4.0644 0.75878,-4.96046 2.53446,-7.6999c1.20042,-3.38661 0.45262,-8.30712 4.18306,-8.24717c3.46187,0.05563 3.18413,4.80101 4.51452,8.14182c1.91371,2.9451 2.54876,4.0747 2.59814,7.80525c0.06136,4.63484 -3.09599,8.3932 -6.91509,8.3932c-3.81911,0 -6.97142,-3.75827 -6.91509,-8.3932z" fill="url(#color-10)"/><path d="M238.89902,162.75301c0.04664,-3.83756 0.71643,-4.6836 2.39301,-7.27015c1.13342,-3.1976 0.42735,-7.84347 3.94959,-7.78687c3.26865,0.05253 3.00642,4.53306 4.26255,7.68741c1.80691,2.78072 2.4065,3.84728 2.45314,7.36961c0.05794,4.37616 -2.92319,7.92475 -6.52914,7.92475c-3.60595,0 -6.58233,-3.54851 -6.52914,-7.92475z" fill="url(#color-11)"/><path d="M248.24975,164.28111c0,2.31639 -1.26323,4.19419 -2.82152,4.19419c-1.55829,0 -2.82152,-1.8778 -2.82152,-4.19419c0,-2.31639 1.26323,-4.1942 2.82152,-4.1942c1.55829,0 2.82152,1.87781 2.82152,4.1942z" fill="url(#color-12)"/></g><g><path d="M244.68219,164.85644c0.04939,-4.0644 0.75878,-4.96047 2.53446,-7.6999c1.20042,-3.38661 0.45262,-8.30711 4.18306,-8.24717c3.46187,0.05563 3.18413,4.80101 4.51452,8.14182c1.91371,2.9451 2.54876,4.0747 2.59815,7.80524c0.06137,4.63484 -3.09599,8.3932 -6.91509,8.3932c-3.81911,0 -6.97142,-3.75827 -6.91509,-8.3932z" fill="url(#color-13)"/><path d="M246.18743,163.85315c0.04664,-3.83756 0.71643,-4.6836 2.39301,-7.27014c1.13342,-3.1976 0.42735,-7.84347 3.94959,-7.78687c3.26865,0.05253 3.00641,4.53305 4.26256,7.6874c1.8069,2.78072 2.4065,3.84728 2.45314,7.36961c0.05794,4.37616 -2.9232,7.92475 -6.52914,7.92475c-3.60595,0 -6.58233,-3.54851 -6.52914,-7.92475z" fill="url(#color-14)"/><path d="M255.53816,165.38124c0,2.31639 -1.26323,4.1942 -2.82152,4.1942c-1.55829,0 -2.82152,-1.8778 -2.82152,-4.1942c0,-2.31639 1.26323,-4.1942 2.82152,-4.1942c1.55828,0 2.82152,1.87781 2.82152,4.1942z" fill="url(#color-15)"/></g><g><path d="M249.63281,164.85644c0.04939,-4.0644 0.75878,-4.96047 2.53446,-7.6999c1.20042,-3.38661 0.45262,-8.30711 4.18306,-8.24717c3.46187,0.05563 3.18413,4.80101 4.51452,8.14182c1.91371,2.9451 2.54876,4.0747 2.59815,7.80524c0.06137,4.63484 -3.09599,8.3932 -6.91509,8.3932c-3.81911,0 -6.97142,-3.75827 -6.91509,-8.3932z" fill="url(#color-16)"/><path d="M251.13805,163.85315c0.04664,-3.83756 0.71643,-4.6836 2.39301,-7.27015c1.13342,-3.1976 0.42735,-7.84347 3.94959,-7.78687c3.26865,0.05253 3.00641,4.53305 4.26256,7.6874c1.8069,2.78072 2.40651,3.84728 2.45314,7.36961c0.05794,4.37616 -2.92319,7.92475 -6.52914,7.92475c-3.60595,0 -6.58232,-3.54851 -6.52914,-7.92475z" fill="url(#color-17)"/><path d="M260.48878,165.38124c0,2.31639 -1.26324,4.1942 -2.82152,4.1942c-1.55829,0 -2.82152,-1.8778 -2.82152,-4.1942c0,-2.31639 1.26323,-4.1942 2.82152,-4.1942c1.55828,0 2.82152,1.87781 2.82152,4.1942z" fill="url(#color-18)"/></g></g><g stroke="none" stroke-width="0"><g><path d="M215.39104,171.45727c0.04939,-4.0644 0.75878,-4.96047 2.53446,-7.69991c1.20042,-3.38661 0.45261,-8.30712 4.18306,-8.24717c3.46187,0.05563 3.18412,4.80101 4.51452,8.14183c1.91371,2.9451 2.54876,4.0747 2.59815,7.80524c0.06136,4.63484 -3.09599,8.3932 -6.91509,8.3932c-3.81911,0 -6.97142,-3.75827 -6.91509,-8.3932z" fill="url(#color-19)"/><path d="M216.89628,170.45397c0.04664,-3.83756 0.71643,-4.6836 2.39301,-7.27014c1.13342,-3.1976 0.42735,-7.84348 3.94959,-7.78687c3.26865,0.05253 3.00642,4.53306 4.26255,7.68741c1.80691,2.78072 2.4065,3.84728 2.45314,7.36961c0.05794,4.37616 -2.92319,7.92475 -6.52914,7.92475c-3.60595,0 -6.58233,-3.54851 -6.52914,-7.92475z" fill="url(#color-20)"/><path d="M226.24701,171.98207c0,2.31639 -1.26323,4.1942 -2.82152,4.1942c-1.55829,0 -2.82152,-1.87781 -2.82152,-4.1942c0,-2.31639 1.26323,-4.1942 2.82152,-4.1942c1.55829,0 2.82152,1.87781 2.82152,4.1942z" fill="url(#color-21)"/></g><g><path d="M221.57931,172.14485c0.04939,-4.0644 0.75878,-4.96047 2.53445,-7.6999c1.20042,-3.38661 0.45262,-8.30711 4.18306,-8.24717c3.46187,0.05563 3.18413,4.80101 4.51452,8.14182c1.91371,2.9451 2.54876,4.0747 2.59815,7.80524c0.06136,4.63484 -3.09599,8.3932 -6.91509,8.3932c-3.81911,0 -6.97142,-3.75827 -6.91509,-8.3932z" fill="url(#color-22)"/><path d="M223.08455,171.14156c0.04664,-3.83756 0.71643,-4.6836 2.393,-7.27015c1.13342,-3.1976 0.42735,-7.84347 3.94959,-7.78687c3.26865,0.05253 3.00642,4.53305 4.26255,7.6874c1.80691,2.78072 2.40651,3.84728 2.45314,7.36961c0.05794,4.37616 -2.9232,7.92475 -6.52914,7.92475c-3.60595,0 -6.58233,-3.54851 -6.52914,-7.92475z" fill="url(#color-23)"/><path d="M232.43528,172.66965c0,2.31639 -1.26324,4.1942 -2.82152,4.1942c-1.55829,0 -2.82152,-1.8778 -2.82152,-4.1942c0,-2.31639 1.26323,-4.1942 2.82152,-4.1942c1.55829,0 2.82152,1.87781 2.82152,4.1942z" fill="url(#color-24)"/></g><g><path d="M228.59269,171.59478c0.04939,-4.0644 0.75878,-4.96046 2.53445,-7.6999c1.20042,-3.38661 0.45262,-8.30712 4.18306,-8.24717c3.46187,0.05563 3.18413,4.80101 4.51452,8.14182c1.91371,2.9451 2.54876,4.0747 2.59815,7.80525c0.06136,4.63484 -3.09599,8.3932 -6.91509,8.3932c-3.81911,0 -6.97142,-3.75827 -6.91509,-8.3932z" fill="url(#color-25)"/><path d="M230.09792,170.59149c0.04664,-3.83756 0.71643,-4.6836 2.393,-7.27015c1.13342,-3.1976 0.42735,-7.84347 3.94959,-7.78687c3.26865,0.05253 3.00642,4.53306 4.26255,7.68741c1.80691,2.78072 2.40651,3.84728 2.45314,7.36961c0.05794,4.37616 -2.9232,7.92475 -6.52914,7.92475c-3.60595,0 -6.58232,-3.54851 -6.52914,-7.92475z" fill="url(#color-26)"/><path d="M239.44865,172.11958c0,2.31639 -1.26324,4.19419 -2.82152,4.19419c-1.55829,0 -2.82152,-1.8778 -2.82152,-4.19419c0,-2.31639 1.26323,-4.1942 2.82152,-4.1942c1.55829,0 2.82152,1.87781 2.82152,4.1942z" fill="url(#color-27)"/></g><g><path d="M237.5313,172.28236c0.04939,-4.0644 0.75878,-4.96047 2.53445,-7.6999c1.20042,-3.38661 0.45262,-8.30711 4.18306,-8.24717c3.46187,0.05563 3.18413,4.80101 4.51452,8.14182c1.91371,2.9451 2.54876,4.0747 2.59815,7.80524c0.06136,4.63484 -3.09599,8.3932 -6.91509,8.3932c-3.81911,0 -6.97142,-3.75827 -6.91509,-8.3932z" fill="url(#color-28)"/><path d="M239.03654,171.27907c0.04664,-3.83756 0.71643,-4.6836 2.393,-7.27014c1.13342,-3.1976 0.42735,-7.84347 3.94959,-7.78687c3.26865,0.05253 3.00642,4.53305 4.26255,7.6874c1.80691,2.78072 2.40651,3.84728 2.45314,7.36961c0.05794,4.37616 -2.9232,7.92475 -6.52914,7.92475c-3.60595,0 -6.58232,-3.54851 -6.52914,-7.92475z" fill="url(#color-29)"/><path d="M248.38727,172.80717c0,2.31639 -1.26323,4.1942 -2.82152,4.1942c-1.55829,0 -2.82152,-1.8778 -2.82152,-4.1942c0,-2.31639 1.26324,-4.1942 2.82152,-4.1942c1.55829,0 2.82152,1.87781 2.82152,4.1942z" fill="url(#color-30)"/></g><g><path d="M244.81971,173.3825c0.04939,-4.0644 0.75878,-4.96046 2.53445,-7.6999c1.20042,-3.38661 0.45262,-8.30712 4.18306,-8.24717c3.46187,0.05563 3.18413,4.80101 4.51452,8.14182c1.91371,2.9451 2.54876,4.0747 2.59815,7.80525c0.06137,4.63484 -3.09599,8.3932 -6.91509,8.3932c-3.81911,0 -6.97142,-3.75827 -6.91509,-8.3932z" fill="url(#color-31)"/><path d="M246.32495,172.37921c0.04664,-3.83756 0.71643,-4.6836 2.393,-7.27014c1.13342,-3.1976 0.42735,-7.84348 3.94959,-7.78687c3.26865,0.05253 3.00642,4.53306 4.26256,7.68741c1.80691,2.78072 2.40651,3.84728 2.45314,7.36961c0.05794,4.37616 -2.9232,7.92475 -6.52914,7.92475c-3.60595,0 -6.58232,-3.54851 -6.52914,-7.92475z" fill="url(#color-32)"/><path d="M255.67568,173.90731c0,2.31639 -1.26323,4.19419 -2.82152,4.19419c-1.55829,0 -2.82152,-1.8778 -2.82152,-4.19419c0,-2.31639 1.26324,-4.1942 2.82152,-4.1942c1.55829,0 2.82152,1.87781 2.82152,4.1942z" fill="url(#color-33)"/></g><g><path d="M249.77033,173.3825c0.04939,-4.0644 0.75878,-4.96047 2.53445,-7.6999c1.20042,-3.38661 0.45262,-8.30711 4.18306,-8.24717c3.46187,0.05563 3.18413,4.80101 4.51453,8.14182c1.91371,2.9451 2.54876,4.0747 2.59815,7.80524c0.06137,4.63484 -3.09599,8.3932 -6.91509,8.3932c-3.8191,0 -6.97142,-3.75827 -6.91509,-8.3932z" fill="url(#color-34)"/><path d="M251.27556,172.37921c0.04664,-3.83756 0.71643,-4.6836 2.393,-7.27015c1.13342,-3.1976 0.42735,-7.84347 3.94959,-7.78687c3.26865,0.05253 3.00641,4.53305 4.26256,7.6874c1.8069,2.78072 2.4065,3.84728 2.45314,7.36961c0.05794,4.37616 -2.92319,7.92475 -6.52914,7.92475c-3.60595,0 -6.58233,-3.54851 -6.52914,-7.92475z" fill="url(#color-35)"/><path d="M260.62629,173.9073c0,2.31639 -1.26323,4.1942 -2.82152,4.1942c-1.55829,0 -2.82152,-1.8778 -2.82152,-4.1942c0,-2.31639 1.26323,-4.1942 2.82152,-4.1942c1.55829,0 2.82152,1.87781 2.82152,4.1942z" fill="url(#color-36)"/></g></g><g stroke="none" stroke-width="0"><g><path d="M215.39104,178.47064c0.04939,-4.0644 0.75878,-4.96047 2.53446,-7.69991c1.20042,-3.38661 0.45261,-8.30711 4.18306,-8.24717c3.46187,0.05563 3.18412,4.80101 4.51452,8.14182c1.91371,2.9451 2.54876,4.0747 2.59815,7.80525c0.06136,4.63484 -3.09599,8.39319 -6.91509,8.39319c-3.81911,0 -6.97142,-3.75826 -6.91509,-8.39319z" fill="url(#color-37)"/><path d="M216.89627,177.46735c0.04664,-3.83756 0.71643,-4.6836 2.393,-7.27015c1.13342,-3.1976 0.42735,-7.84347 3.94959,-7.78687c3.26865,0.05253 3.00642,4.53305 4.26256,7.6874c1.80691,2.78072 2.4065,3.84728 2.45314,7.36961c0.05794,4.37616 -2.9232,7.92475 -6.52914,7.92475c-3.60595,0 -6.58232,-3.54851 -6.52914,-7.92475z" fill="url(#color-38)"/><path d="M226.247,178.99544c0,2.31639 -1.26323,4.1942 -2.82152,4.1942c-1.55829,0 -2.82152,-1.87781 -2.82152,-4.1942c0,-2.31639 1.26324,-4.1942 2.82152,-4.1942c1.55829,0 2.82152,1.87781 2.82152,4.1942z" fill="url(#color-39)"/></g><g><path d="M221.57931,179.15822c0.04939,-4.0644 0.75878,-4.96046 2.53446,-7.6999c1.20042,-3.38661 0.45262,-8.30712 4.18306,-8.24717c3.46187,0.05563 3.18413,4.80101 4.51452,8.14182c1.91371,2.9451 2.54876,4.0747 2.59814,7.80525c0.06136,4.63484 -3.09599,8.3932 -6.91509,8.3932c-3.81911,0 -6.97142,-3.75827 -6.91509,-8.3932z" fill="url(#color-40)"/><path d="M223.08454,178.15493c0.04664,-3.83756 0.71643,-4.6836 2.39301,-7.27014c1.13342,-3.1976 0.42735,-7.84348 3.94959,-7.78687c3.26865,0.05253 3.00642,4.53306 4.26255,7.68741c1.80691,2.78072 2.4065,3.84728 2.45314,7.36961c0.05794,4.37616 -2.92319,7.92475 -6.52914,7.92475c-3.60595,0 -6.58233,-3.54851 -6.52914,-7.92475z" fill="url(#color-41)"/><path d="M232.43527,179.68303c0,2.31639 -1.26323,4.1942 -2.82152,4.1942c-1.55829,0 -2.82152,-1.8778 -2.82152,-4.1942c0,-2.31639 1.26323,-4.1942 2.82152,-4.1942c1.55829,0 2.82152,1.87781 2.82152,4.1942z" fill="url(#color-42)"/></g><g><path d="M228.59268,178.60815c0.04939,-4.0644 0.75878,-4.96046 2.53446,-7.6999c1.20042,-3.38661 0.45262,-8.30712 4.18306,-8.24717c3.46187,0.05563 3.18413,4.80101 4.51452,8.14182c1.91371,2.9451 2.54876,4.0747 2.59814,7.80524c0.06136,4.63484 -3.09599,8.3932 -6.91509,8.3932c-3.81911,0 -6.97142,-3.75827 -6.91509,-8.3932z" fill="url(#color-43)"/><path d="M230.09792,177.60486c0.04664,-3.83756 0.71643,-4.6836 2.39301,-7.27014c1.13342,-3.1976 0.42735,-7.84348 3.94959,-7.78687c3.26865,0.05253 3.00642,4.53306 4.26255,7.68741c1.80691,2.78072 2.4065,3.84728 2.45314,7.36961c0.05794,4.37616 -2.92319,7.92475 -6.52914,7.92475c-3.60595,0 -6.58233,-3.54851 -6.52914,-7.92475z" fill="url(#color-44)"/><path d="M239.44865,179.13296c0,2.31639 -1.26323,4.1942 -2.82152,4.1942c-1.55829,0 -2.82152,-1.8778 -2.82152,-4.1942c0,-2.31639 1.26323,-4.1942 2.82152,-4.1942c1.55829,0 2.82152,1.87781 2.82152,4.1942z" fill="url(#color-45)"/></g><g><path d="M237.5313,179.29574c0.04939,-4.0644 0.75878,-4.96046 2.53446,-7.6999c1.20042,-3.38661 0.45262,-8.30712 4.18306,-8.24717c3.46187,0.05563 3.18413,4.80101 4.51452,8.14182c1.91371,2.9451 2.54876,4.0747 2.59814,7.80525c0.06136,4.63484 -3.09599,8.3932 -6.91509,8.3932c-3.81911,0 -6.97142,-3.75827 -6.91509,-8.3932z" fill="url(#color-46)"/><path d="M239.03653,178.29245c0.04664,-3.83756 0.71643,-4.6836 2.39301,-7.27015c1.13342,-3.1976 0.42735,-7.84347 3.94959,-7.78687c3.26865,0.05253 3.00642,4.53306 4.26255,7.68741c1.80691,2.78072 2.4065,3.84728 2.45314,7.36961c0.05794,4.37616 -2.92319,7.92475 -6.52914,7.92475c-3.60595,0 -6.58233,-3.54851 -6.52914,-7.92475z" fill="url(#color-47)"/><path d="M248.38727,179.82054c0,2.31639 -1.26324,4.19419 -2.82152,4.19419c-1.55829,0 -2.82152,-1.8778 -2.82152,-4.19419c0,-2.31639 1.26323,-4.1942 2.82152,-4.1942c1.55829,0 2.82152,1.87781 2.82152,4.1942z" fill="url(#color-48)"/></g><g><path d="M244.81971,180.39588c0.04939,-4.0644 0.75878,-4.96047 2.53446,-7.6999c1.20042,-3.38661 0.45262,-8.30711 4.18306,-8.24717c3.46187,0.05563 3.18413,4.80101 4.51452,8.14182c1.91371,2.9451 2.54876,4.0747 2.59815,7.80524c0.06137,4.63484 -3.09599,8.3932 -6.91509,8.3932c-3.81911,0 -6.97142,-3.75827 -6.91509,-8.3932z" fill="url(#color-49)"/><path d="M246.32495,179.39259c0.04664,-3.83756 0.71643,-4.6836 2.393,-7.27014c1.13342,-3.1976 0.42735,-7.84347 3.94959,-7.78687c3.26865,0.05253 3.00642,4.53305 4.26255,7.6874c1.80691,2.78072 2.40651,3.84728 2.45314,7.36961c0.05794,4.37616 -2.9232,7.92475 -6.52914,7.92475c-3.60595,0 -6.58233,-3.54851 -6.52914,-7.92475z" fill="url(#color-50)"/><path d="M255.67568,180.92068c0,2.31639 -1.26324,4.1942 -2.82152,4.1942c-1.55829,0 -2.82152,-1.8778 -2.82152,-4.1942c0,-2.31639 1.26323,-4.1942 2.82152,-4.1942c1.55829,0 2.82152,1.87781 2.82152,4.1942z" fill="url(#color-51)"/></g><g><path d="M249.77033,180.39587c0.04939,-4.0644 0.75878,-4.96046 2.53445,-7.6999c1.20042,-3.38661 0.45262,-8.30712 4.18306,-8.24717c3.46187,0.05563 3.18413,4.80101 4.51452,8.14182c1.91371,2.9451 2.54876,4.0747 2.59815,7.80525c0.06137,4.63484 -3.09599,8.3932 -6.91509,8.3932c-3.81911,0 -6.97142,-3.75827 -6.91509,-8.3932z" fill="url(#color-52)"/><path d="M251.27556,179.39258c0.04664,-3.83756 0.71643,-4.6836 2.393,-7.27015c1.13342,-3.1976 0.42735,-7.84347 3.94959,-7.78687c3.26865,0.05253 3.00641,4.53306 4.26256,7.68741c1.8069,2.78072 2.4065,3.84728 2.45314,7.36961c0.05794,4.37616 -2.92319,7.92475 -6.52914,7.92475c-3.60595,0 -6.58233,-3.54851 -6.52914,-7.92475z" fill="url(#color-53)"/><path d="M260.62629,180.92068c0,2.31639 -1.26323,4.19419 -2.82152,4.19419c-1.55828,0 -2.82152,-1.8778 -2.82152,-4.19419c0,-2.31639 1.26324,-4.1942 2.82152,-4.1942c1.55829,0 2.82152,1.87781 2.82152,4.1942z" fill="url(#color-54)"/></g></g><g stroke="none" stroke-width="0"><g><path d="M215.80359,185.07147c0.04939,-4.0644 0.75878,-4.96047 2.53446,-7.69991c1.20042,-3.38661 0.45261,-8.30711 4.18306,-8.24717c3.46187,0.05563 3.18412,4.80101 4.51452,8.14182c1.91371,2.9451 2.54876,4.0747 2.59815,7.80525c0.06136,4.63484 -3.09599,8.39319 -6.91509,8.39319c-3.81911,0 -6.97142,-3.75826 -6.91509,-8.39319z" fill="url(#color-55)"/><path d="M217.30883,184.06817c0.04664,-3.83756 0.71643,-4.6836 2.393,-7.27015c1.13342,-3.1976 0.42735,-7.84347 3.94959,-7.78687c3.26865,0.05253 3.00642,4.53305 4.26256,7.6874c1.80691,2.78072 2.4065,3.84728 2.45314,7.36961c0.05794,4.37616 -2.9232,7.92475 -6.52914,7.92475c-3.60595,0 -6.58232,-3.54851 -6.52914,-7.92475z" fill="url(#color-56)"/><path d="M226.65956,185.59627c0,2.31639 -1.26323,4.1942 -2.82152,4.1942c-1.55829,0 -2.82152,-1.87781 -2.82152,-4.1942c0,-2.31639 1.26324,-4.1942 2.82152,-4.1942c1.55829,0 2.82152,1.87781 2.82152,4.1942z" fill="url(#color-57)"/></g><g><path d="M221.99186,185.75905c0.04939,-4.0644 0.75878,-4.96046 2.53446,-7.6999c1.20042,-3.38661 0.45262,-8.30712 4.18306,-8.24717c3.46187,0.05563 3.18413,4.80101 4.51452,8.14182c1.91371,2.9451 2.54876,4.0747 2.59814,7.80525c0.06136,4.63484 -3.09599,8.3932 -6.91509,8.3932c-3.81911,0 -6.97142,-3.75827 -6.91509,-8.3932z" fill="url(#color-58)"/><path d="M223.4971,184.75576c0.04664,-3.83756 0.71643,-4.6836 2.39301,-7.27014c1.13342,-3.1976 0.42735,-7.84348 3.94959,-7.78687c3.26865,0.05253 3.00642,4.53306 4.26255,7.68741c1.80691,2.78072 2.4065,3.84728 2.45314,7.36961c0.05794,4.37616 -2.92319,7.92475 -6.52914,7.92475c-3.60595,0 -6.58233,-3.54851 -6.52914,-7.92475z" fill="url(#color-59)"/><path d="M232.84783,186.28385c0,2.31639 -1.26323,4.1942 -2.82152,4.1942c-1.55829,0 -2.82152,-1.8778 -2.82152,-4.1942c0,-2.31639 1.26323,-4.1942 2.82152,-4.1942c1.55829,0 2.82152,1.87781 2.82152,4.1942z" fill="url(#color-60)"/></g><g><path d="M229.00524,185.20898c0.04939,-4.0644 0.75878,-4.96047 2.53446,-7.6999c1.20042,-3.38661 0.45262,-8.30711 4.18306,-8.24717c3.46187,0.05563 3.18413,4.80101 4.51452,8.14182c1.91371,2.9451 2.54876,4.0747 2.59814,7.80524c0.06136,4.63484 -3.09599,8.3932 -6.91509,8.3932c-3.81911,0 -6.97142,-3.75827 -6.91509,-8.3932z" fill="url(#color-61)"/><path d="M230.51047,184.20569c0.04664,-3.83756 0.71643,-4.6836 2.39301,-7.27014c1.13342,-3.1976 0.42735,-7.84347 3.94959,-7.78687c3.26865,0.05253 3.00642,4.53305 4.26255,7.6874c1.80691,2.78072 2.4065,3.84728 2.45314,7.36961c0.05794,4.37616 -2.92319,7.92475 -6.52914,7.92475c-3.60595,0 -6.58233,-3.54851 -6.52914,-7.92475z" fill="url(#color-62)"/><path d="M239.8612,185.73378c0,2.31639 -1.26323,4.1942 -2.82152,4.1942c-1.55829,0 -2.82152,-1.8778 -2.82152,-4.1942c0,-2.31639 1.26323,-4.1942 2.82152,-4.1942c1.55829,0 2.82152,1.87781 2.82152,4.1942z" fill="url(#color-63)"/></g><g><path d="M237.94385,185.89656c0.04939,-4.0644 0.75878,-4.96046 2.53446,-7.6999c1.20042,-3.38661 0.45262,-8.30712 4.18306,-8.24717c3.46187,0.05563 3.18413,4.80101 4.51452,8.14182c1.91371,2.9451 2.54876,4.0747 2.59814,7.80525c0.06136,4.63484 -3.09599,8.3932 -6.91509,8.3932c-3.81911,0 -6.97142,-3.75827 -6.91509,-8.3932z" fill="url(#color-64)"/><path d="M239.44909,184.89327c0.04664,-3.83756 0.71643,-4.6836 2.39301,-7.27015c1.13342,-3.1976 0.42735,-7.84347 3.94959,-7.78687c3.26865,0.05253 3.00642,4.53306 4.26255,7.68741c1.80691,2.78072 2.4065,3.84728 2.45314,7.36961c0.05794,4.37616 -2.92319,7.92475 -6.52914,7.92475c-3.60595,0 -6.58233,-3.54851 -6.52914,-7.92475z" fill="url(#color-65)"/><path d="M248.79982,186.42137c0,2.31639 -1.26324,4.19419 -2.82152,4.19419c-1.55829,0 -2.82152,-1.8778 -2.82152,-4.19419c0,-2.31639 1.26323,-4.1942 2.82152,-4.1942c1.55829,0 2.82152,1.87781 2.82152,4.1942z" fill="url(#color-66)"/></g><g><path d="M245.23226,186.9967c0.04939,-4.0644 0.75878,-4.96047 2.53446,-7.6999c1.20042,-3.38661 0.45262,-8.30711 4.18306,-8.24717c3.46187,0.05563 3.18413,4.80101 4.51453,8.14182c1.91371,2.9451 2.54875,4.0747 2.59814,7.80524c0.06137,4.63484 -3.09599,8.3932 -6.91509,8.3932c-3.81911,0 -6.97142,-3.75827 -6.91509,-8.3932z" fill="url(#color-67)"/><path d="M246.7375,185.99341c0.04664,-3.83756 0.71643,-4.6836 2.393,-7.27015c1.13342,-3.1976 0.42735,-7.84347 3.94959,-7.78687c3.26865,0.05253 3.00641,4.53305 4.26255,7.6874c1.8069,2.78072 2.40651,3.84728 2.45314,7.36961c0.05794,4.37616 -2.9232,7.92475 -6.52914,7.92475c-3.60595,0 -6.58233,-3.54851 -6.52914,-7.92475z" fill="url(#color-68)"/><path d="M256.08823,187.52151c0,2.31639 -1.26324,4.1942 -2.82152,4.1942c-1.55829,0 -2.82152,-1.8778 -2.82152,-4.1942c0,-2.31639 1.26323,-4.1942 2.82152,-4.1942c1.55829,0 2.82152,1.87781 2.82152,4.1942z" fill="url(#color-69)"/></g><g><path d="M250.18288,186.9967c0.04939,-4.0644 0.75878,-4.96046 2.53445,-7.6999c1.20042,-3.38661 0.45262,-8.30712 4.18306,-8.24717c3.46187,0.05563 3.18413,4.80101 4.51452,8.14182c1.91371,2.9451 2.54875,4.0747 2.59814,7.80525c0.06137,4.63484 -3.09599,8.3932 -6.91509,8.3932c-3.81911,0 -6.97142,-3.75827 -6.91509,-8.3932z" fill="url(#color-70)"/><path d="M251.68811,185.99341c0.04664,-3.83756 0.71643,-4.6836 2.393,-7.27014c1.13342,-3.1976 0.42735,-7.84348 3.94959,-7.78687c3.26865,0.05253 3.00642,4.53306 4.26256,7.68741c1.8069,2.78072 2.4065,3.84728 2.45314,7.36961c0.05794,4.37616 -2.92319,7.92475 -6.52914,7.92475c-3.60595,0 -6.58233,-3.54851 -6.52914,-7.92475z" fill="url(#color-71)"/><path d="M261.03884,187.5215c0,2.31639 -1.26323,4.1942 -2.82152,4.1942c-1.55829,0 -2.82152,-1.8778 -2.82152,-4.1942c0,-2.31639 1.26324,-4.1942 2.82152,-4.1942c1.55829,0 2.82152,1.87781 2.82152,4.1942z" fill="url(#color-72)"/></g></g><g stroke="none" stroke-width="0"><g><path d="M215.25352,190.29712c0.04939,-4.0644 0.75878,-4.96047 2.53445,-7.69991c1.20042,-3.38661 0.45262,-8.30712 4.18306,-8.24717c3.46187,0.05563 3.18412,4.80101 4.51452,8.14183c1.91371,2.9451 2.54876,4.0747 2.59815,7.80524c0.06136,4.63484 -3.09599,8.3932 -6.91509,8.3932c-3.81911,0 -6.97142,-3.75827 -6.91509,-8.3932z" fill="url(#color-73)"/><path d="M216.75876,189.29383c0.04664,-3.83756 0.71643,-4.6836 2.393,-7.27014c1.13342,-3.1976 0.42735,-7.84348 3.94959,-7.78687c3.26865,0.05253 3.00642,4.53306 4.26255,7.68741c1.80691,2.78072 2.40651,3.84728 2.45314,7.36961c0.05794,4.37616 -2.9232,7.92475 -6.52914,7.92475c-3.60595,0 -6.58233,-3.54851 -6.52914,-7.92475z" fill="url(#color-74)"/><path d="M226.10949,190.82192c0,2.31639 -1.26324,4.1942 -2.82152,4.1942c-1.55829,0 -2.82152,-1.87781 -2.82152,-4.1942c0,-2.31639 1.26323,-4.1942 2.82152,-4.1942c1.55829,0 2.82152,1.87781 2.82152,4.1942z" fill="url(#color-75)"/></g><g><path d="M221.44179,190.9847c0.04939,-4.0644 0.75878,-4.96047 2.53446,-7.6999c1.20042,-3.38661 0.45261,-8.30711 4.18306,-8.24717c3.46187,0.05563 3.18413,4.80101 4.51452,8.14182c1.91371,2.9451 2.54876,4.0747 2.59815,7.80524c0.06136,4.63484 -3.09599,8.3932 -6.91509,8.3932c-3.81911,0 -6.97142,-3.75827 -6.91509,-8.3932z" fill="url(#color-76)"/><path d="M222.94703,189.98141c0.04664,-3.83756 0.71643,-4.6836 2.393,-7.27015c1.13342,-3.1976 0.42735,-7.84347 3.94959,-7.78687c3.26865,0.05253 3.00642,4.53305 4.26256,7.6874c1.80691,2.78072 2.4065,3.84728 2.45314,7.36961c0.05794,4.37616 -2.9232,7.92475 -6.52914,7.92475c-3.60595,0 -6.58232,-3.54851 -6.52914,-7.92475z" fill="url(#color-77)"/><path d="M232.29776,191.50951c0,2.31639 -1.26323,4.1942 -2.82152,4.1942c-1.55829,0 -2.82152,-1.8778 -2.82152,-4.1942c0,-2.31639 1.26324,-4.1942 2.82152,-4.1942c1.55829,0 2.82152,1.87781 2.82152,4.1942z" fill="url(#color-78)"/></g><g><path d="M228.45517,190.43463c0.04939,-4.0644 0.75878,-4.96046 2.53446,-7.6999c1.20042,-3.38661 0.45261,-8.30712 4.18306,-8.24717c3.46187,0.05563 3.18413,4.80101 4.51453,8.14182c1.91371,2.9451 2.54876,4.0747 2.59814,7.80525c0.06136,4.63484 -3.09599,8.3932 -6.91509,8.3932c-3.81911,0 -6.97142,-3.75827 -6.91509,-8.3932z" fill="url(#color-79)"/><path d="M229.9604,189.43134c0.04664,-3.83756 0.71643,-4.6836 2.393,-7.27015c1.13342,-3.1976 0.42735,-7.84347 3.94959,-7.78687c3.26865,0.05253 3.00642,4.53306 4.26256,7.68741c1.80691,2.78072 2.4065,3.84728 2.45314,7.36961c0.05794,4.37616 -2.92319,7.92475 -6.52914,7.92475c-3.60595,0 -6.58233,-3.54851 -6.52914,-7.92475z" fill="url(#color-80)"/><path d="M239.31113,190.95944c0,2.31639 -1.26323,4.19419 -2.82152,4.19419c-1.55829,0 -2.82152,-1.8778 -2.82152,-4.19419c0,-2.31639 1.26323,-4.1942 2.82152,-4.1942c1.55829,0 2.82152,1.87781 2.82152,4.1942z" fill="url(#color-81)"/></g><g><path d="M237.39378,191.12222c0.04939,-4.0644 0.75878,-4.96047 2.53446,-7.6999c1.20042,-3.38661 0.45261,-8.30711 4.18306,-8.24717c3.46187,0.05563 3.18413,4.80101 4.51453,8.14182c1.91371,2.9451 2.54876,4.0747 2.59814,7.80524c0.06136,4.63484 -3.09599,8.3932 -6.91509,8.3932c-3.81911,0 -6.97142,-3.75827 -6.91509,-8.3932z" fill="url(#color-82)"/><path d="M238.89902,190.11893c0.04664,-3.83756 0.71643,-4.6836 2.39301,-7.27014c1.13342,-3.1976 0.42735,-7.84347 3.94959,-7.78687c3.26865,0.05253 3.00642,4.53305 4.26255,7.6874c1.80691,2.78072 2.4065,3.84728 2.45314,7.36961c0.05794,4.37616 -2.92319,7.92475 -6.52914,7.92475c-3.60595,0 -6.58233,-3.54851 -6.52914,-7.92475z" fill="url(#color-83)"/><path d="M248.24975,191.64702c0,2.31639 -1.26323,4.1942 -2.82152,4.1942c-1.55829,0 -2.82152,-1.8778 -2.82152,-4.1942c0,-2.31639 1.26323,-4.1942 2.82152,-4.1942c1.55829,0 2.82152,1.87781 2.82152,4.1942z" fill="url(#color-84)"/></g><g><path d="M244.68219,192.22236c0.04939,-4.0644 0.75878,-4.96046 2.53446,-7.6999c1.20042,-3.38661 0.45261,-8.30712 4.18306,-8.24717c3.46187,0.05563 3.18413,4.80101 4.51452,8.14182c1.91371,2.9451 2.54876,4.0747 2.59815,7.80525c0.06137,4.63484 -3.09599,8.3932 -6.91509,8.3932c-3.81911,0 -6.97142,-3.75827 -6.91509,-8.3932z" fill="url(#color-85)"/><path d="M246.18743,191.21907c0.04664,-3.83756 0.71643,-4.6836 2.39301,-7.27014c1.13342,-3.1976 0.42735,-7.84348 3.94959,-7.78687c3.26865,0.05253 3.00641,4.53306 4.26256,7.68741c1.8069,2.78072 2.40651,3.84728 2.45314,7.36961c0.05794,4.37616 -2.92319,7.92475 -6.52914,7.92475c-3.60595,0 -6.58233,-3.54851 -6.52914,-7.92475z" fill="url(#color-86)"/><path d="M255.53816,192.74716c0,2.31639 -1.26324,4.1942 -2.82152,4.1942c-1.55829,0 -2.82152,-1.8778 -2.82152,-4.1942c0,-2.31639 1.26323,-4.1942 2.82152,-4.1942c1.55829,0 2.82152,1.87781 2.82152,4.1942z" fill="url(#color-87)"/></g><g><path d="M249.63281,192.22235c0.04939,-4.0644 0.75878,-4.96047 2.53446,-7.6999c1.20042,-3.38661 0.45262,-8.30711 4.18306,-8.24717c3.46187,0.05563 3.18413,4.80101 4.51453,8.14182c1.91371,2.9451 2.54875,4.0747 2.59814,7.80524c0.06137,4.63484 -3.09599,8.3932 -6.91509,8.3932c-3.81911,0 -6.97142,-3.75827 -6.91509,-8.3932z" fill="url(#color-88)"/><path d="M251.13804,191.21906c0.04664,-3.83756 0.71643,-4.6836 2.39301,-7.27015c1.13342,-3.1976 0.42735,-7.84347 3.94959,-7.78687c3.26865,0.05253 3.00641,4.53305 4.26256,7.6874c1.8069,2.78072 2.40651,3.84728 2.45314,7.36961c0.05794,4.37616 -2.92319,7.92475 -6.52914,7.92475c-3.60595,0 -6.58233,-3.54851 -6.52914,-7.92475z" fill="url(#color-89)"/><path d="M260.48877,192.74716c0,2.31639 -1.26324,4.1942 -2.82152,4.1942c-1.55829,0 -2.82152,-1.8778 -2.82152,-4.1942c0,-2.31639 1.26323,-4.1942 2.82152,-4.1942c1.55829,0 2.82152,1.87781 2.82152,4.1942z" fill="url(#color-90)"/></g></g><g stroke="none" stroke-width="0"><g><path d="M215.52855,197.44801c0.04939,-4.0644 0.75878,-4.96047 2.53445,-7.69991c1.20042,-3.38661 0.45262,-8.30712 4.18306,-8.24717c3.46187,0.05563 3.18412,4.80101 4.51452,8.14183c1.91371,2.9451 2.54876,4.0747 2.59815,7.80524c0.06136,4.63484 -3.09599,8.3932 -6.91509,8.3932c-3.81911,0 -6.97142,-3.75827 -6.91509,-8.3932z" fill="url(#color-91)"/><path d="M217.03379,196.44472c0.04664,-3.83756 0.71643,-4.6836 2.393,-7.27014c1.13342,-3.1976 0.42735,-7.84348 3.94959,-7.78687c3.26865,0.05253 3.00642,4.53306 4.26255,7.68741c1.80691,2.78072 2.40651,3.84728 2.45314,7.36961c0.05794,4.37616 -2.9232,7.92475 -6.52914,7.92475c-3.60595,0 -6.58232,-3.54851 -6.52914,-7.92475z" fill="url(#color-92)"/><path d="M226.38452,197.97281c0,2.31639 -1.26323,4.1942 -2.82152,4.1942c-1.55829,0 -2.82152,-1.87781 -2.82152,-4.1942c0,-2.31639 1.26324,-4.1942 2.82152,-4.1942c1.55829,0 2.82152,1.87781 2.82152,4.1942z" fill="url(#color-93)"/></g><g><path d="M221.71682,198.13559c0.04939,-4.0644 0.75878,-4.96047 2.53446,-7.6999c1.20042,-3.38661 0.45261,-8.30711 4.18306,-8.24717c3.46187,0.05563 3.18413,4.80101 4.51453,8.14182c1.91371,2.9451 2.54876,4.0747 2.59814,7.80524c0.06136,4.63484 -3.09599,8.3932 -6.91509,8.3932c-3.81911,0 -6.97142,-3.75827 -6.91509,-8.3932z" fill="url(#color-94)"/><path d="M223.22206,197.1323c0.04664,-3.83756 0.71643,-4.6836 2.39301,-7.27015c1.13342,-3.1976 0.42735,-7.84347 3.94959,-7.78687c3.26865,0.05253 3.00642,4.53305 4.26255,7.6874c1.80691,2.78072 2.4065,3.84728 2.45314,7.36961c0.05794,4.37616 -2.92319,7.92475 -6.52914,7.92475c-3.60595,0 -6.58233,-3.54851 -6.52914,-7.92475z" fill="url(#color-95)"/><path d="M232.57279,198.6604c0,2.31639 -1.26323,4.1942 -2.82152,4.1942c-1.55829,0 -2.82152,-1.8778 -2.82152,-4.1942c0,-2.31639 1.26323,-4.1942 2.82152,-4.1942c1.55829,0 2.82152,1.87781 2.82152,4.1942z" fill="url(#color-96)"/></g><g><path d="M228.7302,197.58552c0.04939,-4.0644 0.75878,-4.96046 2.53446,-7.6999c1.20042,-3.38661 0.45262,-8.30712 4.18306,-8.24717c3.46187,0.05563 3.18413,4.80101 4.51452,8.14182c1.91371,2.9451 2.54876,4.0747 2.59814,7.80525c0.06136,4.63484 -3.09599,8.3932 -6.91509,8.3932c-3.81911,0 -6.97142,-3.75827 -6.91509,-8.3932z" fill="url(#color-97)"/><path d="M230.23543,196.58223c0.04664,-3.83756 0.71643,-4.6836 2.39301,-7.27015c1.13342,-3.1976 0.42735,-7.84347 3.94959,-7.78687c3.26865,0.05253 3.00642,4.53306 4.26255,7.68741c1.80691,2.78072 2.4065,3.84728 2.45314,7.36961c0.05794,4.37616 -2.92319,7.92475 -6.52914,7.92475c-3.60595,0 -6.58233,-3.54851 -6.52914,-7.92475z" fill="url(#color-98)"/><path d="M239.58616,198.11033c0,2.31639 -1.26323,4.19419 -2.82152,4.19419c-1.55829,0 -2.82152,-1.8778 -2.82152,-4.19419c0,-2.31639 1.26323,-4.1942 2.82152,-4.1942c1.55829,0 2.82152,1.87781 2.82152,4.1942z" fill="url(#color-99)"/></g><g><path d="M237.66881,198.27311c0.04939,-4.0644 0.75878,-4.96047 2.53446,-7.6999c1.20042,-3.38661 0.45262,-8.30712 4.18306,-8.24717c3.46187,0.05563 3.18413,4.80101 4.51452,8.14182c1.91371,2.9451 2.54876,4.0747 2.59814,7.80524c0.06136,4.63484 -3.09599,8.3932 -6.91509,8.3932c-3.81911,0 -6.97142,-3.75827 -6.91509,-8.3932z" fill="url(#color-100)"/><path d="M239.17405,197.26982c0.04664,-3.83756 0.71643,-4.6836 2.39301,-7.27014c1.13342,-3.1976 0.42735,-7.84347 3.94959,-7.78687c3.26865,0.05253 3.00642,4.53305 4.26255,7.6874c1.80691,2.78072 2.4065,3.84728 2.45314,7.36961c0.05794,4.37616 -2.92319,7.92475 -6.52914,7.92475c-3.60595,0 -6.58233,-3.54851 -6.52914,-7.92475z" fill="url(#color-101)"/><path d="M248.52478,198.79791c0,2.31639 -1.26323,4.1942 -2.82152,4.1942c-1.55829,0 -2.82152,-1.8778 -2.82152,-4.1942c0,-2.31639 1.26323,-4.1942 2.82152,-4.1942c1.55829,0 2.82152,1.87781 2.82152,4.1942z" fill="url(#color-102)"/></g><g><path d="M244.95722,199.37325c0.04939,-4.0644 0.75878,-4.96046 2.53446,-7.6999c1.20042,-3.38661 0.45262,-8.30712 4.18306,-8.24717c3.46187,0.05563 3.18413,4.80101 4.51452,8.14182c1.91371,2.9451 2.54876,4.0747 2.59815,7.80525c0.06137,4.63484 -3.09599,8.3932 -6.91509,8.3932c-3.81911,0 -6.97142,-3.75827 -6.91509,-8.3932z" fill="url(#color-103)"/><path d="M246.46246,198.36996c0.04664,-3.83756 0.71643,-4.6836 2.39301,-7.27015c1.13342,-3.1976 0.42735,-7.84347 3.94959,-7.78687c3.26865,0.05253 3.00642,4.53306 4.26256,7.68741c1.8069,2.78072 2.40651,3.84728 2.45314,7.36961c0.05794,4.37616 -2.92319,7.92475 -6.52914,7.92475c-3.60595,0 -6.58233,-3.54851 -6.52914,-7.92475z" fill="url(#color-104)"/><path d="M255.81319,199.89805c0,2.31639 -1.26323,4.19419 -2.82152,4.19419c-1.55829,0 -2.82152,-1.8778 -2.82152,-4.19419c0,-2.31639 1.26323,-4.1942 2.82152,-4.1942c1.55829,0 2.82152,1.87781 2.82152,4.1942z" fill="url(#color-105)"/></g><g><path d="M249.90784,199.37324c0.04939,-4.0644 0.75878,-4.96047 2.53446,-7.6999c1.20042,-3.38661 0.45262,-8.30711 4.18306,-8.24717c3.46187,0.05563 3.18413,4.80101 4.51453,8.14182c1.91371,2.9451 2.54875,4.0747 2.59814,7.80524c0.06137,4.63484 -3.09599,8.3932 -6.91509,8.3932c-3.81911,0 -6.97142,-3.75827 -6.91509,-8.3932z" fill="url(#color-106)"/><path d="M251.41307,198.36995c0.04664,-3.83756 0.71643,-4.6836 2.39301,-7.27015c1.13342,-3.1976 0.42735,-7.84347 3.94959,-7.78687c3.26865,0.05253 3.00642,4.53305 4.26256,7.6874c1.80691,2.78072 2.40651,3.84728 2.45314,7.36961c0.05794,4.37616 -2.92319,7.92474 -6.52914,7.92474c-3.60595,0 -6.58233,-3.5485 -6.52914,-7.92474z" fill="url(#color-107)"/><path d="M260.7638,199.89805c0,2.31639 -1.26324,4.1942 -2.82152,4.1942c-1.55829,0 -2.82152,-1.8778 -2.82152,-4.1942c0,-2.31639 1.26324,-4.1942 2.82152,-4.1942c1.55828,0 2.82152,1.87781 2.82152,4.1942z" fill="url(#color-108)"/></g></g><g stroke="none" stroke-width="0"><g><path d="M214.56593,202.67366c0.04939,-4.0644 0.75878,-4.96047 2.53445,-7.69991c1.20042,-3.38661 0.45262,-8.30712 4.18306,-8.24717c3.46187,0.05563 3.18412,4.80101 4.51452,8.14183c1.91371,2.9451 2.54876,4.0747 2.59815,7.80524c0.06136,4.63484 -3.09599,8.39319 -6.91509,8.39319c-3.81911,0 -6.97142,-3.75826 -6.91509,-8.39319z" fill="url(#color-109)"/><path d="M216.07117,201.67037c0.04664,-3.83756 0.71643,-4.6836 2.393,-7.27015c1.13342,-3.1976 0.42735,-7.84347 3.94959,-7.78687c3.26865,0.05253 3.00642,4.53306 4.26255,7.68741c1.80691,2.78072 2.40651,3.84728 2.45314,7.36961c0.05794,4.37616 -2.9232,7.92475 -6.52914,7.92475c-3.60595,0 -6.58232,-3.54851 -6.52914,-7.92475z" fill="url(#color-110)"/><path d="M225.4219,203.19846c0,2.31639 -1.26324,4.1942 -2.82152,4.1942c-1.55829,0 -2.82152,-1.87781 -2.82152,-4.1942c0,-2.31639 1.26323,-4.1942 2.82152,-4.1942c1.55829,0 2.82152,1.87781 2.82152,4.1942z" fill="url(#color-111)"/></g><g><path d="M220.7542,203.36124c0.04939,-4.0644 0.75878,-4.96047 2.53446,-7.6999c1.20042,-3.38661 0.45261,-8.30711 4.18306,-8.24717c3.46187,0.05563 3.18413,4.80101 4.51453,8.14182c1.91371,2.9451 2.54876,4.0747 2.59814,7.80524c0.06136,4.63484 -3.09599,8.3932 -6.91509,8.3932c-3.81911,0 -6.97142,-3.75827 -6.91509,-8.3932z" fill="url(#color-112)"/><path d="M222.25944,202.35795c0.04664,-3.83756 0.71643,-4.6836 2.393,-7.27014c1.13342,-3.1976 0.42735,-7.84347 3.94959,-7.78687c3.26865,0.05253 3.00642,4.53305 4.26256,7.6874c1.80691,2.78072 2.4065,3.84728 2.45314,7.36961c0.05794,4.37616 -2.9232,7.92475 -6.52914,7.92475c-3.60595,0 -6.58232,-3.54851 -6.52914,-7.92475z" fill="url(#color-113)"/><path d="M231.61017,203.88605c0,2.31639 -1.26323,4.1942 -2.82152,4.1942c-1.55829,0 -2.82152,-1.8778 -2.82152,-4.1942c0,-2.31639 1.26323,-4.1942 2.82152,-4.1942c1.55829,0 2.82152,1.87781 2.82152,4.1942z" fill="url(#color-114)"/></g><g><path d="M227.76758,202.81117c0.04939,-4.0644 0.75878,-4.96047 2.53446,-7.6999c1.20042,-3.38661 0.45261,-8.30711 4.18306,-8.24717c3.46187,0.05563 3.18413,4.80101 4.51453,8.14182c1.91371,2.9451 2.54876,4.0747 2.59814,7.80524c0.06136,4.63484 -3.09599,8.3932 -6.91509,8.3932c-3.81911,0 -6.97142,-3.75827 -6.91509,-8.3932z" fill="url(#color-115)"/><path d="M229.27281,201.80788c0.04664,-3.83756 0.71643,-4.6836 2.39301,-7.27015c1.13342,-3.1976 0.42735,-7.84347 3.94959,-7.78687c3.26865,0.05253 3.00642,4.53305 4.26255,7.6874c1.80691,2.78072 2.4065,3.84728 2.45314,7.36961c0.05794,4.37616 -2.92319,7.92475 -6.52914,7.92475c-3.60595,0 -6.58233,-3.54851 -6.52914,-7.92475z" fill="url(#color-116)"/><path d="M238.62354,203.33598c0,2.31639 -1.26323,4.1942 -2.82152,4.1942c-1.55829,0 -2.82152,-1.8778 -2.82152,-4.1942c0,-2.31639 1.26323,-4.1942 2.82152,-4.1942c1.55829,0 2.82152,1.87781 2.82152,4.1942z" fill="url(#color-117)"/></g><g><path d="M236.70619,203.49876c0.04939,-4.0644 0.75878,-4.96046 2.53446,-7.6999c1.20042,-3.38661 0.45261,-8.30712 4.18306,-8.24717c3.46187,0.05563 3.18413,4.80101 4.51453,8.14182c1.91371,2.9451 2.54876,4.0747 2.59814,7.80525c0.06136,4.63484 -3.09599,8.3932 -6.91509,8.3932c-3.81911,0 -6.97142,-3.75827 -6.91509,-8.3932z" fill="url(#color-118)"/><path d="M238.21143,202.49547c0.04664,-3.83756 0.71643,-4.6836 2.39301,-7.27014c1.13342,-3.1976 0.42735,-7.84348 3.94959,-7.78687c3.26865,0.05253 3.00642,4.53306 4.26255,7.68741c1.80691,2.78072 2.4065,3.84728 2.45314,7.36961c0.05794,4.37616 -2.92319,7.92475 -6.52914,7.92475c-3.60595,0 -6.58233,-3.54851 -6.52914,-7.92475z" fill="url(#color-119)"/><path d="M247.56216,204.02356c0,2.31639 -1.26323,4.1942 -2.82152,4.1942c-1.55829,0 -2.82152,-1.8778 -2.82152,-4.1942c0,-2.31639 1.26323,-4.1942 2.82152,-4.1942c1.55829,0 2.82152,1.87781 2.82152,4.1942z" fill="url(#color-120)"/></g><g><path d="M243.9946,204.5989c0.04939,-4.0644 0.75878,-4.96046 2.53446,-7.6999c1.20042,-3.38661 0.45262,-8.30712 4.18306,-8.24717c3.46187,0.05563 3.18413,4.80101 4.51452,8.14182c1.91371,2.9451 2.54876,4.0747 2.59815,7.80525c0.06137,4.63484 -3.09599,8.3932 -6.91509,8.3932c-3.81911,0 -6.97142,-3.75827 -6.91509,-8.3932z" fill="url(#color-121)"/><path d="M245.49984,203.59561c0.04664,-3.83756 0.71643,-4.6836 2.39301,-7.27015c1.13342,-3.1976 0.42735,-7.84347 3.94959,-7.78687c3.26865,0.05253 3.00642,4.53306 4.26255,7.68741c1.80691,2.78072 2.40651,3.84728 2.45314,7.36961c0.05794,4.37616 -2.9232,7.92475 -6.52914,7.92475c-3.60595,0 -6.58233,-3.54851 -6.52914,-7.92475z" fill="url(#color-122)"/><path d="M254.85057,205.1237c0,2.31639 -1.26323,4.19419 -2.82152,4.19419c-1.55829,0 -2.82152,-1.8778 -2.82152,-4.19419c0,-2.31639 1.26323,-4.1942 2.82152,-4.1942c1.55829,0 2.82152,1.87781 2.82152,4.1942z" fill="url(#color-123)"/></g><g><path d="M248.94522,204.59889c0.04939,-4.0644 0.75878,-4.96047 2.53446,-7.6999c1.20042,-3.38661 0.45262,-8.30711 4.18306,-8.24717c3.46187,0.05563 3.18413,4.80101 4.51452,8.14182c1.91371,2.9451 2.54876,4.0747 2.59815,7.80524c0.06137,4.63484 -3.09599,8.3932 -6.91509,8.3932c-3.8191,0 -6.97142,-3.75827 -6.91509,-8.3932z" fill="url(#color-124)"/><path d="M250.45045,203.5956c0.04664,-3.83756 0.71643,-4.6836 2.39301,-7.27014c1.13342,-3.1976 0.42735,-7.84347 3.94959,-7.78687c3.26865,0.05253 3.00641,4.53305 4.26255,7.6874c1.80691,2.78072 2.40651,3.84728 2.45314,7.36961c0.05794,4.37616 -2.92319,7.92475 -6.52914,7.92475c-3.60595,0 -6.58233,-3.54851 -6.52914,-7.92475z" fill="url(#color-125)"/><path d="M259.80118,205.1237c0,2.31639 -1.26323,4.1942 -2.82152,4.1942c-1.55828,0 -2.82152,-1.8778 -2.82152,-4.1942c0,-2.31639 1.26324,-4.1942 2.82152,-4.1942c1.55829,0 2.82152,1.87781 2.82152,4.1942z" fill="url(#color-126)"/></g></g><path d="M215.89493,211.2853v-62.5706h48.21014v62.5706z" fill="none" stroke="#b5b5b5" stroke-width="5"/></g></g></svg>