<svg version="1.1" xmlns="http://www.w3.org/2000/svg" xmlns:xlink="http://www.w3.org/1999/xlink" width="53.21014" height="67.5706" viewBox="0,0,53.21014,67.5706"><defs><linearGradient x1="230.10591" y1="154.17752" x2="234.49865" y2="168.19268" gradientUnits="userSpaceOnUse" id="color-1"><stop offset="0" stop-color="#00a415"/><stop offset="1" stop-color="#00ff39"/></linearGradient><linearGradient x1="238.17608" y1="157.84006" x2="243.28117" y2="163.77957" gradientUnits="userSpaceOnUse" id="color-2"><stop offset="0" stop-color="#00a415"/><stop offset="1" stop-color="#00ff39"/></linearGradient><radialGradient cx="231.08333" cy="166.66488" r="4.59167" gradientUnits="userSpaceOnUse" id="color-3"><stop offset="0" stop-color="#ffffff"/><stop offset="1" stop-color="#ff0000"/></radialGradient><radialGradient cx="224.25" cy="167.16487" r="4.59167" gradientUnits="userSpaceOnUse" id="color-4"><stop offset="0" stop-color="#ffffff"/><stop offset="1" stop-color="#ff6300"/></radialGradient><radialGradient cx="229.58333" cy="173.33154" r="4.59167" gradientUnits="userSpaceOnUse" id="color-5"><stop offset="0" stop-color="#ffffff"/><stop offset="1" stop-color="#ff0000"/></radialGradient><radialGradient cx="223.08333" cy="176.99821" r="4.59167" gradientUnits="userSpaceOnUse" id="color-6"><stop offset="0" stop-color="#ffffff"/><stop offset="1" stop-color="#a00000"/></radialGradient><radialGradient cx="253.91667" cy="167.99821" r="4.59167" gradientUnits="userSpaceOnUse" id="color-7"><stop offset="0" stop-color="#ffffff"/><stop offset="1" stop-color="#a00000"/></radialGradient><radialGradient cx="240.41667" cy="166.66488" r="4.59167" gradientUnits="userSpaceOnUse" id="color-8"><stop offset="0" stop-color="#ffffff"/><stop offset="1" stop-color="#ff0000"/></radialGradient><radialGradient cx="236.08333" cy="170.66488" r="4.59167" gradientUnits="userSpaceOnUse" id="color-9"><stop offset="0" stop-color="#ffffff"/><stop offset="1" stop-color="#a00000"/></radialGradient><radialGradient cx="246.58333" cy="168.83154" r="4.59167" gradientUnits="userSpaceOnUse" id="color-10"><stop offset="0" stop-color="#ffffff"/><stop offset="1" stop-color="#a00000"/></radialGradient><radialGradient cx="241.75" cy="174.16487" r="4.59167" gradientUnits="userSpaceOnUse" id="color-11"><stop offset="0" stop-color="#ffffff"/><stop offset="1" stop-color="#ff6300"/></radialGradient><radialGradient cx="249.25" cy="172.33154" r="4.59167" gradientUnits="userSpaceOnUse" id="color-12"><stop offset="0" stop-color="#ffffff"/><stop offset="1" stop-color="#ff6300"/></radialGradient><radialGradient cx="247.58333" cy="177.66488" r="4.59167" gradientUnits="userSpaceOnUse" id="color-13"><stop offset="0" stop-color="#ffffff"/><stop offset="1" stop-color="#ff0000"/></radialGradient><radialGradient cx="236.08332" cy="177.66487" r="4.59167" gradientUnits="userSpaceOnUse" id="color-14"><stop offset="0" stop-color="#ffffff"/><stop offset="1" stop-color="#ff6300"/></radialGradient><radialGradient cx="231.08332" cy="180.66487" r="4.59167" gradientUnits="userSpaceOnUse" id="color-15"><stop offset="0" stop-color="#ffffff"/><stop offset="1" stop-color="#a00000"/></radialGradient><radialGradient cx="225.08332" cy="183.99821" r="4.59167" gradientUnits="userSpaceOnUse" id="color-16"><stop offset="0" stop-color="#ffffff"/><stop offset="1" stop-color="#ff6300"/></radialGradient><radialGradient cx="249.41667" cy="187.99821" r="4.59167" gradientUnits="userSpaceOnUse" id="color-17"><stop offset="0" stop-color="#ffffff"/><stop offset="1" stop-color="#a00000"/></radialGradient><radialGradient cx="243.58332" cy="181.33154" r="4.59167" gradientUnits="userSpaceOnUse" id="color-18"><stop offset="0" stop-color="#ffffff"/><stop offset="1" stop-color="#ff6300"/></radialGradient><radialGradient cx="240.75" cy="185.16487" r="4.59167" gradientUnits="userSpaceOnUse" id="color-19"><stop offset="0" stop-color="#ffffff"/><stop offset="1" stop-color="#a00000"/></radialGradient><radialGradient cx="242.41667" cy="189.66487" r="4.59167" gradientUnits="userSpaceOnUse" id="color-20"><stop offset="0" stop-color="#ffffff"/><stop offset="1" stop-color="#a00000"/></radialGradient><radialGradient cx="234.41667" cy="186.66488" r="4.59167" gradientUnits="userSpaceOnUse" id="color-21"><stop offset="0" stop-color="#ffffff"/><stop offset="1" stop-color="#ff0000"/></radialGradient><radialGradient cx="237.41667" cy="192.99821" r="4.59167" gradientUnits="userSpaceOnUse" id="color-22"><stop offset="0" stop-color="#ffffff"/><stop offset="1" stop-color="#ff6300"/></radialGradient><radialGradient cx="228.08332" cy="190.49821" r="4.59167" gradientUnits="userSpaceOnUse" id="color-23"><stop offset="0" stop-color="#ffffff"/><stop offset="1" stop-color="#a00000"/></radialGradient><radialGradient cx="230.91667" cy="197.83154" r="4.59167" gradientUnits="userSpaceOnUse" id="color-24"><stop offset="0" stop-color="#ffffff"/><stop offset="1" stop-color="#ff6300"/></radialGradient><radialGradient cx="241.08333" cy="197.16488" r="4.59167" gradientUnits="userSpaceOnUse" id="color-25"><stop offset="0" stop-color="#ffffff"/><stop offset="1" stop-color="#ff0000"/></radialGradient><radialGradient cx="236.75" cy="199.83154" r="4.59167" gradientUnits="userSpaceOnUse" id="color-26"><stop offset="0" stop-color="#ffffff"/><stop offset="1" stop-color="#a00000"/></radialGradient></defs><g transform="translate(-213.39493,-146.2147)"><g stroke-miterlimit="10"><path d="M215.89493,211.2853v-62.5706h48.21014v62.5706z" fill="#ffffff" stroke="#b5b5b5" stroke-width="5"/><g stroke-width="1.5"><path d="M239.1494,166.73498c0,0 -5.05481,0.5347 -9.73115,-3.41208c-2.02159,-2.04044 -3.85778,-7.32944 -3.85778,-7.32944c0,0 5.87135,-1.22151 8.87843,0.79379c4.58856,3.72226 4.7105,9.94773 4.7105,9.94773z" fill="url(#color-1)" stroke="#156b00"/><path d="M239.04778,167.00777c0,0 -1.8437,-3.20613 -0.59398,-7.47955c1.22105,-4.17539 4.26548,-6.59726 4.26548,-6.59726c0,0 2.80806,3.42078 1.56124,8.01425c-1.12616,4.14893 -5.23274,6.06257 -5.23274,6.06257z" fill="url(#color-2)" stroke="#156b00"/><g stroke="#000000"><path d="M227.91667,168.48293c0,-2.53591 2.05576,-4.59167 4.59167,-4.59167c2.53591,0 4.59167,2.05576 4.59167,4.59167c0,2.53591 -2.05576,4.59167 -4.59167,4.59167c-2.53591,0 -4.59167,-2.05576 -4.59167,-4.59167z" fill="url(#color-3)"/><path d="M221.63333,169.61071c0,-2.53591 2.05576,-4.59167 4.59167,-4.59167c2.53591,0 4.59167,2.05576 4.59167,4.59167c0,2.53591 -2.05576,4.59167 -4.59167,4.59167c-2.53591,0 -4.59167,-2.05576 -4.59167,-4.59167z" fill="url(#color-4)"/><path d="M227.1111,175.2496c0,-2.53591 2.05576,-4.59167 4.59167,-4.59167c2.53591,0 4.59167,2.05576 4.59167,4.59167c0,2.53591 -2.05576,4.59167 -4.59167,4.59167c-2.53591,0 -4.59167,-2.05576 -4.59167,-4.59167z" fill="url(#color-5)"/><path d="M220.66667,177.98848c0,-2.53591 2.05576,-4.59167 4.59167,-4.59167c2.53591,0 4.59167,2.05576 4.59167,4.59167c0,2.53591 -2.05576,4.59167 -4.59167,4.59167c-2.53591,0 -4.59167,-2.05576 -4.59167,-4.59167z" fill="url(#color-6)"/><path d="M250.15,171.22182c0,-2.53591 2.05576,-4.59167 4.59167,-4.59167c2.53591,0 4.59167,2.05576 4.59167,4.59167c0,2.53591 -2.05576,4.59167 -4.59167,4.59167c-2.53591,0 -4.59167,-2.05576 -4.59167,-4.59167z" fill="url(#color-7)"/><path d="M237.09999,168.32182c0,-2.53591 2.05576,-4.59167 4.59167,-4.59167c2.53591,0 4.59167,2.05576 4.59167,4.59167c0,2.53591 -2.05576,4.59167 -4.59167,4.59167c-2.53591,0 -4.59167,-2.05576 -4.59167,-4.59167z" fill="url(#color-8)"/><path d="M232.91111,173.31626c0,-2.53591 2.05576,-4.59167 4.59167,-4.59167c2.53591,0 4.59167,2.05576 4.59167,4.59167c0,2.53591 -2.05576,4.59167 -4.59167,4.59167c-2.53591,0 -4.59167,-2.05576 -4.59167,-4.59167z" fill="url(#color-9)"/><path d="M243.86667,171.22182c0,-2.53591 2.05576,-4.59167 4.59167,-4.59167c2.53591,0 4.59167,2.05576 4.59167,4.59167c0,2.53591 -2.05576,4.59167 -4.59167,4.59167c-2.53591,0 -4.59167,-2.05576 -4.59167,-4.59167z" fill="url(#color-10)"/><path d="M239.35555,176.21626c0,-2.53591 2.05576,-4.59167 4.59167,-4.59167c2.53591,0 4.59167,2.05576 4.59167,4.59167c0,2.53591 -2.05576,4.59167 -4.59167,4.59167c-2.53591,0 -4.59167,-2.05576 -4.59167,-4.59167z" fill="url(#color-11)"/><path d="M246.60555,174.92737c0,-2.53591 2.05576,-4.59167 4.59167,-4.59167c2.53591,0 4.59167,2.05576 4.59167,4.59167c0,2.53591 -2.05576,4.59167 -4.59167,4.59167c-2.53591,0 -4.59167,-2.05576 -4.59167,-4.59167z" fill="url(#color-12)"/><path d="M244.83332,179.76071c0,-2.53591 2.05576,-4.59167 4.59167,-4.59167c2.53591,0 4.59167,2.05576 4.59167,4.59167c0,2.53591 -2.05576,4.59167 -4.59167,4.59167c-2.53591,0 -4.59167,-2.05576 -4.59167,-4.59167z" fill="url(#color-13)"/><path d="M232.75,179.92182c0,-2.53591 2.05576,-4.59167 4.59167,-4.59167c2.53591,0 4.59167,2.05576 4.59167,4.59167c0,2.53591 -2.05576,4.59167 -4.59167,4.59167c-2.53591,0 -4.59167,-2.05576 -4.59167,-4.59167z" fill="url(#color-14)"/><path d="M226.78889,183.9496c0,-2.53591 2.05576,-4.59167 4.59167,-4.59167c2.53591,0 4.59167,2.05576 4.59167,4.59167c0,2.53591 -2.05576,4.59167 -4.59167,4.59167c-2.53591,0 -4.59167,-2.05576 -4.59167,-4.59167z" fill="url(#color-15)"/><path d="M222.92222,186.04404c0,-2.53591 2.05576,-4.59167 4.59167,-4.59167c2.53591,0 4.59167,2.05576 4.59167,4.59167c0,2.53591 -2.05576,4.59167 -4.59167,4.59167c-2.53591,0 -4.59167,-2.05576 -4.59167,-4.59167z" fill="url(#color-16)"/><path d="M244.51111,186.52737c0,-2.53591 2.05576,-4.59167 4.59167,-4.59167c2.53591,0 4.59167,2.05576 4.59167,4.59167c0,2.53591 -2.05576,4.59167 -4.59167,4.59167c-2.53591,0 -4.59167,-2.05576 -4.59167,-4.59167z" fill="url(#color-17)"/><path d="M240.48332,183.30515c0,-2.53591 2.05576,-4.59167 4.59167,-4.59167c2.53591,0 4.59167,2.05576 4.59167,4.59167c0,2.53591 -2.05576,4.59167 -4.59167,4.59167c-2.53591,0 -4.59167,-2.05576 -4.59167,-4.59167z" fill="url(#color-18)"/><path d="M235.16667,187.81626c0,-2.53591 2.05576,-4.59167 4.59167,-4.59167c2.53591,0 4.59167,2.05576 4.59167,4.59167c0,2.53591 -2.05576,4.59167 -4.59167,4.59167c-2.53591,0 -4.59167,-2.05576 -4.59167,-4.59167z" fill="url(#color-19)"/><path d="M240,191.36071c0,-2.53591 2.05576,-4.59167 4.59167,-4.59167c2.53591,0 4.59167,2.05576 4.59167,4.59167c0,2.53591 -2.05576,4.59167 -4.59167,4.59167c-2.53591,0 -4.59167,-2.05576 -4.59167,-4.59167z" fill="url(#color-20)"/><path d="M231.3,189.26626c0,-2.53591 2.05576,-4.59167 4.59167,-4.59167c2.53591,0 4.59167,2.05576 4.59167,4.59167c0,2.53591 -2.05576,4.59167 -4.59167,4.59167c-2.53591,0 -4.59167,-2.05576 -4.59167,-4.59167z" fill="url(#color-21)"/><path d="M233.87778,195.22737c0,-2.53591 2.05576,-4.59167 4.59167,-4.59167c2.53591,0 4.59167,2.05576 4.59167,4.59167c0,2.53591 -2.05576,4.59167 -4.59167,4.59167c-2.53591,0 -4.59167,-2.05576 -4.59167,-4.59167z" fill="url(#color-22)"/><path d="M225.5,191.84404c0,-2.53591 2.05576,-4.59167 4.59167,-4.59167c2.53591,0 4.59167,2.05576 4.59167,4.59167c0,2.53591 -2.05576,4.59167 -4.59167,4.59167c-2.53591,0 -4.59167,-2.05576 -4.59167,-4.59167z" fill="url(#color-23)"/><path d="M228.4,199.8996c0,-2.53591 2.05576,-4.59167 4.59167,-4.59167c2.53591,0 4.59167,2.05576 4.59167,4.59167c0,2.53591 -2.05576,4.59167 -4.59167,4.59167c-2.53591,0 -4.59167,-2.05576 -4.59167,-4.59167z" fill="url(#color-24)"/><path d="M237.74444,199.09404c0,-2.53591 2.05576,-4.59167 4.59167,-4.59167c2.53591,0 4.59167,2.05576 4.59167,4.59167c0,2.53591 -2.05576,4.59167 -4.59167,4.59167c-2.53591,0 -4.59167,-2.05576 -4.59167,-4.59167z" fill="url(#color-25)"/><path d="M233.87778,202.47737c0,-2.53591 2.05576,-4.59167 4.59167,-4.59167c2.53591,0 4.59167,2.05576 4.59167,4.59167c0,2.53591 -2.05576,4.59167 -4.59167,4.59167c-2.53591,0 -4.59167,-2.05576 -4.59167,-4.59167z" fill="url(#color-26)"/></g></g></g></g></svg>