<svg version="1.1" xmlns="http://www.w3.org/2000/svg" xmlns:xlink="http://www.w3.org/1999/xlink" width="53.21014" height="67.5706" viewBox="0,0,53.21014,67.5706"><defs><linearGradient x1="226.09035" y1="161.57992" x2="234.58802" y2="162.57339" gradientUnits="userSpaceOnUse" id="color-1"><stop offset="0" stop-color="#ffdb4c"/><stop offset="1" stop-color="#eab626"/></linearGradient><linearGradient x1="241.46148" y1="201.85953" x2="246.24823" y2="160.91617" gradientUnits="userSpaceOnUse" id="color-2"><stop offset="0" stop-color="#eab626"/><stop offset="1" stop-color="#ffdb4c"/></linearGradient></defs><g transform="translate(-213.39493,-146.2147)"><g stroke-miterlimit="10"><path d="M215.89493,211.2853v-62.5706h48.21014v62.5706z" fill="#ffffff" stroke="#b5b5b5" stroke-width="5"/><g stroke-width="0.5"><path d="M234.32998,164.78058l-8.38732,-0.98057l0.21796,-3.77803c0,0 2.43081,0.87145 3.79904,0.99247c1.23947,0.10964 4.06229,-0.29713 4.06229,-0.29713z" fill="url(#color-1)" stroke="#625125"/><path d="M243.19428,201.39091c-1.8017,-0.21064 -3.15747,-1.80335 -2.59833,-3.05588c1.7769,-3.98042 6.10681,-10.24429 4.10526,-17.96691c-0.33754,-1.30232 0.18195,-3.23367 -2.51247,-6.93537c-1.30597,-1.79418 -2.74592,-2.48271 -3.81819,-3.56924c-1.81717,-1.84137 -4.98292,-3.1817 -5.88279,-4.88092c-1.32728,-2.50628 2.92222,-6.78781 6.09267,-6.41715c3.59313,0.42008 8.40324,3.09519 12.26552,7.35258c4.22888,4.66149 7.32915,11.15404 6.6383,17.06327c-1.32182,11.3062 -6.76266,19.28965 -14.28996,18.40962z" fill="url(#color-2)" stroke="#625125"/><path d="M225.76065,163.44313l-1.43467,-0.16773c0,0 -0.34627,-0.6913 -0.57855,-1.15501c-0.16599,-0.33139 -0.75597,-0.41378 -1.0315,-0.96384c-0.11862,-0.2368 -0.38185,-0.77448 -0.26938,-1.16296c0.17976,-0.62092 0.82469,-1.09247 0.82469,-1.09247c0,0 0.92,0.22019 1.3537,0.39311c0.48655,0.19398 1.42533,0.71487 1.42533,0.71487z" fill="#d9cab5" stroke="#614125"/></g></g></g></svg>