<svg version="1.1" xmlns="http://www.w3.org/2000/svg" xmlns:xlink="http://www.w3.org/1999/xlink" width="53.21014" height="53.60124" viewBox="0,0,53.21014,53.60124"><defs><radialGradient cx="240" cy="180.05329" r="24.30062" gradientUnits="userSpaceOnUse" id="color-1"><stop offset="0" stop-color="#ffffff"/><stop offset="1" stop-color="#005dff"/></radialGradient><linearGradient x1="240.00001" y1="180.30275" x2="240.00001" y2="204.4353" gradientUnits="userSpaceOnUse" id="color-2"><stop offset="0" stop-color="#fff652" stop-opacity="0"/><stop offset="1" stop-color="#fff652"/></linearGradient><linearGradient x1="240.00001" y1="179.69725" x2="240.00001" y2="155.5647" gradientUnits="userSpaceOnUse" id="color-3"><stop offset="0" stop-color="#fff652" stop-opacity="0"/><stop offset="1" stop-color="#fff652"/></linearGradient><radialGradient cx="240" cy="180.05329" r="24.30062" gradientUnits="userSpaceOnUse" id="color-4"><stop offset="0" stop-color="#ffffff"/><stop offset="1" stop-color="#005dff"/></radialGradient></defs><g transform="translate(-213.39493,-153.25267)"><g stroke-miterlimit="10"><path d="M215.89493,204.35391v-48.60124h48.21014v48.60124z" fill="#ffffff" stroke="url(#color-1)" stroke-width="5"/><path d="M215.89493,204.4353v-24.13255h48.21014v24.13255z" fill="url(#color-2)" stroke="none" stroke-width="0"/><path d="M264.10506,155.5647v24.13255h-48.21014v-24.13255z" fill="url(#color-3)" stroke="none" stroke-width="0"/><path d="M215.89493,204.35391v-48.60124h48.21014v48.60124z" fill="none" stroke="url(#color-4)" stroke-width="5"/><g fill="#fff652"><g stroke="#005dff" stroke-width="5"><path d="M229.8086,169.01007v-4.43996c0,0 6.44965,0.88799 9.76791,0.88799c3.44772,0 10.54491,-0.88799 10.54491,-0.88799v4.43996c0,0 -7.19134,0.88799 -10.65591,0.88799c-3.29817,0 -9.65691,-0.88799 -9.65691,-0.88799z"/><path d="M246.10024,167.01005l3.53617,3.72299c0,0 -3.20003,5.14748 -4.9497,9.29713c-1.97488,4.68379 -5.75096,15.39972 -5.75096,15.39972l-4.09116,-1.725c0,0 3.72594,-10.59702 5.69358,-15.26363c1.76135,-4.17738 5.56207,-11.43121 5.56207,-11.43121z"/></g><g stroke="none" stroke-width="0"><path d="M229.8086,169.01007v-4.43996c0,0 6.44965,0.88799 9.76791,0.88799c3.44772,0 10.54491,-0.88799 10.54491,-0.88799v4.43996c0,0 -7.19134,0.88799 -10.65591,0.88799c-3.29817,0 -9.65691,-0.88799 -9.65691,-0.88799z"/><path d="M246.10024,167.01005l4.09116,1.725c0,0 -3.75503,7.14547 -5.5047,11.29512c-1.97488,4.68379 -5.75096,15.39972 -5.75096,15.39972l-4.09116,-1.725c0,0 3.72594,-10.59702 5.69358,-15.26363c1.76135,-4.17738 5.56207,-11.43121 5.56207,-11.43121z"/></g></g></g></g></svg>