<svg version="1.1" xmlns="http://www.w3.org/2000/svg" xmlns:xlink="http://www.w3.org/1999/xlink" width="291.75703" height="236.7352" viewBox="0,0,291.75703,236.7352"><g transform="translate(-94.73702,-62.3052)"><g stroke-miterlimit="10"><text transform="translate(142.55783,288.0504) scale(0.8792,0.8792)" font-size="40" xml:space="preserve" fill="#fff652" stroke="#005dff" stroke-width="1" font-family="Sans Serif" font-weight="400" text-anchor="start"><tspan x="0" dy="0">+2500 coins</tspan></text><text transform="translate(95.17662,257.64377) scale(0.8792,0.8792)" font-size="40" xml:space="preserve" fill="#fff652" stroke="#005dff" stroke-width="1" font-family="Sans Serif" font-weight="400" text-anchor="start"><tspan x="0" dy="0">0.0015% CHANCE</tspan></text><text transform="translate(156.31866,100.5504) scale(0.8792,0.8792)" font-size="40" xml:space="preserve" fill="#fff652" stroke="#005dff" stroke-width="1" font-family="Sans Serif" font-weight="400" text-anchor="start"><tspan x="0" dy="0">JACKPOT!</tspan></text><g fill="#fff652" stroke-width="6.5"><g stroke="#005dff"><path d="M207.5586,145.01671v-14.13334c0,0 20.53061,2.82666 31.09334,2.82666c10.97483,0 33.5667,-2.82666 33.5667,-2.82666v14.13334c0,0 -22.89157,2.82666 -33.92003,2.82666c-10.49878,0 -30.74,-2.82666 -30.74,-2.82666z"/><path d="M259.41837,138.65022l11.25638,11.85107c0,0 -10.18638,16.38553 -15.75595,29.59475c-6.28646,14.9095 -18.30653,49.02059 -18.30653,49.02059l-13.02303,-5.49104c0,0 11.86046,-33.73257 18.12388,-48.58739c5.60675,-13.29749 17.70526,-36.38798 17.70526,-36.38798z"/></g><g stroke="none"><path d="M207.5586,145.01671v-14.13334c0,0 20.53061,2.82666 31.09334,2.82666c10.97483,0 33.5667,-2.82666 33.5667,-2.82666v14.13334c0,0 -22.89157,2.82666 -33.92003,2.82666c-10.49878,0 -30.74,-2.82666 -30.74,-2.82666z"/><path d="M259.41837,138.65022l13.02303,5.49104c0,0 -11.95306,22.74556 -17.52263,35.95478c-6.28646,14.9095 -18.30653,49.02059 -18.30653,49.02059l-13.02303,-5.49104c0,0 11.86046,-33.73257 18.12388,-48.58739c5.60675,-13.29749 17.70526,-36.38798 17.70526,-36.38798z"/></g></g></g></g></svg>