<svg version="1.1" xmlns="http://www.w3.org/2000/svg" xmlns:xlink="http://www.w3.org/1999/xlink" width="53.27681" height="93.13726" viewBox="0,0,53.27681,93.13726"><defs><linearGradient x1="240.00005" y1="180.26472" x2="240.00005" y2="209.33532" gradientUnits="userSpaceOnUse" id="color-1"><stop offset="0" stop-color="#fff652" stop-opacity="0"/><stop offset="1" stop-color="#fff652"/></linearGradient><linearGradient x1="240.00005" y1="179.53532" x2="240.00005" y2="150.46472" gradientUnits="userSpaceOnUse" id="color-2"><stop offset="0" stop-color="#fff652" stop-opacity="0"/><stop offset="1" stop-color="#fff652"/></linearGradient><radialGradient cx="240.00005" cy="180.00002" r="31.2853" gradientUnits="userSpaceOnUse" id="color-3"><stop offset="0" stop-color="#ffffff"/><stop offset="1" stop-color="#005dff"/></radialGradient></defs><g transform="translate(-213.39497,-146.21472)"><g stroke-miterlimit="10"><path d="M215.96165,236.85198v-88.0706h48.21014v88.0706z" fill="#fff652" stroke="#005dff" stroke-width="5"/><text transform="translate(231.31256,220.21061) scale(0.1811,0.1811)" font-size="40" xml:space="preserve" fill="#005dff" stroke="none" stroke-width="1" font-family="Sans Serif" font-weight="normal" text-anchor="start"><tspan x="0" dy="0">eight</tspan></text><text transform="translate(220.31256,229.28842) scale(0.15633,0.15633)" font-size="40" xml:space="preserve" fill="#005dff" stroke="none" stroke-width="1" font-family="Sans Serif" font-weight="normal" text-anchor="start"><tspan x="0" dy="0">click to equip</tspan></text><path d="M215.89498,211.28532v-62.5706h48.21014v62.5706z" fill="#ffffff" stroke="#b5b5b5" stroke-width="5"/><path d="M215.89498,209.33532v-29.0706h48.21014v29.0706z" fill="url(#color-1)" stroke="none" stroke-width="0"/><path d="M264.1051,150.46472v29.0706h-48.21014v-29.0706z" fill="url(#color-2)" stroke="none" stroke-width="0"/><path d="M215.89498,211.28532v-62.5706h48.21014v62.5706z" fill="none" stroke="url(#color-3)" stroke-width="5"/><g fill="none"><path d="M229.81605,186.81604c0,-5.62445 4.55952,-10.18396 10.18396,-10.18396c5.62445,0 10.18396,4.55952 10.18396,10.18396c0,5.62445 -4.55952,10.18396 -10.18396,10.18396c-5.62445,0 -10.18396,-4.55952 -10.18396,-10.18396z" stroke="#005dff" stroke-width="5"/><path d="M233.02359,169.97642c0,-3.85297 3.12345,-6.97642 6.97642,-6.97642c3.85297,0 6.97642,3.12345 6.97642,6.97642c0,3.85297 -3.12345,6.97642 -6.97642,6.97642c-3.85297,0 -6.97642,-3.12345 -6.97642,-6.97642z" stroke="#005dff" stroke-width="5"/><path d="M229.81605,186.81604c0,-5.62445 4.55952,-10.18396 10.18396,-10.18396c5.62445,0 10.18396,4.55952 10.18396,10.18396c0,5.62445 -4.55952,10.18396 -10.18396,10.18396c-5.62445,0 -10.18396,-4.55952 -10.18396,-10.18396z" stroke="#fff652" stroke-width="2.5"/><path d="M233.02359,169.97642c0,-3.85297 3.12345,-6.97642 6.97642,-6.97642c3.85297,0 6.97642,3.12345 6.97642,6.97642c0,3.85297 -3.12345,6.97642 -6.97642,6.97642c-3.85297,0 -6.97642,-3.12345 -6.97642,-6.97642z" stroke="#fff652" stroke-width="2.5"/></g><g fill="none"><path d="M222.30383,160.81269c0.70724,-1.74515 2.6953,-2.58653 4.44045,-1.87929c1.74515,0.70724 2.58653,2.6953 1.87929,4.44045c-0.70724,1.74515 -2.6953,2.58653 -4.44044,1.87929c-1.74515,-0.70724 -2.58653,-2.6953 -1.87929,-4.44044z" stroke="#005dff" stroke-width="5"/><path d="M225.41656,155.99104c0.48449,-1.19549 1.84639,-1.77188 3.04188,-1.28739c1.19549,0.48449 1.77188,1.84639 1.28739,3.04188c-0.48449,1.19549 -1.84639,1.77188 -3.04188,1.28739c-1.19549,-0.48449 -1.77188,-1.84639 -1.28739,-3.04188z" stroke="#005dff" stroke-width="5"/><path d="M222.30383,160.81269c0.70724,-1.74515 2.6953,-2.58653 4.44045,-1.87929c1.74515,0.70724 2.58653,2.6953 1.87929,4.44045c-0.70724,1.74515 -2.6953,2.58653 -4.44044,1.87929c-1.74515,-0.70724 -2.58653,-2.6953 -1.87929,-4.44044z" stroke="#fff652" stroke-width="2.5"/><path d="M225.41656,155.99104c0.48449,-1.19549 1.84639,-1.77188 3.04188,-1.28739c1.19549,0.48449 1.77188,1.84639 1.28739,3.04188c-0.48449,1.19549 -1.84639,1.77188 -3.04188,1.28739c-1.19549,-0.48449 -1.77188,-1.84639 -1.28739,-3.04188z" stroke="#fff652" stroke-width="2.5"/></g><g fill="none"><path d="M255.58763,166.05313c-1.74515,0.70725 -3.7332,-0.13414 -4.44045,-1.87929c-0.70725,-1.74515 0.13414,-3.7332 1.87929,-4.44045c1.74515,-0.70725 3.7332,0.13414 4.44045,1.87929c0.70725,1.74515 -0.13414,3.7332 -1.87929,4.44045z" stroke="#005dff" stroke-width="5"/><path d="M253.06681,159.83292c-1.19549,0.48449 -2.55739,-0.09189 -3.04188,-1.28739c-0.48449,-1.19549 0.09189,-2.55739 1.28739,-3.04188c1.19549,-0.48449 2.55739,0.09189 3.04188,1.28739c0.48449,1.19549 -0.09189,2.55739 -1.28739,3.04188z" stroke="#005dff" stroke-width="5"/><path d="M255.58763,166.05313c-1.74515,0.70725 -3.7332,-0.13414 -4.44045,-1.87929c-0.70725,-1.74515 0.13414,-3.7332 1.87929,-4.44045c1.74515,-0.70725 3.7332,0.13414 4.44045,1.87929c0.70725,1.74515 -0.13414,3.7332 -1.87929,4.44045z" stroke="#fff652" stroke-width="2.5"/><path d="M253.06681,159.83292c-1.19549,0.48449 -2.55739,-0.09189 -3.04188,-1.28739c-0.48449,-1.19549 0.09189,-2.55739 1.28739,-3.04188c1.19549,-0.48449 2.55739,0.09189 3.04188,1.28739c0.48449,1.19549 -0.09189,2.55739 -1.28739,3.04188z" stroke="#fff652" stroke-width="2.5"/></g><g fill="none"><path d="M224.78313,196.58256c1.74515,-0.70725 3.7332,0.13414 4.44045,1.87929c0.70725,1.74515 -0.13414,3.7332 -1.87929,4.44045c-1.74515,0.70725 -3.7332,-0.13414 -4.44045,-1.87929c-0.70725,-1.74515 0.13414,-3.7332 1.87929,-4.44045z" stroke="#005dff" stroke-width="5"/><path d="M227.30395,202.80277c1.19549,-0.48449 2.55739,0.09189 3.04188,1.28739c0.48449,1.19549 -0.09189,2.55739 -1.28739,3.04188c-1.19549,0.48449 -2.55739,-0.09189 -3.04188,-1.28739c-0.48449,-1.19549 0.09189,-2.55739 1.28739,-3.04188z" stroke="#005dff" stroke-width="5"/><path d="M224.78313,196.58256c1.74515,-0.70725 3.7332,0.13414 4.44045,1.87929c0.70725,1.74515 -0.13414,3.7332 -1.87929,4.44045c-1.74515,0.70725 -3.7332,-0.13414 -4.44045,-1.87929c-0.70725,-1.74515 0.13414,-3.7332 1.87929,-4.44045z" stroke="#fff652" stroke-width="2.5"/><path d="M227.30395,202.80277c1.19549,-0.48449 2.55739,0.09189 3.04188,1.28739c0.48449,1.19549 -0.09189,2.55739 -1.28739,3.04188c-1.19549,0.48449 -2.55739,-0.09189 -3.04188,-1.28739c-0.48449,-1.19549 0.09189,-2.55739 1.28739,-3.04188z" stroke="#fff652" stroke-width="2.5"/></g><g fill="none"><path d="M258.06692,200.223c-0.70725,1.74515 -2.6953,2.58653 -4.44044,1.87929c-1.74515,-0.70725 -2.58653,-2.6953 -1.87929,-4.44045c0.70725,-1.74515 2.6953,-2.58653 4.44045,-1.87929c1.74514,0.70725 2.58653,2.6953 1.87929,4.44045z" stroke="#005dff" stroke-width="5"/><path d="M254.9542,205.04465c-0.48449,1.19549 -1.84638,1.77188 -3.04188,1.28739c-1.19549,-0.48449 -1.77187,-1.84639 -1.28739,-3.04188c0.48449,-1.19549 1.84638,-1.77188 3.04188,-1.28739c1.19549,0.48449 1.77187,1.84638 1.28739,3.04188z" stroke="#005dff" stroke-width="5"/><path d="M258.06692,200.223c-0.70725,1.74515 -2.6953,2.58653 -4.44044,1.87929c-1.74515,-0.70725 -2.58653,-2.6953 -1.87929,-4.44045c0.70725,-1.74515 2.6953,-2.58653 4.44045,-1.87929c1.74514,0.70725 2.58653,2.6953 1.87929,4.44045z" stroke="#fff652" stroke-width="2.5"/><path d="M254.9542,205.04465c-0.48449,1.19549 -1.84638,1.77188 -3.04188,1.28739c-1.19549,-0.48449 -1.77187,-1.84639 -1.28739,-3.04188c0.48449,-1.19549 1.84638,-1.77188 3.04188,-1.28739c1.19549,0.48449 1.77187,1.84638 1.28739,3.04188z" stroke="#fff652" stroke-width="2.5"/></g></g></g></svg>