<svg version="1.1" xmlns="http://www.w3.org/2000/svg" xmlns:xlink="http://www.w3.org/1999/xlink" width="53.21014" height="67.5706" viewBox="0,0,53.21014,67.5706"><defs><radialGradient cx="231.38056" cy="164.89583" r="4.59167" gradientUnits="userSpaceOnUse" id="color-1"><stop offset="0" stop-color="#ffffff"/><stop offset="1" stop-color="#cc45ff"/></radialGradient><radialGradient cx="223.96944" cy="166.50694" r="4.59167" gradientUnits="userSpaceOnUse" id="color-2"><stop offset="0" stop-color="#ffffff"/><stop offset="1" stop-color="#4546ff"/></radialGradient><radialGradient cx="230.09167" cy="171.82361" r="4.59167" gradientUnits="userSpaceOnUse" id="color-3"><stop offset="0" stop-color="#ffffff"/><stop offset="1" stop-color="#cc45ff"/></radialGradient><radialGradient cx="223.96944" cy="175.52917" r="4.59167" gradientUnits="userSpaceOnUse" id="color-4"><stop offset="0" stop-color="#ffffff"/><stop offset="1" stop-color="#6f258a"/></radialGradient><radialGradient cx="254.25833" cy="167.3125" r="4.59167" gradientUnits="userSpaceOnUse" id="color-5"><stop offset="0" stop-color="#ffffff"/><stop offset="1" stop-color="#6f258a"/></radialGradient><radialGradient cx="239.275" cy="165.21806" r="4.59167" gradientUnits="userSpaceOnUse" id="color-6"><stop offset="0" stop-color="#ffffff"/><stop offset="1" stop-color="#cc45ff"/></radialGradient><radialGradient cx="235.73056" cy="170.69583" r="4.59167" gradientUnits="userSpaceOnUse" id="color-7"><stop offset="0" stop-color="#ffffff"/><stop offset="1" stop-color="#6f258a"/></radialGradient><radialGradient cx="246.36389" cy="168.60139" r="4.59167" gradientUnits="userSpaceOnUse" id="color-8"><stop offset="0" stop-color="#ffffff"/><stop offset="1" stop-color="#6f258a"/></radialGradient><radialGradient cx="241.69167" cy="173.75694" r="4.59167" gradientUnits="userSpaceOnUse" id="color-9"><stop offset="0" stop-color="#ffffff"/><stop offset="1" stop-color="#4546ff"/></radialGradient><radialGradient cx="249.425" cy="171.98472" r="4.59167" gradientUnits="userSpaceOnUse" id="color-10"><stop offset="0" stop-color="#ffffff"/><stop offset="1" stop-color="#4546ff"/></radialGradient><radialGradient cx="247.975" cy="176.0125" r="4.59167" gradientUnits="userSpaceOnUse" id="color-11"><stop offset="0" stop-color="#ffffff"/><stop offset="1" stop-color="#cc45ff"/></radialGradient><radialGradient cx="235.40833" cy="176.49583" r="4.59167" gradientUnits="userSpaceOnUse" id="color-12"><stop offset="0" stop-color="#ffffff"/><stop offset="1" stop-color="#4546ff"/></radialGradient><radialGradient cx="231.38056" cy="180.04028" r="4.59167" gradientUnits="userSpaceOnUse" id="color-13"><stop offset="0" stop-color="#ffffff"/><stop offset="1" stop-color="#6f258a"/></radialGradient><radialGradient cx="225.41944" cy="183.42361" r="4.59167" gradientUnits="userSpaceOnUse" id="color-14"><stop offset="0" stop-color="#ffffff"/><stop offset="1" stop-color="#4546ff"/></radialGradient><radialGradient cx="249.58611" cy="186.32361" r="4.59167" gradientUnits="userSpaceOnUse" id="color-15"><stop offset="0" stop-color="#ffffff"/><stop offset="1" stop-color="#6f258a"/></radialGradient><radialGradient cx="243.625" cy="180.52361" r="4.59167" gradientUnits="userSpaceOnUse" id="color-16"><stop offset="0" stop-color="#ffffff"/><stop offset="1" stop-color="#4546ff"/></radialGradient><radialGradient cx="240.88611" cy="183.90694" r="4.59167" gradientUnits="userSpaceOnUse" id="color-17"><stop offset="0" stop-color="#ffffff"/><stop offset="1" stop-color="#6f258a"/></radialGradient><radialGradient cx="242.81944" cy="188.57917" r="4.59167" gradientUnits="userSpaceOnUse" id="color-18"><stop offset="0" stop-color="#ffffff"/><stop offset="1" stop-color="#6f258a"/></radialGradient><radialGradient cx="234.28056" cy="185.67917" r="4.59167" gradientUnits="userSpaceOnUse" id="color-19"><stop offset="0" stop-color="#ffffff"/><stop offset="1" stop-color="#cc45ff"/></radialGradient><radialGradient cx="237.01944" cy="191.80139" r="4.59167" gradientUnits="userSpaceOnUse" id="color-20"><stop offset="0" stop-color="#ffffff"/><stop offset="1" stop-color="#4546ff"/></radialGradient><radialGradient cx="228.64167" cy="189.54583" r="4.59167" gradientUnits="userSpaceOnUse" id="color-21"><stop offset="0" stop-color="#ffffff"/><stop offset="1" stop-color="#6f258a"/></radialGradient><radialGradient cx="230.89722" cy="196.63472" r="4.59167" gradientUnits="userSpaceOnUse" id="color-22"><stop offset="0" stop-color="#ffffff"/><stop offset="1" stop-color="#4546ff"/></radialGradient><radialGradient cx="241.04722" cy="195.50694" r="4.59167" gradientUnits="userSpaceOnUse" id="color-23"><stop offset="0" stop-color="#ffffff"/><stop offset="1" stop-color="#cc45ff"/></radialGradient><radialGradient cx="237.18056" cy="199.05139" r="4.59167" gradientUnits="userSpaceOnUse" id="color-24"><stop offset="0" stop-color="#ffffff"/><stop offset="1" stop-color="#6f258a"/></radialGradient></defs><g transform="translate(-213.39493,-146.2147)"><g stroke-miterlimit="10"><path d="M215.89493,211.2853v-62.5706h48.21014v62.5706z" fill="#ffffff" stroke="#b5b5b5" stroke-width="5"/><g stroke="#000000" stroke-width="1.5"><path d="M236.69722,170.2125v-15.14444h4.51111v15.14444z" fill="#9a5800"/><g><path d="M227.91667,167.15139c0,-2.53591 2.05576,-4.59167 4.59167,-4.59167c2.53591,0 4.59167,2.05576 4.59167,4.59167c0,2.53591 -2.05576,4.59167 -4.59167,4.59167c-2.53591,0 -4.59167,-2.05576 -4.59167,-4.59167z" fill="url(#color-1)"/><path d="M221.63333,168.27917c0,-2.53591 2.05576,-4.59167 4.59167,-4.59167c2.53591,0 4.59167,2.05576 4.59167,4.59167c0,2.53591 -2.05576,4.59167 -4.59167,4.59167c-2.53591,0 -4.59167,-2.05576 -4.59167,-4.59167z" fill="url(#color-2)"/><path d="M227.11111,173.91806c0,-2.53591 2.05576,-4.59167 4.59167,-4.59167c2.53591,0 4.59167,2.05576 4.59167,4.59167c0,2.53591 -2.05576,4.59167 -4.59167,4.59167c-2.53591,0 -4.59167,-2.05576 -4.59167,-4.59167z" fill="url(#color-3)"/><path d="M220.66667,176.65694c0,-2.53591 2.05576,-4.59167 4.59167,-4.59167c2.53591,0 4.59167,2.05576 4.59167,4.59167c0,2.53591 -2.05576,4.59167 -4.59167,4.59167c-2.53591,0 -4.59167,-2.05576 -4.59167,-4.59167z" fill="url(#color-4)"/><path d="M250.15,169.89028c0,-2.53591 2.05576,-4.59167 4.59167,-4.59167c2.53591,0 4.59167,2.05576 4.59167,4.59167c0,2.53591 -2.05576,4.59167 -4.59167,4.59167c-2.53591,0 -4.59167,-2.05576 -4.59167,-4.59167z" fill="url(#color-5)"/><path d="M237.1,166.99028c0,-2.53591 2.05576,-4.59167 4.59167,-4.59167c2.53591,0 4.59167,2.05576 4.59167,4.59167c0,2.53591 -2.05576,4.59167 -4.59167,4.59167c-2.53591,0 -4.59167,-2.05576 -4.59167,-4.59167z" fill="url(#color-6)"/><path d="M232.91111,171.98472c0,-2.53591 2.05576,-4.59167 4.59167,-4.59167c2.53591,0 4.59167,2.05576 4.59167,4.59167c0,2.53591 -2.05576,4.59167 -4.59167,4.59167c-2.53591,0 -4.59167,-2.05576 -4.59167,-4.59167z" fill="url(#color-7)"/><path d="M243.86667,169.89028c0,-2.53591 2.05576,-4.59167 4.59167,-4.59167c2.53591,0 4.59167,2.05576 4.59167,4.59167c0,2.53591 -2.05576,4.59167 -4.59167,4.59167c-2.53591,0 -4.59167,-2.05576 -4.59167,-4.59167z" fill="url(#color-8)"/><path d="M239.35556,174.88472c0,-2.53591 2.05576,-4.59167 4.59167,-4.59167c2.53591,0 4.59167,2.05576 4.59167,4.59167c0,2.53591 -2.05576,4.59167 -4.59167,4.59167c-2.53591,0 -4.59167,-2.05576 -4.59167,-4.59167z" fill="url(#color-9)"/><path d="M246.60556,173.59583c0,-2.53591 2.05576,-4.59167 4.59167,-4.59167c2.53591,0 4.59167,2.05576 4.59167,4.59167c0,2.53591 -2.05576,4.59167 -4.59167,4.59167c-2.53591,0 -4.59167,-2.05576 -4.59167,-4.59167z" fill="url(#color-10)"/><path d="M244.83333,178.42917c0,-2.53591 2.05576,-4.59167 4.59167,-4.59167c2.53591,0 4.59167,2.05576 4.59167,4.59167c0,2.53591 -2.05576,4.59167 -4.59167,4.59167c-2.53591,0 -4.59167,-2.05576 -4.59167,-4.59167z" fill="url(#color-11)"/><path d="M232.75,178.59028c0,-2.53591 2.05576,-4.59167 4.59167,-4.59167c2.53591,0 4.59167,2.05576 4.59167,4.59167c0,2.53591 -2.05576,4.59167 -4.59167,4.59167c-2.53591,0 -4.59167,-2.05576 -4.59167,-4.59167z" fill="url(#color-12)"/><path d="M226.78889,182.61806c0,-2.53591 2.05576,-4.59167 4.59167,-4.59167c2.53591,0 4.59167,2.05576 4.59167,4.59167c0,2.53591 -2.05576,4.59167 -4.59167,4.59167c-2.53591,0 -4.59167,-2.05576 -4.59167,-4.59167z" fill="url(#color-13)"/><path d="M222.92222,184.7125c0,-2.53591 2.05576,-4.59167 4.59167,-4.59167c2.53591,0 4.59167,2.05576 4.59167,4.59167c0,2.53591 -2.05576,4.59167 -4.59167,4.59167c-2.53591,0 -4.59167,-2.05576 -4.59167,-4.59167z" fill="url(#color-14)"/><path d="M244.51111,185.19583c0,-2.53591 2.05576,-4.59167 4.59167,-4.59167c2.53591,0 4.59167,2.05576 4.59167,4.59167c0,2.53591 -2.05576,4.59167 -4.59167,4.59167c-2.53591,0 -4.59167,-2.05576 -4.59167,-4.59167z" fill="url(#color-15)"/><path d="M240.48333,181.97361c0,-2.53591 2.05576,-4.59167 4.59167,-4.59167c2.53591,0 4.59167,2.05576 4.59167,4.59167c0,2.53591 -2.05576,4.59167 -4.59167,4.59167c-2.53591,0 -4.59167,-2.05576 -4.59167,-4.59167z" fill="url(#color-16)"/><path d="M235.16667,186.48472c0,-2.53591 2.05576,-4.59167 4.59167,-4.59167c2.53591,0 4.59167,2.05576 4.59167,4.59167c0,2.53591 -2.05576,4.59167 -4.59167,4.59167c-2.53591,0 -4.59167,-2.05576 -4.59167,-4.59167z" fill="url(#color-17)"/><path d="M240,190.02917c0,-2.53591 2.05576,-4.59167 4.59167,-4.59167c2.53591,0 4.59167,2.05576 4.59167,4.59167c0,2.53591 -2.05576,4.59167 -4.59167,4.59167c-2.53591,0 -4.59167,-2.05576 -4.59167,-4.59167z" fill="url(#color-18)"/><path d="M231.3,187.93472c0,-2.53591 2.05576,-4.59167 4.59167,-4.59167c2.53591,0 4.59167,2.05576 4.59167,4.59167c0,2.53591 -2.05576,4.59167 -4.59167,4.59167c-2.53591,0 -4.59167,-2.05576 -4.59167,-4.59167z" fill="url(#color-19)"/><path d="M233.87778,193.89583c0,-2.53591 2.05576,-4.59167 4.59167,-4.59167c2.53591,0 4.59167,2.05576 4.59167,4.59167c0,2.53591 -2.05576,4.59167 -4.59167,4.59167c-2.53591,0 -4.59167,-2.05576 -4.59167,-4.59167z" fill="url(#color-20)"/><path d="M225.5,190.5125c0,-2.53591 2.05576,-4.59167 4.59167,-4.59167c2.53591,0 4.59167,2.05576 4.59167,4.59167c0,2.53591 -2.05576,4.59167 -4.59167,4.59167c-2.53591,0 -4.59167,-2.05576 -4.59167,-4.59167z" fill="url(#color-21)"/><path d="M228.4,198.56806c0,-2.53591 2.05576,-4.59167 4.59167,-4.59167c2.53591,0 4.59167,2.05576 4.59167,4.59167c0,2.53591 -2.05576,4.59167 -4.59167,4.59167c-2.53591,0 -4.59167,-2.05576 -4.59167,-4.59167z" fill="url(#color-22)"/><path d="M237.74444,197.7625c0,-2.53591 2.05576,-4.59167 4.59167,-4.59167c2.53591,0 4.59167,2.05576 4.59167,4.59167c0,2.53591 -2.05576,4.59167 -4.59167,4.59167c-2.53591,0 -4.59167,-2.05576 -4.59167,-4.59167z" fill="url(#color-23)"/><path d="M233.87778,201.14583c0,-2.53591 2.05576,-4.59167 4.59167,-4.59167c2.53591,0 4.59167,2.05576 4.59167,4.59167c0,2.53591 -2.05576,4.59167 -4.59167,4.59167c-2.53591,0 -4.59167,-2.05576 -4.59167,-4.59167z" fill="url(#color-24)"/></g><path d="M227.675,158.12917v-3.86667c0,0 4.04035,0.80556 6.76667,0.80556c4.16452,0 15.78889,0 15.78889,0v3.86667c0,0 -13.13538,0 -17.23889,0c-2.27888,0 -5.31667,-0.80556 -5.31667,-0.80556z" fill="#9a5800"/></g></g></g></svg>