<svg version="1.1" xmlns="http://www.w3.org/2000/svg" xmlns:xlink="http://www.w3.org/1999/xlink" width="53.21014" height="67.5706" viewBox="0,0,53.21014,67.5706"><defs><linearGradient x1="240.00005" y1="180.26472" x2="240.00005" y2="209.33532" gradientUnits="userSpaceOnUse" id="color-1"><stop offset="0" stop-color="#fff652" stop-opacity="0"/><stop offset="1" stop-color="#fff652"/></linearGradient><linearGradient x1="240.00005" y1="179.53532" x2="240.00005" y2="150.46472" gradientUnits="userSpaceOnUse" id="color-2"><stop offset="0" stop-color="#fff652" stop-opacity="0"/><stop offset="1" stop-color="#fff652"/></linearGradient><radialGradient cx="240.00005" cy="180.00002" r="31.2853" gradientUnits="userSpaceOnUse" id="color-3"><stop offset="0" stop-color="#ffffff"/><stop offset="1" stop-color="#005dff"/></radialGradient></defs><g transform="translate(-213.39497,-146.21472)"><g stroke-miterlimit="10"><path d="M215.89498,211.28532v-62.5706h48.21014v62.5706z" fill="#ffffff" stroke="#b5b5b5" stroke-width="5"/><path d="M215.89498,209.33532v-29.0706h48.21014v29.0706z" fill="url(#color-1)" stroke="none" stroke-width="0"/><path d="M264.1051,150.46472v29.0706h-48.21014v-29.0706z" fill="url(#color-2)" stroke="none" stroke-width="0"/><path d="M215.89498,211.28532v-62.5706h48.21014v62.5706z" fill="none" stroke="url(#color-3)" stroke-width="5"/><path d="M224.40001,190.8v-21.6l4.8466,4.92886l5.14951,-4.92886l5.45243,4.92886l5.30097,-4.92886l5.30097,4.92886l5.14951,-4.92886v21.6z" fill="#fbff00" stroke="#0e66ff" stroke-width="1"/><path d="M219.40001,160.4v-7.2l1.61553,1.64295l1.71651,-1.64295l1.81748,1.64295l1.76699,-1.64295l1.76699,1.64295l1.71651,-1.64295v7.2z" fill="#e9ec00" stroke="#0e66ff" stroke-width="1"/><path d="M248.80001,160.2v-7.2l1.61553,1.64296l1.71651,-1.64296l1.81748,1.64296l1.76699,-1.64296l1.76699,1.64296l1.71651,-1.64296v7.2z" fill="#e9ec00" stroke="#0e66ff" stroke-width="1"/><path d="M220.00001,206.6v-7.2l1.61553,1.64296l1.71651,-1.64296l1.81748,1.64296l1.76699,-1.64296l1.76699,1.64296l1.71651,-1.64296v7.2z" fill="#e9ec00" stroke="#0e66ff" stroke-width="1"/><path d="M249.40001,206.4v-7.2l1.61553,1.64296l1.71651,-1.64296l1.81748,1.64296l1.76699,-1.64296l1.76699,1.64296l1.7165,-1.64296v7.2z" fill="#e9ec00" stroke="#0e66ff" stroke-width="1"/></g></g></svg>