<svg version="1.1" xmlns="http://www.w3.org/2000/svg" xmlns:xlink="http://www.w3.org/1999/xlink" width="53.27685" height="93.13728" viewBox="0,0,53.27685,93.13728"><defs><radialGradient cx="230.87515" cy="164.22015" r="4.59167" gradientUnits="userSpaceOnUse" id="color-1"><stop offset="0" stop-color="#ffffff"/><stop offset="1" stop-color="#00ff1b"/></radialGradient><radialGradient cx="224.28877" cy="166.14118" r="4.59167" gradientUnits="userSpaceOnUse" id="color-2"><stop offset="0" stop-color="#ffffff"/><stop offset="1" stop-color="#93ff00"/></radialGradient><radialGradient cx="230.05186" cy="172.17869" r="4.59167" gradientUnits="userSpaceOnUse" id="color-3"><stop offset="0" stop-color="#ffffff"/><stop offset="1" stop-color="#00ff1b"/></radialGradient><radialGradient cx="223.46547" cy="174.51137" r="4.59167" gradientUnits="userSpaceOnUse" id="color-4"><stop offset="0" stop-color="#ffffff"/><stop offset="1" stop-color="#00a911"/></radialGradient><radialGradient cx="253.79026" cy="166.82726" r="4.59167" gradientUnits="userSpaceOnUse" id="color-5"><stop offset="0" stop-color="#ffffff"/><stop offset="1" stop-color="#00a911"/></radialGradient><radialGradient cx="238.97091" cy="165.86675" r="4.59167" gradientUnits="userSpaceOnUse" id="color-6"><stop offset="0" stop-color="#ffffff"/><stop offset="1" stop-color="#00ff1b"/></radialGradient><radialGradient cx="235.26607" cy="170.5321" r="4.59167" gradientUnits="userSpaceOnUse" id="color-7"><stop offset="0" stop-color="#ffffff"/><stop offset="1" stop-color="#00a911"/></radialGradient><radialGradient cx="246.5178" cy="168.0622" r="4.59167" gradientUnits="userSpaceOnUse" id="color-8"><stop offset="0" stop-color="#ffffff"/><stop offset="1" stop-color="#00a911"/></radialGradient><radialGradient cx="241.4408" cy="173.41364" r="4.59167" gradientUnits="userSpaceOnUse" id="color-9"><stop offset="0" stop-color="#ffffff"/><stop offset="1" stop-color="#93ff00"/></radialGradient><radialGradient cx="249.26213" cy="170.66931" r="4.59167" gradientUnits="userSpaceOnUse" id="color-10"><stop offset="0" stop-color="#ffffff"/><stop offset="1" stop-color="#93ff00"/></radialGradient><radialGradient cx="247.88996" cy="176.29518" r="4.59167" gradientUnits="userSpaceOnUse" id="color-11"><stop offset="0" stop-color="#ffffff"/><stop offset="1" stop-color="#00ff1b"/></radialGradient><radialGradient cx="235.40329" cy="176.84404" r="4.59167" gradientUnits="userSpaceOnUse" id="color-12"><stop offset="0" stop-color="#ffffff"/><stop offset="1" stop-color="#93ff00"/></radialGradient><radialGradient cx="230.60072" cy="179.72558" r="4.59167" gradientUnits="userSpaceOnUse" id="color-13"><stop offset="0" stop-color="#ffffff"/><stop offset="1" stop-color="#00a911"/></radialGradient><radialGradient cx="225.52372" cy="182.33269" r="4.59167" gradientUnits="userSpaceOnUse" id="color-14"><stop offset="0" stop-color="#ffffff"/><stop offset="1" stop-color="#93ff00"/></radialGradient><radialGradient cx="251.18315" cy="183.15599" r="4.59167" gradientUnits="userSpaceOnUse" id="color-15"><stop offset="0" stop-color="#ffffff"/><stop offset="1" stop-color="#00a911"/></radialGradient><radialGradient cx="243.36183" cy="179.45115" r="4.59167" gradientUnits="userSpaceOnUse" id="color-16"><stop offset="0" stop-color="#ffffff"/><stop offset="1" stop-color="#93ff00"/></radialGradient><radialGradient cx="239.24534" cy="183.01877" r="4.59167" gradientUnits="userSpaceOnUse" id="color-17"><stop offset="0" stop-color="#ffffff"/><stop offset="1" stop-color="#00ff1b"/></radialGradient><radialGradient cx="241.85245" cy="187.82134" r="4.59167" gradientUnits="userSpaceOnUse" id="color-18"><stop offset="0" stop-color="#ffffff"/><stop offset="1" stop-color="#00a911"/></radialGradient><radialGradient cx="233.48226" cy="185.62588" r="4.59167" gradientUnits="userSpaceOnUse" id="color-19"><stop offset="0" stop-color="#ffffff"/><stop offset="1" stop-color="#00ff1b"/></radialGradient><radialGradient cx="236.77545" cy="192.48669" r="4.59167" gradientUnits="userSpaceOnUse" id="color-20"><stop offset="0" stop-color="#ffffff"/><stop offset="1" stop-color="#93ff00"/></radialGradient><radialGradient cx="227.85639" cy="188.91907" r="4.59167" gradientUnits="userSpaceOnUse" id="color-21"><stop offset="0" stop-color="#ffffff"/><stop offset="1" stop-color="#00a911"/></radialGradient><radialGradient cx="230.60072" cy="196.46596" r="4.59167" gradientUnits="userSpaceOnUse" id="color-22"><stop offset="0" stop-color="#ffffff"/><stop offset="1" stop-color="#93ff00"/></radialGradient><radialGradient cx="240.61751" cy="195.23102" r="4.59167" gradientUnits="userSpaceOnUse" id="color-23"><stop offset="0" stop-color="#ffffff"/><stop offset="1" stop-color="#00ff1b"/></radialGradient><radialGradient cx="236.50102" cy="199.48472" r="4.59167" gradientUnits="userSpaceOnUse" id="color-24"><stop offset="0" stop-color="#ffffff"/><stop offset="1" stop-color="#00a911"/></radialGradient></defs><g transform="translate(-213.39493,-146.2147)"><g stroke-miterlimit="10"><path d="M215.96164,236.85198v-88.0706h48.21014v88.0706z" fill="#585858" stroke="#b5b5b5" stroke-width="5"/><text transform="translate(227.56255,220.21061) scale(0.1811,0.1811)" font-size="40" xml:space="preserve" fill="#ffffff" stroke="none" stroke-width="1" font-family="Sans Serif" font-weight="normal" text-anchor="start"><tspan x="0" dy="0">green</tspan></text><text transform="translate(220.31255,229.28842) scale(0.15633,0.15633)" font-size="40" xml:space="preserve" fill="#ffffff" stroke="none" stroke-width="1" font-family="Sans Serif" font-weight="normal" text-anchor="start"><tspan x="0" dy="0">click to equip</tspan></text><path d="M215.89493,211.2853v-62.5706h48.21014v62.5706z" fill="#ffffff" stroke="#b5b5b5" stroke-width="5"/><g stroke="#000000" stroke-width="1.5"><path d="M236.69721,170.2125v-15.14444h4.51111v15.14444z" fill="#9a5800"/><g><path d="M227.91667,167.15139c0,-2.53591 2.05576,-4.59167 4.59167,-4.59167c2.53591,0 4.59167,2.05576 4.59167,4.59167c0,2.53591 -2.05576,4.59167 -4.59167,4.59167c-2.53591,0 -4.59167,-2.05576 -4.59167,-4.59167z" fill="url(#color-1)"/><path d="M221.63333,168.27917c0,-2.53591 2.05576,-4.59167 4.59167,-4.59167c2.53591,0 4.59167,2.05576 4.59167,4.59167c0,2.53591 -2.05576,4.59167 -4.59167,4.59167c-2.53591,0 -4.59167,-2.05576 -4.59167,-4.59167z" fill="url(#color-2)"/><path d="M227.1111,173.91806c0,-2.53591 2.05576,-4.59167 4.59167,-4.59167c2.53591,0 4.59167,2.05576 4.59167,4.59167c0,2.53591 -2.05576,4.59167 -4.59167,4.59167c-2.53591,0 -4.59167,-2.05576 -4.59167,-4.59167z" fill="url(#color-3)"/><path d="M220.66667,176.65694c0,-2.53591 2.05576,-4.59167 4.59167,-4.59167c2.53591,0 4.59167,2.05576 4.59167,4.59167c0,2.53591 -2.05576,4.59167 -4.59167,4.59167c-2.53591,0 -4.59167,-2.05576 -4.59167,-4.59167z" fill="url(#color-4)"/><path d="M250.15,169.89028c0,-2.53591 2.05576,-4.59167 4.59167,-4.59167c2.53591,0 4.59167,2.05576 4.59167,4.59167c0,2.53591 -2.05576,4.59167 -4.59167,4.59167c-2.53591,0 -4.59167,-2.05576 -4.59167,-4.59167z" fill="url(#color-5)"/><path d="M237.09999,166.99028c0,-2.53591 2.05576,-4.59167 4.59167,-4.59167c2.53591,0 4.59167,2.05576 4.59167,4.59167c0,2.53591 -2.05576,4.59167 -4.59167,4.59167c-2.53591,0 -4.59167,-2.05576 -4.59167,-4.59167z" fill="url(#color-6)"/><path d="M232.91111,171.98472c0,-2.53591 2.05576,-4.59167 4.59167,-4.59167c2.53591,0 4.59167,2.05576 4.59167,4.59167c0,2.53591 -2.05576,4.59167 -4.59167,4.59167c-2.53591,0 -4.59167,-2.05576 -4.59167,-4.59167z" fill="url(#color-7)"/><path d="M243.86667,169.89028c0,-2.53591 2.05576,-4.59167 4.59167,-4.59167c2.53591,0 4.59167,2.05576 4.59167,4.59167c0,2.53591 -2.05576,4.59167 -4.59167,4.59167c-2.53591,0 -4.59167,-2.05576 -4.59167,-4.59167z" fill="url(#color-8)"/><path d="M239.35555,174.88472c0,-2.53591 2.05576,-4.59167 4.59167,-4.59167c2.53591,0 4.59167,2.05576 4.59167,4.59167c0,2.53591 -2.05576,4.59167 -4.59167,4.59167c-2.53591,0 -4.59167,-2.05576 -4.59167,-4.59167z" fill="url(#color-9)"/><path d="M246.60555,173.59583c0,-2.53591 2.05576,-4.59167 4.59167,-4.59167c2.53591,0 4.59167,2.05576 4.59167,4.59167c0,2.53591 -2.05576,4.59167 -4.59167,4.59167c-2.53591,0 -4.59167,-2.05576 -4.59167,-4.59167z" fill="url(#color-10)"/><path d="M244.83332,178.42917c0,-2.53591 2.05576,-4.59167 4.59167,-4.59167c2.53591,0 4.59167,2.05576 4.59167,4.59167c0,2.53591 -2.05576,4.59167 -4.59167,4.59167c-2.53591,0 -4.59167,-2.05576 -4.59167,-4.59167z" fill="url(#color-11)"/><path d="M232.75,178.59028c0,-2.53591 2.05576,-4.59167 4.59167,-4.59167c2.53591,0 4.59167,2.05576 4.59167,4.59167c0,2.53591 -2.05576,4.59167 -4.59167,4.59167c-2.53591,0 -4.59167,-2.05576 -4.59167,-4.59167z" fill="url(#color-12)"/><path d="M226.78889,182.61806c0,-2.53591 2.05576,-4.59167 4.59167,-4.59167c2.53591,0 4.59167,2.05576 4.59167,4.59167c0,2.53591 -2.05576,4.59167 -4.59167,4.59167c-2.53591,0 -4.59167,-2.05576 -4.59167,-4.59167z" fill="url(#color-13)"/><path d="M222.92222,184.7125c0,-2.53591 2.05576,-4.59167 4.59167,-4.59167c2.53591,0 4.59167,2.05576 4.59167,4.59167c0,2.53591 -2.05576,4.59167 -4.59167,4.59167c-2.53591,0 -4.59167,-2.05576 -4.59167,-4.59167z" fill="url(#color-14)"/><path d="M244.51111,185.19583c0,-2.53591 2.05576,-4.59167 4.59167,-4.59167c2.53591,0 4.59167,2.05576 4.59167,4.59167c0,2.53591 -2.05576,4.59167 -4.59167,4.59167c-2.53591,0 -4.59167,-2.05576 -4.59167,-4.59167z" fill="url(#color-15)"/><path d="M240.48332,181.97361c0,-2.53591 2.05576,-4.59167 4.59167,-4.59167c2.53591,0 4.59167,2.05576 4.59167,4.59167c0,2.53591 -2.05576,4.59167 -4.59167,4.59167c-2.53591,0 -4.59167,-2.05576 -4.59167,-4.59167z" fill="url(#color-16)"/><path d="M235.16667,186.48472c0,-2.53591 2.05576,-4.59167 4.59167,-4.59167c2.53591,0 4.59167,2.05576 4.59167,4.59167c0,2.53591 -2.05576,4.59167 -4.59167,4.59167c-2.53591,0 -4.59167,-2.05576 -4.59167,-4.59167z" fill="url(#color-17)"/><path d="M240,190.02917c0,-2.53591 2.05576,-4.59167 4.59167,-4.59167c2.53591,0 4.59167,2.05576 4.59167,4.59167c0,2.53591 -2.05576,4.59167 -4.59167,4.59167c-2.53591,0 -4.59167,-2.05576 -4.59167,-4.59167z" fill="url(#color-18)"/><path d="M231.3,187.93472c0,-2.53591 2.05576,-4.59167 4.59167,-4.59167c2.53591,0 4.59167,2.05576 4.59167,4.59167c0,2.53591 -2.05576,4.59167 -4.59167,4.59167c-2.53591,0 -4.59167,-2.05576 -4.59167,-4.59167z" fill="url(#color-19)"/><path d="M233.87778,193.89583c0,-2.53591 2.05576,-4.59167 4.59167,-4.59167c2.53591,0 4.59167,2.05576 4.59167,4.59167c0,2.53591 -2.05576,4.59167 -4.59167,4.59167c-2.53591,0 -4.59167,-2.05576 -4.59167,-4.59167z" fill="url(#color-20)"/><path d="M225.5,190.5125c0,-2.53591 2.05576,-4.59167 4.59167,-4.59167c2.53591,0 4.59167,2.05576 4.59167,4.59167c0,2.53591 -2.05576,4.59167 -4.59167,4.59167c-2.53591,0 -4.59167,-2.05576 -4.59167,-4.59167z" fill="url(#color-21)"/><path d="M228.4,198.56806c0,-2.53591 2.05576,-4.59167 4.59167,-4.59167c2.53591,0 4.59167,2.05576 4.59167,4.59167c0,2.53591 -2.05576,4.59167 -4.59167,4.59167c-2.53591,0 -4.59167,-2.05576 -4.59167,-4.59167z" fill="url(#color-22)"/><path d="M237.74444,197.7625c0,-2.53591 2.05576,-4.59167 4.59167,-4.59167c2.53591,0 4.59167,2.05576 4.59167,4.59167c0,2.53591 -2.05576,4.59167 -4.59167,4.59167c-2.53591,0 -4.59167,-2.05576 -4.59167,-4.59167z" fill="url(#color-23)"/><path d="M233.87778,201.14583c0,-2.53591 2.05576,-4.59167 4.59167,-4.59167c2.53591,0 4.59167,2.05576 4.59167,4.59167c0,2.53591 -2.05576,4.59167 -4.59167,4.59167c-2.53591,0 -4.59167,-2.05576 -4.59167,-4.59167z" fill="url(#color-24)"/></g><path d="M227.675,158.12917v-3.86667c0,0 4.04035,0.80556 6.76667,0.80556c4.16452,0 15.78889,0 15.78889,0v3.86667c0,0 -13.13538,0 -17.23889,0c-2.27888,0 -5.31667,-0.80556 -5.31667,-0.80556z" fill="#9a5800"/></g></g></g></svg>