<svg version="1.1" xmlns="http://www.w3.org/2000/svg" xmlns:xlink="http://www.w3.org/1999/xlink" width="231.40819" height="221.7352" viewBox="0,0,231.40819,221.7352"><defs><linearGradient x1="237.76705" y1="152.23778" x2="237.76705" y2="254.45064" gradientUnits="userSpaceOnUse" id="color-1"><stop offset="0" stop-color="#4eab0c"/><stop offset="1" stop-color="#10480c"/></linearGradient><linearGradient x1="244.58244" y1="148.98111" x2="244.58244" y2="245.48919" gradientUnits="userSpaceOnUse" id="color-2"><stop offset="0" stop-color="#a4ff63"/><stop offset="1" stop-color="#edff95"/></linearGradient><linearGradient x1="244.58281" y1="181.00109" x2="244.58281" y2="232.07834" gradientUnits="userSpaceOnUse" id="color-3"><stop offset="0" stop-color="#772c00"/><stop offset="1" stop-color="#784c35"/></linearGradient></defs><g transform="translate(-124.73692,-77.3052)"><g stroke-miterlimit="10"><g stroke="none" stroke-width="0"><path d="M195.66085,203.34421c0.30075,-24.74828 4.62025,-30.20442 15.43239,-46.88493c7.30942,-20.62117 2.756,-50.58229 25.47078,-50.21727c21.07944,0.33877 19.38826,29.23348 27.48906,49.57579c11.65264,17.93276 15.51945,24.81096 15.8202,47.52638c0.37366,28.22166 -18.85159,51.10643 -42.1062,51.10643c-23.25464,0 -42.44919,-22.8842 -42.1062,-51.10643z" fill="url(#color-1)"/><path d="M204.82628,197.23513c0.28397,-23.367 4.36237,-28.51862 14.57108,-44.26814c6.90146,-19.47024 2.60217,-47.75917 24.04918,-47.41448c19.90292,0.31986 18.30616,27.60189 25.95484,46.80883c11.00229,16.93188 14.65326,23.42622 14.93723,44.8738c0.35279,26.64653 -17.79944,48.25402 -39.75613,48.25402c-21.95673,0 -40.07998,-21.60696 -39.75613,-48.25402z" fill="url(#color-2)"/><path d="M261.76316,206.53973c0,14.10457 -7.69188,25.53861 -17.18032,25.53861c-9.48844,0 -17.18032,-11.43404 -17.18032,-25.53861c0,-14.10457 7.69188,-25.53861 17.18032,-25.53861c9.48844,0 17.18032,11.43404 17.18032,25.53861z" fill="url(#color-3)"/></g><text transform="translate(161.55782,288.0504) scale(0.8792,0.8792)" font-size="40" xml:space="preserve" fill="#9c9c9c" stroke="#000000" stroke-width="1" font-family="Sans Serif" font-weight="400" text-anchor="start"><tspan x="0" dy="0">+25 coins</tspan></text><text transform="translate(125.17653,257.64377) scale(0.8792,0.8792)" font-size="40" xml:space="preserve" fill="#9c9c9c" stroke="#000000" stroke-width="1" font-family="Sans Serif" font-weight="400" text-anchor="start"><tspan x="0" dy="0">0.8% CHANCE</tspan></text><text transform="translate(125.26446,115.5504) scale(0.8792,0.8792)" font-size="40" xml:space="preserve" fill="#9c9c9c" stroke="#000000" stroke-width="1" font-family="Sans Serif" font-weight="400" text-anchor="start"><tspan x="0" dy="0">3X AVOCADO!</tspan></text></g></g></svg>