<svg version="1.1" xmlns="http://www.w3.org/2000/svg" xmlns:xlink="http://www.w3.org/1999/xlink" width="53.21014" height="67.5706" viewBox="0,0,53.21014,67.5706"><defs><linearGradient x1="239.99982" y1="174.44489" x2="239.99982" y2="207.8907" gradientUnits="userSpaceOnUse" id="color-1"><stop offset="0" stop-color="#00ffff"/><stop offset="1" stop-color="#0051c9"/></linearGradient><linearGradient x1="239.99982" y1="174.44489" x2="239.99982" y2="207.8907" gradientUnits="userSpaceOnUse" id="color-2"><stop offset="0" stop-color="#008f8f"/><stop offset="1" stop-color="#002b6b"/></linearGradient><linearGradient x1="230.78817" y1="158.24913" x2="232.98931" y2="164.56155" gradientUnits="userSpaceOnUse" id="color-3"><stop offset="0" stop-color="#0041a3"/><stop offset="1" stop-color="#00ffff"/></linearGradient><linearGradient x1="230.51053" y1="172.34623" x2="232.71167" y2="166.03381" gradientUnits="userSpaceOnUse" id="color-4"><stop offset="0" stop-color="#0041a3"/><stop offset="1" stop-color="#00ffff"/></linearGradient><linearGradient x1="249.92364" y1="159.04914" x2="247.7225" y2="165.36156" gradientUnits="userSpaceOnUse" id="color-5"><stop offset="0" stop-color="#0041a3"/><stop offset="1" stop-color="#00ffff"/></linearGradient><linearGradient x1="250.20128" y1="173.14623" x2="248.00014" y2="166.83381" gradientUnits="userSpaceOnUse" id="color-6"><stop offset="0" stop-color="#0041a3"/><stop offset="1" stop-color="#00ffff"/></linearGradient></defs><g transform="translate(-213.39493,-146.2147)"><g stroke-miterlimit="10"><path d="M215.89493,211.2853v-62.5706h48.21014v62.5706z" fill="#ffffff" stroke="#b5b5b5" stroke-width="5" stroke-linecap="butt"/><g><path d="M228.7,165.6c0,0 4.42016,-3.42045 8.99474,1.80545c4.23758,4.84092 2.40526,9.19455 2.40526,9.19455" fill="none" stroke="#002457" stroke-width="2.5" stroke-linecap="round"/><path d="M240.49406,177.8c0,0 -1.83232,-4.35363 2.40526,-9.19455c4.57458,-5.2259 8.99474,-1.80545 8.99474,-1.80545" fill="none" stroke="#002457" stroke-width="2.5" stroke-linecap="round"/><path d="M223.2769,191.16779c-0.15133,-12.6367 4.92567,-13.83191 11.7149,-15.96011c1.58114,-0.49563 3.26336,1.20459 5.008,1.20459c1.60613,0 3.15937,-1.74097 4.62955,-1.3183c6.98388,2.00783 11.94447,2.08542 12.09336,16.0738c0.11095,10.42321 -2.30774,9.71612 -5.94123,12.78373c-2.03437,1.71752 -4.0303,3.10957 -6.72352,3.70117c-1.16079,0.25497 -2.8208,-1.72936 -4.05816,-1.72936c-1.09572,0 -2.16683,1.86203 -3.20375,1.66084c-2.32547,-0.45119 -4.47897,-1.38423 -6.35237,-2.69099c-4.33229,-3.02194 -7.02986,-2.29259 -7.16679,-13.72536z" fill="url(#color-1)" stroke="url(#color-2)" stroke-width="1" stroke-linecap="butt"/><g stroke="#15006b" stroke-width="1.5" stroke-linecap="butt"><path d="M228.61828,165.80434c0,0 -0.46363,-3.12268 1.86344,-6.12739c2.2737,-2.93578 5.44844,-3.90922 5.44844,-3.90922c0,0 1.16274,3.5943 -1.26198,6.85416c-2.19006,2.94439 -6.0499,3.18244 -6.0499,3.18244z" fill="url(#color-3)"/><path d="M228.34063,164.79103c0,0 3.85984,0.23805 6.0499,3.18244c2.42472,3.25986 1.26198,6.85416 1.26198,6.85416c0,0 -3.17474,-0.97344 -5.44844,-3.90922c-2.32708,-3.00471 -1.86344,-6.12738 -1.86344,-6.12738z" fill="url(#color-4)"/></g><g stroke="#15006b" stroke-width="1.5" stroke-linecap="butt"><path d="M252.09354,166.60433c0,0 -3.85985,-0.23805 -6.0499,-3.18244c-2.42471,-3.25986 -1.26199,-6.85416 -1.26199,-6.85416c0,0 3.17473,0.97344 5.44844,3.90922c2.32708,3.00471 1.86344,6.12739 1.86344,6.12739z" fill="url(#color-5)"/><path d="M252.37118,165.59103c0,0 0.46364,3.12268 -1.86344,6.12739c-2.27371,2.93578 -5.44844,3.90922 -5.44844,3.90922c0,0 -1.16274,-3.5943 1.26198,-6.85416c2.19006,-2.94439 6.0499,-3.18243 6.0499,-3.18243z" fill="url(#color-6)"/></g></g></g></g></svg>