<svg version="1.1" xmlns="http://www.w3.org/2000/svg" xmlns:xlink="http://www.w3.org/1999/xlink" width="53.27682" height="93.13726" viewBox="0,0,53.27682,93.13726"><defs><linearGradient x1="240.00004" y1="180.46472" x2="240.00004" y2="209.53532" gradientUnits="userSpaceOnUse" id="color-1"><stop offset="0" stop-color="#fff652" stop-opacity="0"/><stop offset="1" stop-color="#fff652"/></linearGradient><linearGradient x1="240.00004" y1="179.53532" x2="240.00004" y2="150.46472" gradientUnits="userSpaceOnUse" id="color-2"><stop offset="0" stop-color="#fff652" stop-opacity="0"/><stop offset="1" stop-color="#fff652"/></linearGradient><radialGradient cx="240.00004" cy="180.00002" r="31.2853" gradientUnits="userSpaceOnUse" id="color-3"><stop offset="0" stop-color="#ffffff"/><stop offset="1" stop-color="#005dff"/></radialGradient></defs><g transform="translate(-213.39496,-146.21472)"><g stroke-miterlimit="10"><path d="M215.96165,236.85198v-88.0706h48.21014v88.0706z" fill="#fff652" stroke="#005dff" stroke-width="5" stroke-linecap="butt"/><text transform="translate(225.68756,220.21061) scale(0.1811,0.1811)" font-size="40" xml:space="preserve" fill="#005dff" stroke="none" stroke-width="1" stroke-linecap="butt" font-family="Sans Serif" font-weight="normal" text-anchor="start"><tspan x="0" dy="0">diamond</tspan></text><text transform="translate(220.31256,229.28842) scale(0.15633,0.15633)" font-size="40" xml:space="preserve" fill="#005dff" stroke="none" stroke-width="1" stroke-linecap="butt" font-family="Sans Serif" font-weight="normal" text-anchor="start"><tspan x="0" dy="0">click to equip</tspan></text><path d="M215.89497,211.28532v-62.5706h48.21014v62.5706z" fill="#ffffff" stroke="#b5b5b5" stroke-width="5" stroke-linecap="butt"/><path d="M215.89497,209.53532v-29.0706h48.21014v29.0706z" fill="url(#color-1)" stroke="none" stroke-width="0" stroke-linecap="butt"/><path d="M264.1051,150.46472v29.0706h-48.21014v-29.0706z" fill="url(#color-2)" stroke="none" stroke-width="0" stroke-linecap="butt"/><path d="M215.89497,211.28532v-62.5706h48.21014v62.5706z" fill="none" stroke="url(#color-3)" stroke-width="5" stroke-linecap="butt"/><g stroke="#0044b9"><path d="M221.31808,174.49919l2.7743,-7.5361l31.43124,0.0768l3.15832,7.4593l-18.68193,18.68193z" fill="#0095ff" stroke-width="2.5" stroke-linecap="butt"/><g fill="none" stroke-width="0.5" stroke-linecap="round"><path d="M257.7415,174.65279h-35.3294"/><path d="M239.92321,191.08864l-13.05652,-17.35749l1.84327,-5.37621"/><path d="M240.38403,191.49826l-9.06276,-17.30628l1.99688,-5.99064"/><path d="M240.53763,191.95907l-4.9666,-18.12552l1.68967,-5.37621"/><path d="M251.59727,168.35494l1.53606,5.83703l-12.95411,16.48705"/><path d="M248.06433,168.66216l0.76803,5.37621l-8.70434,16.28224"/><path d="M242.99533,168.04773l1.84327,5.37621l-4.76179,17.20388"/><path d="M240.23042,192.01028l-0.30721,-25.1914"/></g></g><g stroke="#0044b9"><path d="M221.85141,201.03698l0.75468,-2.05l8.55005,0.02089l0.85914,2.02911l-5.08193,5.08193z" fill="#0095ff" stroke-width="1" stroke-linecap="butt"/><g fill="none" stroke-width="0.5" stroke-linecap="round"><path d="M231.75945,201.07877h-9.61044"/><path d="M226.91245,205.54971l-3.55168,-4.72165l0.50141,-1.46246"/><path d="M227.03781,205.66114l-2.46529,-4.70772l0.5432,-1.6296"/><path d="M227.07959,205.78649l-1.35103,-4.93057l0.45963,-1.46246"/><path d="M230.08807,199.3656l0.41784,1.58781l-3.52383,4.48487"/><path d="M229.12703,199.44917l0.20892,1.46246l-2.36779,4.42916"/><path d="M227.74814,199.28203l0.50141,1.46246l-1.29532,4.67987"/><path d="M226.91245,198.94776l0.08357,6.85266"/></g></g><g stroke="#0044b9"><path d="M248.71808,201.43698l0.75467,-2.04999l8.55005,0.02089l0.85914,2.0291l-5.08193,5.08193z" fill="#0095ff" stroke-width="1" stroke-linecap="butt"/><g fill="none" stroke-width="0.5" stroke-linecap="round"><path d="M258.62612,201.47877h-9.61044"/><path d="M253.77913,205.94972l-3.55169,-4.72165l0.50141,-1.46246"/><path d="M253.90446,206.06114l-2.46528,-4.70772l0.5432,-1.6296"/><path d="M253.94625,206.18649l-1.35103,-4.93057l0.45963,-1.46246"/><path d="M256.95474,199.76561l0.41784,1.58781l-3.52383,4.48487"/><path d="M255.9937,199.84917l0.20893,1.46246l-2.36779,4.42916"/><path d="M254.61481,199.68204l0.50141,1.46246l-1.29532,4.67986"/><path d="M253.77912,199.34776l0.08357,6.85265"/></g></g><g stroke="#0044b9"><path d="M221.85142,155.03698l0.75467,-2.04999l8.55005,0.02089l0.85914,2.0291l-5.08193,5.08193z" fill="#0095ff" stroke-width="1" stroke-linecap="butt"/><g fill="none" stroke-width="0.5" stroke-linecap="round"><path d="M222.14902,155.07877h9.61044"/><path d="M226.91245,159.54971l-3.55168,-4.72165l0.50141,-1.46246"/><path d="M227.03781,159.66114l-2.46528,-4.70772l0.54319,-1.6296"/><path d="M227.07959,159.78649l-1.35103,-4.93057l0.45963,-1.46246"/><path d="M230.08808,153.3656l0.41784,1.58781l-3.52383,4.48487"/><path d="M229.12703,153.44917l0.20893,1.46246l-2.36779,4.42916"/><path d="M227.74814,153.28204l0.50142,1.46246l-1.29532,4.67986"/><path d="M226.91245,152.94776l0.08357,6.85265"/></g></g><g stroke="#0044b9"><path d="M248.71808,155.43698l0.75467,-2.04999l8.55004,0.02089l0.85914,2.02911l-5.08193,5.08193z" fill="#0095ff" stroke-width="1" stroke-linecap="butt"/><g fill="none" stroke-width="0.5" stroke-linecap="round"><path d="M249.01568,155.47877h9.61044"/><path d="M253.77911,159.94972l-3.55168,-4.72165l0.50142,-1.46246"/><path d="M253.90447,160.06114l-2.46528,-4.70772l0.54319,-1.6296"/><path d="M253.94625,160.18649l-1.35103,-4.93058l0.45963,-1.46245"/><path d="M256.95474,153.76561l0.41784,1.58781l-3.52383,4.48487"/><path d="M255.9937,153.84917l0.20892,1.46246l-2.36779,4.42915"/><path d="M254.61481,153.68204l0.50142,1.46245l-1.29532,4.67987"/><path d="M253.77912,153.34776l0.08357,6.85265"/></g></g></g></g></svg>