<svg version="1.1" xmlns="http://www.w3.org/2000/svg" xmlns:xlink="http://www.w3.org/1999/xlink" width="251.53362" height="236.7352" viewBox="0,0,251.53362,236.7352"><defs><radialGradient cx="208.19723" cy="124.27082" r="16.94168" gradientUnits="userSpaceOnUse" id="color-1"><stop offset="0" stop-color="#ffffff"/><stop offset="1" stop-color="#cc45ff"/></radialGradient><radialGradient cx="180.85275" cy="130.21526" r="16.94168" gradientUnits="userSpaceOnUse" id="color-2"><stop offset="0" stop-color="#ffffff"/><stop offset="1" stop-color="#4546ff"/></radialGradient><radialGradient cx="203.44167" cy="149.83194" r="16.94168" gradientUnits="userSpaceOnUse" id="color-3"><stop offset="0" stop-color="#ffffff"/><stop offset="1" stop-color="#cc45ff"/></radialGradient><radialGradient cx="180.85275" cy="163.50418" r="16.94168" gradientUnits="userSpaceOnUse" id="color-4"><stop offset="0" stop-color="#ffffff"/><stop offset="1" stop-color="#6f258a"/></radialGradient><radialGradient cx="292.6083" cy="133.1875" r="16.94168" gradientUnits="userSpaceOnUse" id="color-5"><stop offset="0" stop-color="#ffffff"/><stop offset="1" stop-color="#6f258a"/></radialGradient><radialGradient cx="237.32499" cy="125.45974" r="16.94168" gradientUnits="userSpaceOnUse" id="color-6"><stop offset="0" stop-color="#ffffff"/><stop offset="1" stop-color="#cc45ff"/></radialGradient><radialGradient cx="224.24723" cy="145.67082" r="16.94168" gradientUnits="userSpaceOnUse" id="color-7"><stop offset="0" stop-color="#ffffff"/><stop offset="1" stop-color="#6f258a"/></radialGradient><radialGradient cx="263.48054" cy="137.94306" r="16.94168" gradientUnits="userSpaceOnUse" id="color-8"><stop offset="0" stop-color="#ffffff"/><stop offset="1" stop-color="#6f258a"/></radialGradient><radialGradient cx="246.24167" cy="156.96526" r="16.94168" gradientUnits="userSpaceOnUse" id="color-9"><stop offset="0" stop-color="#ffffff"/><stop offset="1" stop-color="#4546ff"/></radialGradient><radialGradient cx="274.77498" cy="150.42638" r="16.94168" gradientUnits="userSpaceOnUse" id="color-10"><stop offset="0" stop-color="#ffffff"/><stop offset="1" stop-color="#4546ff"/></radialGradient><radialGradient cx="269.42498" cy="165.2875" r="16.94168" gradientUnits="userSpaceOnUse" id="color-11"><stop offset="0" stop-color="#ffffff"/><stop offset="1" stop-color="#cc45ff"/></radialGradient><radialGradient cx="223.05831" cy="167.07082" r="16.94168" gradientUnits="userSpaceOnUse" id="color-12"><stop offset="0" stop-color="#ffffff"/><stop offset="1" stop-color="#4546ff"/></radialGradient><radialGradient cx="208.19723" cy="180.14862" r="16.94168" gradientUnits="userSpaceOnUse" id="color-13"><stop offset="0" stop-color="#ffffff"/><stop offset="1" stop-color="#6f258a"/></radialGradient><radialGradient cx="186.20275" cy="192.63194" r="16.94168" gradientUnits="userSpaceOnUse" id="color-14"><stop offset="0" stop-color="#ffffff"/><stop offset="1" stop-color="#4546ff"/></radialGradient><radialGradient cx="275.36942" cy="203.33194" r="16.94168" gradientUnits="userSpaceOnUse" id="color-15"><stop offset="0" stop-color="#ffffff"/><stop offset="1" stop-color="#6f258a"/></radialGradient><radialGradient cx="253.37498" cy="181.93194" r="16.94168" gradientUnits="userSpaceOnUse" id="color-16"><stop offset="0" stop-color="#ffffff"/><stop offset="1" stop-color="#4546ff"/></radialGradient><radialGradient cx="243.26943" cy="194.41526" r="16.94168" gradientUnits="userSpaceOnUse" id="color-17"><stop offset="0" stop-color="#ffffff"/><stop offset="1" stop-color="#6f258a"/></radialGradient><radialGradient cx="250.40275" cy="211.65418" r="16.94168" gradientUnits="userSpaceOnUse" id="color-18"><stop offset="0" stop-color="#ffffff"/><stop offset="1" stop-color="#6f258a"/></radialGradient><radialGradient cx="218.89723" cy="200.95418" r="16.94168" gradientUnits="userSpaceOnUse" id="color-19"><stop offset="0" stop-color="#ffffff"/><stop offset="1" stop-color="#cc45ff"/></radialGradient><radialGradient cx="229.00275" cy="223.54306" r="16.94168" gradientUnits="userSpaceOnUse" id="color-20"><stop offset="0" stop-color="#ffffff"/><stop offset="1" stop-color="#4546ff"/></radialGradient><radialGradient cx="198.09167" cy="215.22082" r="16.94168" gradientUnits="userSpaceOnUse" id="color-21"><stop offset="0" stop-color="#ffffff"/><stop offset="1" stop-color="#6f258a"/></radialGradient><radialGradient cx="206.41387" cy="241.37638" r="16.94168" gradientUnits="userSpaceOnUse" id="color-22"><stop offset="0" stop-color="#ffffff"/><stop offset="1" stop-color="#4546ff"/></radialGradient><radialGradient cx="243.86387" cy="237.21526" r="16.94168" gradientUnits="userSpaceOnUse" id="color-23"><stop offset="0" stop-color="#ffffff"/><stop offset="1" stop-color="#cc45ff"/></radialGradient><radialGradient cx="229.59723" cy="250.29306" r="16.94168" gradientUnits="userSpaceOnUse" id="color-24"><stop offset="0" stop-color="#ffffff"/><stop offset="1" stop-color="#6f258a"/></radialGradient></defs><g transform="translate(-117.23697,-62.3052)"><g stroke="#000000" stroke-miterlimit="10"><g stroke-width="5"><path d="M227.81387,143.8875v-55.87776h16.64444v55.87776z" fill="#9a5800"/><g><path d="M195.41667,132.59306c0,-9.35663 7.58505,-16.94168 16.94168,-16.94168c9.35663,0 16.94168,7.58505 16.94168,16.94168c0,9.35663 -7.58505,16.94168 -16.94168,16.94168c-9.35663,0 -16.94168,-7.58505 -16.94168,-16.94168z" fill="url(#color-1)"/><path d="M172.23331,136.75418c0,-9.35663 7.58505,-16.94168 16.94168,-16.94168c9.35663,0 16.94168,7.58505 16.94168,16.94168c0,9.35663 -7.58505,16.94168 -16.94168,16.94168c-9.35663,0 -16.94168,-7.58505 -16.94168,-16.94168z" fill="url(#color-2)"/><path d="M192.44443,157.55974c0,-9.35663 7.58505,-16.94168 16.94168,-16.94168c9.35663,0 16.94168,7.58505 16.94168,16.94168c0,9.35663 -7.58505,16.94168 -16.94168,16.94168c-9.35663,0 -16.94168,-7.58505 -16.94168,-16.94168z" fill="url(#color-3)"/><path d="M168.66667,167.66526c0,-9.35663 7.58505,-16.94168 16.94168,-16.94168c9.35663,0 16.94168,7.58505 16.94168,16.94168c0,9.35663 -7.58505,16.94168 -16.94168,16.94168c-9.35663,0 -16.94168,-7.58505 -16.94168,-16.94168z" fill="url(#color-4)"/><path d="M277.44998,142.69862c0,-9.35663 7.58505,-16.94168 16.94168,-16.94168c9.35663,0 16.94168,7.58505 16.94168,16.94168c0,9.35663 -7.58505,16.94168 -16.94168,16.94168c-9.35663,0 -16.94168,-7.58505 -16.94168,-16.94168z" fill="url(#color-5)"/><path d="M229.29999,131.99862c0,-9.35663 7.58505,-16.94168 16.94168,-16.94168c9.35663,0 16.94168,7.58505 16.94168,16.94168c0,9.35663 -7.58505,16.94168 -16.94168,16.94168c-9.35663,0 -16.94168,-7.58505 -16.94168,-16.94168z" fill="url(#color-6)"/><path d="M213.84443,150.42638c0,-9.35663 7.58505,-16.94168 16.94168,-16.94168c9.35663,0 16.94168,7.58505 16.94168,16.94168c0,9.35663 -7.58505,16.94168 -16.94168,16.94168c-9.35663,0 -16.94168,-7.58505 -16.94168,-16.94168z" fill="url(#color-7)"/><path d="M254.26666,142.69862c0,-9.35663 7.58505,-16.94168 16.94168,-16.94168c9.35663,0 16.94168,7.58505 16.94168,16.94168c0,9.35663 -7.58505,16.94168 -16.94168,16.94168c-9.35663,0 -16.94168,-7.58505 -16.94168,-16.94168z" fill="url(#color-8)"/><path d="M237.62223,161.12638c0,-9.35663 7.58505,-16.94168 16.94168,-16.94168c9.35663,0 16.94168,7.58505 16.94168,16.94168c0,9.35663 -7.58505,16.94168 -16.94168,16.94168c-9.35663,0 -16.94168,-7.58505 -16.94168,-16.94168z" fill="url(#color-9)"/><path d="M264.37222,156.37082c0,-9.35663 7.58505,-16.94168 16.94168,-16.94168c9.35663,0 16.94168,7.58505 16.94168,16.94168c0,9.35663 -7.58505,16.94168 -16.94168,16.94168c-9.35663,0 -16.94168,-7.58505 -16.94168,-16.94168z" fill="url(#color-10)"/><path d="M257.83331,174.20418c0,-9.35663 7.58505,-16.94168 16.94168,-16.94168c9.35663,0 16.94168,7.58505 16.94168,16.94168c0,9.35663 -7.58505,16.94168 -16.94168,16.94168c-9.35663,0 -16.94168,-7.58505 -16.94168,-16.94168z" fill="url(#color-11)"/><path d="M213.24999,174.79862c0,-9.35663 7.58505,-16.94168 16.94168,-16.94168c9.35663,0 16.94168,7.58505 16.94168,16.94168c0,9.35663 -7.58505,16.94168 -16.94168,16.94168c-9.35663,0 -16.94168,-7.58505 -16.94168,-16.94168z" fill="url(#color-12)"/><path d="M191.25555,189.65974c0,-9.35663 7.58505,-16.94168 16.94168,-16.94168c9.35663,0 16.94168,7.58505 16.94168,16.94168c0,9.35663 -7.58505,16.94168 -16.94168,16.94168c-9.35663,0 -16.94168,-7.58505 -16.94168,-16.94168z" fill="url(#color-13)"/><path d="M176.98887,197.3875c0,-9.35663 7.58505,-16.94168 16.94168,-16.94168c9.35663,0 16.94168,7.58505 16.94168,16.94168c0,9.35663 -7.58505,16.94168 -16.94168,16.94168c-9.35663,0 -16.94168,-7.58505 -16.94168,-16.94168z" fill="url(#color-14)"/><path d="M256.64443,199.17082c0,-9.35663 7.58505,-16.94168 16.94168,-16.94168c9.35663,0 16.94168,7.58505 16.94168,16.94168c0,9.35663 -7.58505,16.94168 -16.94168,16.94168c-9.35663,0 -16.94168,-7.58505 -16.94168,-16.94168z" fill="url(#color-15)"/><path d="M241.78331,187.28194c0,-9.35663 7.58505,-16.94168 16.94168,-16.94168c9.35663,0 16.94168,7.58505 16.94168,16.94168c0,9.35663 -7.58505,16.94168 -16.94168,16.94168c-9.35663,0 -16.94168,-7.58505 -16.94168,-16.94168z" fill="url(#color-16)"/><path d="M222.16667,203.92638c0,-9.35663 7.58505,-16.94168 16.94168,-16.94168c9.35663,0 16.94168,7.58505 16.94168,16.94168c0,9.35663 -7.58505,16.94168 -16.94168,16.94168c-9.35663,0 -16.94168,-7.58505 -16.94168,-16.94168z" fill="url(#color-17)"/><path d="M239.99999,217.00418c0,-9.35663 7.58505,-16.94168 16.94168,-16.94168c9.35663,0 16.94168,7.58505 16.94168,16.94168c0,9.35663 -7.58505,16.94168 -16.94168,16.94168c-9.35663,0 -16.94168,-7.58505 -16.94168,-16.94168z" fill="url(#color-18)"/><path d="M207.89999,209.27638c0,-9.35663 7.58505,-16.94168 16.94168,-16.94168c9.35663,0 16.94168,7.58505 16.94168,16.94168c0,9.35663 -7.58505,16.94168 -16.94168,16.94168c-9.35663,0 -16.94168,-7.58505 -16.94168,-16.94168z" fill="url(#color-19)"/><path d="M217.41111,231.27082c0,-9.35663 7.58505,-16.94168 16.94168,-16.94168c9.35663,0 16.94168,7.58505 16.94168,16.94168c0,9.35663 -7.58505,16.94168 -16.94168,16.94168c-9.35663,0 -16.94168,-7.58505 -16.94168,-16.94168z" fill="url(#color-20)"/><path d="M186.49999,218.7875c0,-9.35663 7.58505,-16.94168 16.94168,-16.94168c9.35663,0 16.94168,7.58505 16.94168,16.94168c0,9.35663 -7.58505,16.94168 -16.94168,16.94168c-9.35663,0 -16.94168,-7.58505 -16.94168,-16.94168z" fill="url(#color-21)"/><path d="M197.19999,248.50973c0,-9.35663 7.58505,-16.94168 16.94168,-16.94168c9.35663,0 16.94168,7.58505 16.94168,16.94168c0,9.35663 -7.58505,16.94168 -16.94168,16.94168c-9.35663,0 -16.94168,-7.58505 -16.94168,-16.94168z" fill="url(#color-22)"/><path d="M231.67775,245.5375c0,-9.35663 7.58505,-16.94168 16.94168,-16.94168c9.35663,0 16.94168,7.58505 16.94168,16.94168c0,9.35663 -7.58505,16.94168 -16.94168,16.94168c-9.35663,0 -16.94168,-7.58505 -16.94168,-16.94168z" fill="url(#color-23)"/><path d="M217.41111,258.02082c0,-9.35663 7.58505,-16.94168 16.94168,-16.94168c9.35663,0 16.94168,7.58505 16.94168,16.94168c0,9.35663 -7.58505,16.94168 -16.94168,16.94168c-9.35663,0 -16.94168,-7.58505 -16.94168,-16.94168z" fill="url(#color-24)"/></g><path d="M194.52499,99.30418v-14.26668c0,0 14.9075,2.97224 24.96668,2.97224c15.36564,0 58.25556,0 58.25556,0v14.26668c0,0 -48.46502,0 -63.60556,0c-8.40828,0 -19.61668,-2.97224 -19.61668,-2.97224z" fill="#9a5800"/></g><text transform="translate(161.55783,288.0504) scale(0.8792,0.8792)" font-size="40" xml:space="preserve" fill="#9c9c9c" stroke-width="1" font-family="Sans Serif" font-weight="400" text-anchor="start"><tspan x="0" dy="0">+75 coins</tspan></text><text transform="translate(117.67657,257.64377) scale(0.8792,0.8792)" font-size="40" xml:space="preserve" fill="#9c9c9c" stroke-width="1" font-family="Sans Serif" font-weight="400" text-anchor="start"><tspan x="0" dy="0">0.10% CHANCE</tspan></text><text transform="translate(148.81863,100.5504) scale(0.8792,0.8792)" font-size="40" xml:space="preserve" fill="#9c9c9c" stroke-width="1" font-family="Sans Serif" font-weight="400" text-anchor="start"><tspan x="0" dy="0">3X GRAPE!</tspan></text></g></g></svg>