<svg version="1.1" xmlns="http://www.w3.org/2000/svg" xmlns:xlink="http://www.w3.org/1999/xlink" width="231.40819" height="229.64183" viewBox="0,0,231.40819,229.64183"><defs><linearGradient x1="226.94286" y1="184.67904" x2="226.94286" y2="231.37969" gradientUnits="userSpaceOnUse" id="color-1"><stop offset="0" stop-color="#ff0000"/><stop offset="1" stop-color="#740000"/></linearGradient><linearGradient x1="264.41202" y1="195.81119" x2="264.41202" y2="242.51183" gradientUnits="userSpaceOnUse" id="color-2"><stop offset="0" stop-color="#ff0000"/><stop offset="1" stop-color="#740000"/></linearGradient><linearGradient x1="194.78186" y1="142.03532" x2="226.58912" y2="158.66204" gradientUnits="userSpaceOnUse" id="color-3"><stop offset="0" stop-color="#00a415"/><stop offset="1" stop-color="#00ff39"/></linearGradient><linearGradient x1="215.05497" y1="134.41931" x2="234.13908" y2="135.86112" gradientUnits="userSpaceOnUse" id="color-4"><stop offset="0" stop-color="#00a415"/><stop offset="1" stop-color="#00ff39"/></linearGradient></defs><g transform="translate(-124.7369,-69.39857)"><g stroke-miterlimit="10"><g stroke-width="5"><path d="M201.42044,208.02938c0,-12.89604 11.4268,-23.35031 25.52246,-23.35031c14.09564,0 25.52246,10.4543 25.52246,23.35031c0,10.85232 -8.09201,19.97548 -19.05688,22.59455c-2.06492,0.49322 -5.04628,-0.33028 -7.28011,-0.33028c-3.5345,0 -6.08664,0.42873 -9.14745,-0.75958c-9.14574,-3.55073 -15.56045,-11.84234 -15.56045,-21.50469z" fill="url(#color-1)" stroke="#6c0000" stroke-linecap="butt"/><path d="M238.88956,219.1615c0,-12.89604 11.42679,-23.35031 25.52246,-23.35031c14.09564,0 25.52247,10.4543 25.52247,23.35031c0,10.85232 -8.09202,19.97548 -19.05689,22.59455c-2.06493,0.49322 -5.04628,-0.33029 -7.28011,-0.33029c-3.53451,0 -6.08664,0.42873 -9.14744,-0.75958c-9.14574,-3.55073 -15.56045,-11.84234 -15.56045,-21.50468z" fill="url(#color-2)" stroke="#6c0000" stroke-linecap="butt"/><path d="M227.48591,193.91057c0,0 -1.37609,-2.20973 -2.6858,-5.09824c-1.6527,-3.64493 -3.00673,-9.23918 0.79741,-22.53094c5.48919,-19.17932 6.66708,-16.95367 6.66708,-16.95367" fill="none" stroke="#156b00" stroke-linecap="round"/><path d="M232.47494,149.33107c0,0 16.05913,0.8768 23.52711,25.11049c7.52778,24.42766 10.80614,32.49845 10.80614,32.49845" fill="none" stroke="#156b00" stroke-linecap="round"/><path d="M230.63549,192.8245c0,0 -0.24519,3.7469 -3.4211,3.7469c-4.53344,0 -4.07272,-2.76945 -4.07272,-2.76945" fill="none" stroke="#6c0000" stroke-linecap="round"/><path d="M270.80358,206.98724c0,0 0.61521,2.73927 -3.91112,2.99333c-3.17091,0.17797 -3.6257,-3.54929 -3.6257,-3.54929" fill="none" stroke="#6c0000" stroke-linecap="round"/><path d="M232.10646,148.10715c0,0 -7.81036,9.65819 -22.71037,10.91882c-7.01884,-0.03258 -19.33055,-5.99872 -19.33055,-5.99872c0,0 8.03451,-12.25585 16.71275,-13.96955c14.36039,-1.4969 25.32817,9.04948 25.32817,9.04948z" fill="url(#color-3)" stroke="#156b00" stroke-linecap="butt"/><path d="M232.40219,148.75411c0,0 -8.72567,-2.35415 -13.95037,-11.89766c-5.10484,-9.32458 -4.02912,-18.76989 -4.02912,-18.76989c0,0 10.76291,1.05873 16.54561,11.15025c5.22308,9.11489 1.43388,19.51732 1.43388,19.51732z" fill="url(#color-4)" stroke="#156b00" stroke-linecap="butt"/></g><text transform="translate(161.55781,288.0504) scale(0.8792,0.8792)" font-size="40" xml:space="preserve" fill="#9c9c9c" stroke="#000000" stroke-width="1" stroke-linecap="butt" font-family="Sans Serif" font-weight="normal" text-anchor="start"><tspan x="0" dy="0">+20 coins</tspan></text><text transform="translate(125.17651,257.64377) scale(0.8792,0.8792)" font-size="40" xml:space="preserve" fill="#9c9c9c" stroke="#000000" stroke-width="1" stroke-linecap="butt" font-family="Sans Serif" font-weight="normal" text-anchor="start"><tspan x="0" dy="0">1.5% CHANCE</tspan></text><text transform="translate(127.79654,107.64377) scale(0.8792,0.8792)" font-size="40" xml:space="preserve" fill="#9c9c9c" stroke="#000000" stroke-width="1" stroke-linecap="butt" font-family="Sans Serif" font-weight="normal" text-anchor="start"><tspan x="0" dy="0">3X CHERRIES!</tspan></text></g></g></svg>