<svg version="1.1" xmlns="http://www.w3.org/2000/svg" xmlns:xlink="http://www.w3.org/1999/xlink" width="53.27685" height="93.13728" viewBox="0,0,53.27685,93.13728"><defs><linearGradient x1="240.101" y1="153.85176" x2="240.101" y2="202.36085" gradientUnits="userSpaceOnUse" id="color-1"><stop offset="0" stop-color="#ff7155"/><stop offset="1" stop-color="#ff3939"/></linearGradient></defs><g transform="translate(-213.39493,-146.2147)"><g stroke-miterlimit="10"><path d="M215.96164,236.85198v-88.0706h48.21014v88.0706z" fill="#585858" stroke="#b5b5b5" stroke-width="5"/><text transform="translate(219.18755,220.21061) scale(0.1811,0.1811)" font-size="40" xml:space="preserve" fill="#ffffff" stroke="none" stroke-width="1" font-family="Sans Serif" font-weight="normal" text-anchor="start"><tspan x="0" dy="0">watermelon</tspan></text><text transform="translate(220.31255,229.28842) scale(0.15633,0.15633)" font-size="40" xml:space="preserve" fill="#ffffff" stroke="none" stroke-width="1" font-family="Sans Serif" font-weight="normal" text-anchor="start"><tspan x="0" dy="0">click to equip</tspan></text><path d="M215.89493,211.2853v-62.5706h48.21014v62.5706z" fill="#ffffff" stroke="#b5b5b5" stroke-width="5"/><g stroke="none" stroke-width="0"><path d="M221.01149,200.65121l20.15944,-46.79947l17.81757,47.15559c0,0 -10.75196,5.49211 -18.86152,5.12313c-12.11591,-0.55127 -19.11549,-5.47926 -19.11549,-5.47926z" fill="#049e00"/><path d="M222.62746,196.6113l18.54347,-42.75956l16.40361,43.36818c0,0 -9.33798,5.49211 -17.44756,5.12314c-12.11591,-0.55127 -17.49952,-5.73176 -17.49952,-5.73176z" fill="url(#color-1)"/><path d="M246.05981,178.03553c0,2.7053 -0.9722,4.89838 -2.17144,4.89838c-1.19926,0 -2.17144,-2.19308 -2.17144,-4.89838c0,-2.7053 0.9722,-4.89838 2.17144,-4.89838c1.19926,0 2.17144,2.19308 2.17144,4.89838z" fill="#000000"/><path d="M232.42513,193.74067c0,1.28293 -1.26612,2.32294 -2.82794,2.32294c-1.56182,0 -2.82794,-1.04002 -2.82794,-2.32294c0,-1.28293 1.26612,-2.32294 2.82794,-2.32294c1.56182,0 2.82794,1.04002 2.82794,2.32294z" fill="#000000"/><path d="M239.79795,159.19946c0.61358,0 1.11097,0.7235 1.11097,1.61597c0,0.89248 -0.49739,1.61597 -1.11097,1.61597c-0.61358,0 -1.11097,-0.7235 -1.11097,-1.61597c0,-0.89248 0.49739,-1.61597 1.11097,-1.61597z" fill="#000000"/><path d="M236.66702,180.40898c0.94825,0 1.71695,1.08523 1.71695,2.42394c0,1.33871 -0.76871,2.42394 -1.71695,2.42394c-0.94825,0 -1.71695,-1.08523 -1.71695,-2.42394c0,-1.33871 0.76871,-2.42394 1.71695,-2.42394z" fill="#000000"/><path d="M249.08974,194.04366c0,0.44623 -0.58784,0.80798 -1.31297,0.80798c-0.72514,0 -1.31297,-0.36174 -1.31297,-0.80798c0,-0.44623 0.58784,-0.80798 1.31297,-0.80798c0.72514,0 1.31297,0.36174 1.31297,0.80798z" fill="#000000"/></g></g></g></svg>