<svg version="1.1" xmlns="http://www.w3.org/2000/svg" xmlns:xlink="http://www.w3.org/1999/xlink" width="53.21014" height="53.60124" viewBox="0,0,53.21014,53.60124"><defs><linearGradient x1="239.39931" y1="172.53156" x2="239.39931" y2="200.02828" gradientUnits="userSpaceOnUse" id="color-1"><stop offset="0" stop-color="#4eab0c"/><stop offset="1" stop-color="#10480c"/></linearGradient><linearGradient x1="241.23275" y1="171.65547" x2="241.23275" y2="197.61752" gradientUnits="userSpaceOnUse" id="color-2"><stop offset="0" stop-color="#a4ff63"/><stop offset="1" stop-color="#edff95"/></linearGradient><linearGradient x1="241.23285" y1="180.2693" x2="241.23285" y2="194.00981" gradientUnits="userSpaceOnUse" id="color-3"><stop offset="0" stop-color="#772c00"/><stop offset="1" stop-color="#784c35"/></linearGradient></defs><g transform="translate(-213.39493,-153.25267)"><g stroke-miterlimit="10"><path d="M215.89493,204.35391v-48.60124h48.21014v48.60124z" fill="#ffffff" stroke="#b5b5b5" stroke-width="5"/><g stroke="none" stroke-width="0"><path d="M228.07214,186.27992c0.08091,-6.65764 1.24291,-8.12542 4.15153,-12.61271c1.96634,-5.54739 0.7414,-13.60736 6.852,-13.50916c5.67067,0.09113 5.21572,7.86422 7.39495,13.3366c3.13473,4.82417 4.17495,6.6745 4.25586,12.78527c0.10052,7.59203 -5.07135,13.74836 -11.32717,13.74836c-6.25583,0 -11.41944,-6.15618 -11.32717,-13.74836z" fill="url(#color-1)"/><path d="M230.53777,184.63649c0.07639,-6.28605 1.17354,-7.67192 3.91983,-11.90876c1.85659,-5.23777 0.70002,-12.8479 6.46957,-12.75517c5.35417,0.08605 4.92462,7.4253 6.98222,12.59224c2.95977,4.55492 3.94194,6.30199 4.01833,12.07169c0.09491,7.1683 -4.7883,12.98102 -10.69497,12.98102c-5.90667,0 -10.78208,-5.81258 -10.69497,-12.98102z" fill="url(#color-2)"/><path d="M245.85461,187.13956c0,3.79433 -2.06923,6.87025 -4.62175,6.87025c-2.55253,0 -4.62175,-3.07592 -4.62175,-6.87025c0,-3.79433 2.06923,-6.87025 4.62175,-6.87025c2.55253,0 4.62175,3.07592 4.62175,6.87025z" fill="url(#color-3)"/></g></g></g></svg>