<svg version="1.1" xmlns="http://www.w3.org/2000/svg" xmlns:xlink="http://www.w3.org/1999/xlink" width="251.53362" height="229.2352" viewBox="0,0,251.53362,229.2352"><defs><linearGradient x1="217.3874" y1="119.26825" x2="239.48279" y2="113.23879" gradientUnits="userSpaceOnUse" id="color-1"><stop offset="0" stop-color="#00a415"/><stop offset="1" stop-color="#00ff39"/></linearGradient><linearGradient x1="236.99412" y1="155.7336" x2="236.99412" y2="248.81863" gradientUnits="userSpaceOnUse" id="color-2"><stop offset="0" stop-color="#ff0000"/><stop offset="1" stop-color="#ca0000"/></linearGradient><linearGradient x1="236.99412" y1="155.7336" x2="236.99412" y2="248.81863" gradientUnits="userSpaceOnUse" id="color-3"><stop offset="0" stop-color="#8e0000"/><stop offset="1" stop-color="#6b0000"/></linearGradient></defs><g transform="translate(-117.23697,-69.8052)"><g stroke-miterlimit="10"><path d="M242.69614,128.47216c0,0 -10.78238,0.84575 -20.50126,-7.81868c-9.49592,-8.4657 -12.07176,-19.54663 -12.07176,-19.54663c0,0 12.5597,-3.12354 23.12753,5.93498c9.54512,8.18185 9.44546,21.43036 9.44546,21.43036z" fill="url(#color-1)" stroke="#156b00" stroke-width="5" stroke-linecap="butt"/><path d="M236.342,163.21935c0,0 1.18081,-17.77827 3.69022,-27.25039c2.33209,-8.80286 11.89417,-11.92111 11.89417,-11.92111" fill="none" stroke="#8f4500" stroke-width="5" stroke-linecap="round"/><path d="M190.45156,202.2761c-0.42118,-35.16996 13.70893,-38.49642 32.60444,-44.41954c4.40057,-1.37942 9.08245,3.35257 13.93806,3.35257c4.47012,0 8.79303,-4.8454 12.88478,-3.66904c19.43725,5.58811 33.24337,5.80406 33.65775,44.73595c0.30879,29.00946 -6.42281,27.04151 -16.53539,35.57916c-5.66198,4.78013 -11.21697,8.65443 -18.71263,10.30095c-3.23066,0.70962 -7.85074,-4.81309 -11.29451,-4.81309c-3.04956,0 -6.03063,5.18233 -8.91655,4.62238c-6.47215,-1.25573 -12.46569,-3.85253 -17.67966,-7.48946c-12.05746,-8.41054 -19.56522,-6.38064 -19.94632,-38.19987z" fill="url(#color-2)" stroke="url(#color-3)" stroke-width="5" stroke-linecap="butt"/><text transform="translate(161.55783,288.0504) scale(0.8792,0.8792)" font-size="40" xml:space="preserve" fill="#9c9c9c" stroke="#000000" stroke-width="1" stroke-linecap="butt" font-family="Sans Serif" font-weight="400" text-anchor="start"><tspan x="0" dy="0">+35 coins</tspan></text><text transform="translate(117.67657,257.64377) scale(0.8792,0.8792)" font-size="40" xml:space="preserve" fill="#9c9c9c" stroke="#000000" stroke-width="1" stroke-linecap="butt" font-family="Sans Serif" font-weight="400" text-anchor="start"><tspan x="0" dy="0">0.53% CHANCE</tspan></text><text transform="translate(157.58383,108.0504) scale(0.8792,0.8792)" font-size="40" xml:space="preserve" fill="#9c9c9c" stroke="#000000" stroke-width="1" stroke-linecap="butt" font-family="Sans Serif" font-weight="400" text-anchor="start"><tspan x="0" dy="0">3X APPLE!</tspan></text></g></g></svg>