<svg version="1.1" xmlns="http://www.w3.org/2000/svg" xmlns:xlink="http://www.w3.org/1999/xlink" width="275.01938" height="297.25075" viewBox="0,0,275.01938,297.25075"><g transform="translate(-102.49031,-31.37463)"><g fill="#d04c00" stroke="#5b3100" stroke-width="12.5" stroke-miterlimit="10"><path d="M108.74031,298.64615c0,-55.5733 0,-192.13538 0,-227.55723c0,-16.34485 12.45518,-33.46429 25.06942,-33.46429c29.76009,0 153.43047,0 209.5425,0c17.08553,0 27.90746,18.19338 27.90746,35.28963c0,33.4705 0,152.90931 0,213.56306c0,21.71719 -8.80105,35.89806 -18.44731,35.89806c-27.79398,0 -164.70482,0 -220.42168,0c-14.62067,0 -23.65039,-9.03257 -23.65039,-23.72923z"/><path d="M108.74031,303.92807c0,-43.20317 0,-149.3677 0,-176.90495c0,-12.70663 12.45518,-26.01544 25.06942,-26.01544c29.76009,0 153.43047,0 209.5425,0c17.08553,0 27.90746,14.14369 27.90746,27.43446c0,26.02025 0,118.87302 0,166.02577c0,16.88313 -8.80105,27.90746 -18.44731,27.90746c-27.79398,0 -164.70482,0 -220.42168,0c-14.62067,0 -23.65039,-7.022 -23.65039,-18.44731z"/></g></g></svg>