<svg version="1.1" xmlns="http://www.w3.org/2000/svg" xmlns:xlink="http://www.w3.org/1999/xlink" width="31.78863" height="31.51971" viewBox="0,0,31.78863,31.51971"><g transform="translate(-224.53846,-163.94183)"><g stroke-miterlimit="10"><path d="M224.53846,195.46154v-30.92308h30.92308v30.92308z" fill="none" stroke="none" stroke-width="0" stroke-linecap="butt"/><path d="M230.08445,180c0,-5.47621 4.43934,-9.91555 9.91555,-9.91555c5.47621,0 9.91555,4.43934 9.91555,9.91555c0,5.47621 -4.43934,9.91555 -9.91555,9.91555c-5.47621,0 -9.91555,-4.43934 -9.91555,-9.91555z" fill="#ffc300" stroke="#af8600" stroke-width="1" stroke-linecap="butt"/><g fill="none" stroke="#af8600" stroke-width="1" stroke-linecap="round"><path d="M240,171.82107v16.35786"/><path d="M235.97009,186.63798c0,0 8.23184,-0.07075 7.47095,-4.4584c-0.69398,-4.00182 -8.43621,-0.51153 -7.17419,-5.7579c1.26297,-5.25032 7.76306,-2.15136 7.76306,-2.15136"/></g><text transform="translate(250.11615,185.69183) scale(0.5,0.5)" font-size="40" xml:space="preserve" fill="#000000" stroke="none" stroke-width="1" stroke-linecap="butt" font-family="Sans Serif" font-weight="normal" text-anchor="start"><tspan x="0" dy="0">:</tspan></text></g></g></svg>