<svg version="1.1" xmlns="http://www.w3.org/2000/svg" xmlns:xlink="http://www.w3.org/1999/xlink" width="53.21014" height="53.60124" viewBox="0,0,53.21014,53.60124"><defs><radialGradient cx="233.10816" cy="167.92317" r="3.67136" gradientUnits="userSpaceOnUse" id="color-1"><stop offset="0" stop-color="#ffffff"/><stop offset="1" stop-color="#cc45ff"/></radialGradient><radialGradient cx="227.18246" cy="169.21137" r="3.67136" gradientUnits="userSpaceOnUse" id="color-2"><stop offset="0" stop-color="#ffffff"/><stop offset="1" stop-color="#4546ff"/></radialGradient><radialGradient cx="232.07761" cy="173.46241" r="3.67136" gradientUnits="userSpaceOnUse" id="color-3"><stop offset="0" stop-color="#ffffff"/><stop offset="1" stop-color="#cc45ff"/></radialGradient><radialGradient cx="227.18246" cy="176.42526" r="3.67136" gradientUnits="userSpaceOnUse" id="color-4"><stop offset="0" stop-color="#ffffff"/><stop offset="1" stop-color="#6f258a"/></radialGradient><radialGradient cx="251.40052" cy="169.85547" r="3.67136" gradientUnits="userSpaceOnUse" id="color-5"><stop offset="0" stop-color="#ffffff"/><stop offset="1" stop-color="#6f258a"/></radialGradient><radialGradient cx="239.42031" cy="168.18082" r="3.67136" gradientUnits="userSpaceOnUse" id="color-6"><stop offset="0" stop-color="#ffffff"/><stop offset="1" stop-color="#cc45ff"/></radialGradient><radialGradient cx="236.58629" cy="172.56067" r="3.67136" gradientUnits="userSpaceOnUse" id="color-7"><stop offset="0" stop-color="#ffffff"/><stop offset="1" stop-color="#6f258a"/></radialGradient><radialGradient cx="245.08837" cy="170.88602" r="3.67136" gradientUnits="userSpaceOnUse" id="color-8"><stop offset="0" stop-color="#ffffff"/><stop offset="1" stop-color="#6f258a"/></radialGradient><radialGradient cx="241.35261" cy="175.00824" r="3.67136" gradientUnits="userSpaceOnUse" id="color-9"><stop offset="0" stop-color="#ffffff"/><stop offset="1" stop-color="#4546ff"/></radialGradient><radialGradient cx="247.53594" cy="173.59123" r="3.67136" gradientUnits="userSpaceOnUse" id="color-10"><stop offset="0" stop-color="#ffffff"/><stop offset="1" stop-color="#4546ff"/></radialGradient><radialGradient cx="246.37656" cy="176.81172" r="3.67136" gradientUnits="userSpaceOnUse" id="color-11"><stop offset="0" stop-color="#ffffff"/><stop offset="1" stop-color="#cc45ff"/></radialGradient><radialGradient cx="236.32864" cy="177.19817" r="3.67136" gradientUnits="userSpaceOnUse" id="color-12"><stop offset="0" stop-color="#ffffff"/><stop offset="1" stop-color="#4546ff"/></radialGradient><radialGradient cx="233.10816" cy="180.03221" r="3.67136" gradientUnits="userSpaceOnUse" id="color-13"><stop offset="0" stop-color="#ffffff"/><stop offset="1" stop-color="#6f258a"/></radialGradient><radialGradient cx="228.34184" cy="182.73741" r="3.67136" gradientUnits="userSpaceOnUse" id="color-14"><stop offset="0" stop-color="#ffffff"/><stop offset="1" stop-color="#4546ff"/></radialGradient><radialGradient cx="247.66476" cy="185.05616" r="3.67136" gradientUnits="userSpaceOnUse" id="color-15"><stop offset="0" stop-color="#ffffff"/><stop offset="1" stop-color="#6f258a"/></radialGradient><radialGradient cx="242.89844" cy="180.41866" r="3.67136" gradientUnits="userSpaceOnUse" id="color-16"><stop offset="0" stop-color="#ffffff"/><stop offset="1" stop-color="#4546ff"/></radialGradient><radialGradient cx="240.70851" cy="183.12387" r="3.67136" gradientUnits="userSpaceOnUse" id="color-17"><stop offset="0" stop-color="#ffffff"/><stop offset="1" stop-color="#6f258a"/></radialGradient><radialGradient cx="242.25434" cy="186.85964" r="3.67136" gradientUnits="userSpaceOnUse" id="color-18"><stop offset="0" stop-color="#ffffff"/><stop offset="1" stop-color="#6f258a"/></radialGradient><radialGradient cx="235.42691" cy="184.54089" r="3.67136" gradientUnits="userSpaceOnUse" id="color-19"><stop offset="0" stop-color="#ffffff"/><stop offset="1" stop-color="#cc45ff"/></radialGradient><radialGradient cx="237.61684" cy="189.43603" r="3.67136" gradientUnits="userSpaceOnUse" id="color-20"><stop offset="0" stop-color="#ffffff"/><stop offset="1" stop-color="#4546ff"/></radialGradient><radialGradient cx="230.91823" cy="187.63255" r="3.67136" gradientUnits="userSpaceOnUse" id="color-21"><stop offset="0" stop-color="#ffffff"/><stop offset="1" stop-color="#6f258a"/></radialGradient><radialGradient cx="232.7217" cy="193.30061" r="3.67136" gradientUnits="userSpaceOnUse" id="color-22"><stop offset="0" stop-color="#ffffff"/><stop offset="1" stop-color="#4546ff"/></radialGradient><radialGradient cx="240.83733" cy="192.39887" r="3.67136" gradientUnits="userSpaceOnUse" id="color-23"><stop offset="0" stop-color="#ffffff"/><stop offset="1" stop-color="#cc45ff"/></radialGradient><radialGradient cx="237.74566" cy="195.2329" r="3.67136" gradientUnits="userSpaceOnUse" id="color-24"><stop offset="0" stop-color="#ffffff"/><stop offset="1" stop-color="#6f258a"/></radialGradient></defs><g transform="translate(-213.39493,-153.25267)"><g stroke-miterlimit="10"><path d="M215.89493,204.35391v-48.60124h48.21014v48.60124z" fill="#ffffff" stroke="#b5b5b5" stroke-width="5"/><g stroke="#000000" stroke-width="1.5"><path d="M237.3592,172.17422v-12.10902h3.60694v12.10902z" fill="#9a5800"/><g><path d="M230.33855,169.72665c0,-2.02763 1.64372,-3.67136 3.67136,-3.67136c2.02763,0 3.67136,1.64372 3.67136,3.67136c0,2.02763 -1.64372,3.67136 -3.67136,3.67136c-2.02763,0 -3.67136,-1.64372 -3.67136,-3.67136z" fill="url(#color-1)"/><path d="M225.31458,170.62839c0,-2.02763 1.64372,-3.67136 3.67136,-3.67136c2.02763,0 3.67136,1.64372 3.67136,3.67136c0,2.02763 -1.64372,3.67136 -3.67136,3.67136c-2.02763,0 -3.67136,-1.64372 -3.67136,-3.67136z" fill="url(#color-2)"/><path d="M229.69444,175.13707c0,-2.02763 1.64372,-3.67136 3.67136,-3.67136c2.02763,0 3.67136,1.64372 3.67136,3.67136c0,2.02763 -1.64372,3.67136 -3.67136,3.67136c-2.02763,0 -3.67136,-1.64372 -3.67136,-3.67136z" fill="url(#color-3)"/><path d="M224.54167,177.32699c0,-2.02763 1.64372,-3.67136 3.67136,-3.67136c2.02763,0 3.67136,1.64372 3.67136,3.67136c0,2.02763 -1.64372,3.67136 -3.67136,3.67136c-2.02763,0 -3.67136,-1.64372 -3.67136,-3.67136z" fill="url(#color-4)"/><path d="M248.11563,171.91658c0,-2.02763 1.64372,-3.67136 3.67136,-3.67136c2.02763,0 3.67136,1.64372 3.67136,3.67136c0,2.02763 -1.64372,3.67136 -3.67136,3.67136c-2.02763,0 -3.67136,-1.64372 -3.67136,-3.67136z" fill="url(#color-5)"/><path d="M237.68125,169.59783c0,-2.02763 1.64372,-3.67136 3.67136,-3.67136c2.02763,0 3.67136,1.64372 3.67136,3.67136c0,2.02763 -1.64372,3.67136 -3.67136,3.67136c-2.02763,0 -3.67136,-1.64372 -3.67136,-3.67136z" fill="url(#color-6)"/><path d="M234.33194,173.59123c0,-2.02763 1.64372,-3.67136 3.67136,-3.67136c2.02763,0 3.67136,1.64372 3.67136,3.67136c0,2.02763 -1.64372,3.67136 -3.67136,3.67136c-2.02763,0 -3.67136,-1.64372 -3.67136,-3.67136z" fill="url(#color-7)"/><path d="M243.09167,171.91658c0,-2.02763 1.64372,-3.67136 3.67136,-3.67136c2.02763,0 3.67136,1.64372 3.67136,3.67136c0,2.02763 -1.64372,3.67136 -3.67136,3.67136c-2.02763,0 -3.67136,-1.64372 -3.67136,-3.67136z" fill="url(#color-8)"/><path d="M239.48473,175.90998c0,-2.02763 1.64372,-3.67136 3.67136,-3.67136c2.02763,0 3.67136,1.64372 3.67136,3.67136c0,2.02763 -1.64372,3.67136 -3.67136,3.67136c-2.02763,0 -3.67136,-1.64372 -3.67136,-3.67136z" fill="url(#color-9)"/><path d="M245.2816,174.87942c0,-2.02763 1.64372,-3.67136 3.67136,-3.67136c2.02763,0 3.67136,1.64372 3.67136,3.67136c0,2.02763 -1.64372,3.67136 -3.67136,3.67136c-2.02763,0 -3.67136,-1.64372 -3.67136,-3.67136z" fill="url(#color-10)"/><path d="M243.86458,178.74401c0,-2.02763 1.64372,-3.67136 3.67136,-3.67136c2.02763,0 3.67136,1.64372 3.67136,3.67136c0,2.02763 -1.64372,3.67136 -3.67136,3.67136c-2.02763,0 -3.67136,-1.64372 -3.67136,-3.67136z" fill="url(#color-11)"/><path d="M234.20313,178.87283c0,-2.02763 1.64372,-3.67136 3.67136,-3.67136c2.02763,0 3.67136,1.64372 3.67136,3.67136c0,2.02763 -1.64372,3.67136 -3.67136,3.67136c-2.02763,0 -3.67136,-1.64372 -3.67136,-3.67136z" fill="url(#color-12)"/><path d="M229.43681,182.09332c0,-2.02763 1.64372,-3.67136 3.67136,-3.67136c2.02763,0 3.67136,1.64372 3.67136,3.67136c0,2.02763 -1.64372,3.67136 -3.67136,3.67136c-2.02763,0 -3.67136,-1.64372 -3.67136,-3.67136z" fill="url(#color-13)"/><path d="M226.34514,183.76797c0,-2.02763 1.64372,-3.67136 3.67136,-3.67136c2.02763,0 3.67136,1.64372 3.67136,3.67136c0,2.02763 -1.64372,3.67136 -3.67136,3.67136c-2.02763,0 -3.67136,-1.64372 -3.67136,-3.67136z" fill="url(#color-14)"/><path d="M243.60694,184.15442c0,-2.02763 1.64372,-3.67136 3.67136,-3.67136c2.02763,0 3.67136,1.64372 3.67136,3.67136c0,2.02763 -1.64372,3.67136 -3.67136,3.67136c-2.02763,0 -3.67136,-1.64372 -3.67136,-3.67136z" fill="url(#color-15)"/><path d="M240.38646,181.57804c0,-2.02763 1.64372,-3.67136 3.67136,-3.67136c2.02763,0 3.67136,1.64372 3.67136,3.67136c0,2.02763 -1.64372,3.67136 -3.67136,3.67136c-2.02763,0 -3.67136,-1.64372 -3.67136,-3.67136z" fill="url(#color-16)"/><path d="M236.13542,185.18498c0,-2.02763 1.64372,-3.67136 3.67136,-3.67136c2.02763,0 3.67136,1.64372 3.67136,3.67136c0,2.02763 -1.64372,3.67136 -3.67136,3.67136c-2.02763,0 -3.67136,-1.64372 -3.67136,-3.67136z" fill="url(#color-17)"/><path d="M240,188.01901c0,-2.02763 1.64372,-3.67136 3.67136,-3.67136c2.02763,0 3.67136,1.64372 3.67136,3.67136c0,2.02763 -1.64372,3.67136 -3.67136,3.67136c-2.02763,0 -3.67136,-1.64372 -3.67136,-3.67136z" fill="url(#color-18)"/><path d="M233.04375,186.34436c0,-2.02763 1.64372,-3.67136 3.67136,-3.67136c2.02763,0 3.67136,1.64372 3.67136,3.67136c0,2.02763 -1.64372,3.67136 -3.67136,3.67136c-2.02763,0 -3.67136,-1.64372 -3.67136,-3.67136z" fill="url(#color-19)"/><path d="M235.10486,191.11067c0,-2.02763 1.64372,-3.67136 3.67136,-3.67136c2.02763,0 3.67136,1.64372 3.67136,3.67136c0,2.02763 -1.64372,3.67136 -3.67136,3.67136c-2.02763,0 -3.67136,-1.64372 -3.67136,-3.67136z" fill="url(#color-20)"/><path d="M228.40625,188.40547c0,-2.02763 1.64372,-3.67136 3.67136,-3.67136c2.02763,0 3.67136,1.64372 3.67136,3.67136c0,2.02763 -1.64372,3.67136 -3.67136,3.67136c-2.02763,0 -3.67136,-1.64372 -3.67136,-3.67136z" fill="url(#color-21)"/><path d="M230.725,194.84644c0,-2.02763 1.64372,-3.67136 3.67136,-3.67136c2.02763,0 3.67136,1.64372 3.67136,3.67136c0,2.02763 -1.64372,3.67136 -3.67136,3.67136c-2.02763,0 -3.67136,-1.64372 -3.67136,-3.67136z" fill="url(#color-22)"/><path d="M238.19653,194.20234c0,-2.02763 1.64372,-3.67136 3.67136,-3.67136c2.02763,0 3.67136,1.64372 3.67136,3.67136c0,2.02763 -1.64372,3.67136 -3.67136,3.67136c-2.02763,0 -3.67136,-1.64372 -3.67136,-3.67136z" fill="url(#color-23)"/><path d="M235.10486,196.90755c0,-2.02763 1.64372,-3.67136 3.67136,-3.67136c2.02763,0 3.67136,1.64372 3.67136,3.67136c0,2.02763 -1.64372,3.67136 -3.67136,3.67136c-2.02763,0 -3.67136,-1.64372 -3.67136,-3.67136z" fill="url(#color-24)"/></g><path d="M230.14531,162.51276v-3.09167c0,0 3.23054,0.6441 5.41042,0.6441c3.32982,0 12.62431,0 12.62431,0v3.09167c0,0 -10.50264,0 -13.78368,0c-1.82212,0 -4.25104,-0.6441 -4.25104,-0.6441z" fill="#9a5800"/></g></g></g></svg>