<svg version="1.1" xmlns="http://www.w3.org/2000/svg" xmlns:xlink="http://www.w3.org/1999/xlink" width="53.27686" height="93.20782" viewBox="0,0,53.27686,93.20782"><g transform="translate(-213.39493,-146.14416)"><g stroke-miterlimit="10"><path d="M215.96164,236.85198v-88.0706h48.21014v88.0706z" fill="#585858" stroke="#b5b5b5" stroke-width="5"/><path d="M215.96164,211.35198v-62.70782h48.21014v62.70782z" fill="none" stroke="#b5b5b5" stroke-width="5"/><text transform="translate(220.56255,220.21061) scale(0.1811,0.1811)" font-size="40" xml:space="preserve" fill="#ffffff" stroke="none" stroke-width="1" font-family="Sans Serif" font-weight="normal" text-anchor="start"><tspan x="0" dy="0">guacamole</tspan></text><text transform="translate(220.31255,229.28842) scale(0.15633,0.15633)" font-size="40" xml:space="preserve" fill="#ffffff" stroke="none" stroke-width="1" font-family="Sans Serif" font-weight="normal" text-anchor="start"><tspan x="0" dy="0">click to equip</tspan></text><path d="M215.96164,211.35198v-62.70782h48.21014v62.70782z" fill="none" stroke="#b5b5b5" stroke-width="5"/><path d="M215.96164,211.35198v-62.70782h48.21014v62.70782z" fill="none" stroke="#b5b5b5" stroke-width="5"/><path d="M215.96165,211.35198v-62.70782h48.21014v62.70782z" fill="none" stroke="#b5b5b5" stroke-width="5"/><path d="M215.89493,211.2853v-62.5706h48.21014v62.5706z" fill="#ffffff" stroke="#b5b5b5" stroke-width="5"/><path d="M259.47292,174.53911c0,2.82589 1.4195,8.44461 -1.9402,14.18102c-1.72483,2.945 -5.65052,7.44016 -17.20827,7.75462c-11.40451,0.13055 -14.76596,-4.14161 -17.12958,-7.28133c-4.16403,-5.53129 -2.62917,-12.67364 -2.62917,-14.12012c0,-7.64614 8.14493,-9.21487 18.74135,-9.21487c10.59642,0 20.16587,1.03453 20.16587,8.68067z" fill="#aca9a0" stroke="#cfcfcf" stroke-width="2.5"/><path d="M240.10834,188.91785c-10.59642,0 -19.18651,-6.19842 -19.18651,-13.84456c0,-7.64614 8.59009,-13.84456 19.18651,-13.84456c10.59642,0 19.18651,6.19842 19.18651,13.84456c0,7.64614 -8.59009,13.84456 -19.18651,13.84456z" fill="#a09569" stroke="#cfcfcf" stroke-width="2.5"/><path d="M259.29485,175.60749c0,6.66271 -8.63795,13.66649 -18.96393,13.66649c-10.32598,0 -18.69683,-5.4012 -18.69683,-12.06391c0,-1.86168 1.6327,-2.9582 2.76978,-4.53259c0.9687,-1.34124 1.08322,-3.06266 2.55856,-4.17146c1.07956,-0.81134 3.21537,-0.91918 4.74453,-1.43571c1.20527,-0.40713 2.36267,-1.61092 3.55693,-1.9583c1.48812,-0.43286 2.92236,1.25637 4.68883,1.25637c1.8716,0 3.47794,-1.02647 5.21758,-0.8482c1.28614,0.1318 1.86297,2.45564 3.04332,2.74321c1.42852,0.34803 1.57973,-2.31276 2.84404,-1.9371c1.78894,0.53154 2.37286,3.04784 3.83615,4.50244c1.8691,1.85801 4.40105,2.82587 4.40105,4.77875z" fill="#c6c43f" stroke="none" stroke-width="0"/><path d="M253.45536,169.5615c0.3022,0.49234 0.71665,0.93145 0.90661,1.47701c0.06565,0.18852 0.10544,0.41576 0.12729,0.66593c0.07107,0.02118 0.14228,0.04064 0.21376,0.05671l0.81212,0.47908c0,0 0.7408,0.49386 0.24693,1.23466c-0.49386,0.7408 -1.23466,0.24693 -1.23466,0.24693l-0.07936,-0.07221c-0.01806,0.25918 -0.0355,0.50525 -0.04536,0.72433c0.67797,-0.27819 1.43551,-0.63475 2.05185,-0.31788c0.52674,0.27081 0.25796,1.16804 0.24307,1.76014c-0.01358,0.53998 -0.90489,2.6622 -0.99923,2.87627c-0.75733,1.71843 -1.7202,3.25758 -2.95178,4.67591c-0.43187,0.49736 -0.98919,0.87983 -1.3994,1.3952c-0.97504,1.22501 -1.4256,2.35391 -3.116,2.71625c-0.92091,0.1974 -1.88362,0.0135 -2.82545,0.0135c-2.54631,0 -5.09262,0.00107 -7.63893,-0.00285c-1.65779,-0.26441 -3.44418,-0.38884 -5.06547,-0.81571c-0.76539,-0.20152 -1.66404,-0.2358 -2.24494,-0.77336c-0.09623,-0.08905 -0.15505,-0.28192 -0.18432,-0.53049c-0.51427,-0.37264 -0.8738,-0.96019 -1.17328,-1.53639c-0.18868,-0.02199 -0.36821,-0.05481 -0.53497,-0.1017c-2.63868,-0.74193 -3.54232,-3.29645 -2.78936,-5.70144l0.26908,-0.05245l-0.12019,-0.12878l0.17328,-0.16173c-0.15105,-0.57405 -0.16223,-1.19805 -0.0588,-1.76991c0.11945,-0.66043 0.76303,-1.10479 1.12123,-1.67236c0.63467,-1.00563 1.03943,-2.04348 1.86316,-2.84581c-0.31709,-0.14362 -0.63436,-0.32073 -0.95419,-0.53899c0,0 -0.72938,-0.51057 -0.21882,-1.23995c0.51057,-0.72938 1.23995,-0.21882 1.23995,-0.21882c0.40114,0.2905 0.82536,0.48915 1.2658,0.62318c0.0207,-0.27235 0.03184,-0.54642 0.15111,-0.78659c0.29677,-0.59758 0.79579,-1.07117 1.19368,-1.60675c0,0 0.54083,-0.70724 1.24807,-0.16641c0.70724,0.54083 0.16641,1.24807 0.16641,1.24807c-0.24655,0.31078 -0.54489,0.58843 -0.77651,0.90876c1.56494,-0.52674 3.22151,-0.86233 4.71438,-1.47085c1.67079,-0.68104 2.65482,-1.65966 4.58528,-1.5793c1.52195,0.06335 1.9704,1.12086 3.23608,1.67573c0.4327,0.1897 0.92593,0.18845 1.38889,0.28268c0.51495,-0.02939 0.97057,-0.3504 1.44783,-0.546c1.58542,-0.64977 4.4917,-1.38744 5.43862,0.59569c0.14147,0.29628 0.21213,0.61674 0.26401,0.9436zM243.12072,183.3226c0.08567,-0.0049 0.11509,-0.05163 0.11123,-0.1236c-0.18735,0.04474 -0.37466,0.09054 -0.56195,0.13716c0.15034,-0.00094 0.3006,-0.00498 0.45072,-0.01356zM242.85477,180.85031c0.31688,-1.20941 1.5052,-1.63292 2.42798,-2.20933c0.25419,-0.12733 0.60967,-0.14229 0.76257,-0.38197c0.03823,-0.05993 -0.03356,-1.59103 -0.24941,-1.63923c-0.33129,-0.07398 -0.67425,0.08553 -1.01336,0.10063c-0.85321,0.03799 -1.70785,0.01167 -2.56211,0.00269c0.52211,0.364 0.2814,1.01736 0.2814,1.01736c-0.29273,0.77493 -0.64306,1.59147 -0.57702,2.4172c0.02605,0.32574 -0.10816,0.76964 0.15104,0.96864c0.19557,0.15015 0.44783,0.16749 0.72369,0.13332c0.00373,-0.13834 0.02009,-0.27519 0.05523,-0.4093zM229.76933,173.75637c-0.04698,-0.12876 -0.07935,-0.2587 -0.09946,-0.38935c-0.36641,0.59354 -0.62942,1.25684 -1.01268,1.84167c-0.27015,0.41224 -0.58533,0.79305 -0.87932,1.18872c0.01811,-0.0011 0.03637,-0.00166 0.05476,-0.00166c0.49171,0 0.89033,0.39861 0.89033,0.89033c0,0.25784 -0.1096,0.49008 -0.28476,0.65267l-1.16494,1.08728c-0.27522,1.15491 0.40424,2.70006 1.65451,2.96397c0.14657,-0.589 0.14689,-1.29371 0.62827,-1.6178c0.34538,-0.23253 3.53047,-0.23364 4.12285,-0.04109c0.88373,0.28726 1.51536,1.06957 1.91998,1.85094c0.00041,0.00078 0.00081,0.00157 0.00122,0.00237c0.59951,0.06024 1.19911,0.12733 1.79778,0.19471c-0.7852,-0.9973 -1.32502,-1.80018 -1.86635,-3.02806c-0.1647,-0.37357 -0.14649,-0.90578 -0.49342,-1.12102c-0.26835,-0.16649 -0.61352,0.15188 -0.91448,0.24754c-0.43686,0.13886 -0.84807,0.36554 -1.29753,0.45556c-0.53746,0.10764 -3.11403,0.14597 -3.43253,-0.22837c-0.42731,-0.50222 -0.27274,-1.29156 -0.36046,-1.94511c-0.07844,-0.58438 -0.48328,-1.28605 -0.13733,-1.76351c0.24215,-0.33421 0.67196,-0.50718 1.15265,-0.59555c-0.09977,-0.194 -0.19287,-0.408 -0.27907,-0.64423zM232.07292,174.31052c0.00332,0.00217 0.00692,0.00433 0.01079,0.00648c1.86028,0.01746 4.35742,0.48295 6.02522,-0.31525c-0.07598,-0.05038 -0.14962,-0.10397 -0.22046,-0.16102c-0.67916,-0.54696 -0.99253,-1.60821 -1.82202,-1.87725c-0.65228,-0.21157 -1.37111,0.0382 -2.05684,0.0382c-0.83144,0 -1.60533,0.02216 -2.34789,-0.01785c-0.26352,0.83932 -0.4195,1.7845 0.4112,2.32669zM246.24106,180.14176c-0.52807,0.3142 -1.38175,0.47027 -1.61524,0.99393c0.48248,-0.07778 0.93694,-0.18528 1.52278,-0.48447c0.40578,-0.20724 0.75111,-0.47121 1.07419,-0.75784c-0.05575,-0.08725 -0.10461,-0.17766 -0.14737,-0.27073c-0.27221,0.17828 -0.57931,0.32562 -0.83436,0.51912zM245.40577,185.71268c0.49207,0 2.53173,0.26874 3.15434,-0.20518c0.88229,-0.67158 1.39045,-1.85706 2.18128,-2.65019c0.15688,-0.15734 0.30958,-0.31663 0.4582,-0.478c-0.56415,0.2214 -1.22132,0.1332 -1.82716,0.21587l-1.02859,0.00136c0,0 -0.72691,0 -0.86709,-0.65683c-0.15888,0.1036 -0.32454,0.20004 -0.49896,0.2873c-0.76044,0.38045 -1.20486,0.50836 -1.66638,0.58956c0.01769,1.20066 -0.9284,2.14068 -2.05362,2.6485c-0.23205,0.10473 -0.4898,0.1856 -0.76562,0.2474c0.9712,0 1.9424,0.0002 2.9136,0.0002zM254.06894,177.97445c0.22838,-0.51835 0.43566,-1.04635 0.62436,-1.58042c0.02488,-0.07041 0.04185,-0.14427 0.05575,-0.21937c-0.52923,0.31608 -1.23467,0.48918 -1.44402,0.37117c-0.3796,-0.21397 -0.44984,-0.69905 -0.54105,-1.16575c-0.03348,0.94654 -0.05604,1.9154 -0.56591,2.72856c-0.00618,0.00985 -0.02922,0.03169 -0.06624,0.06344c0.30155,0.80338 0.57599,1.63761 0.51603,2.38245c0.54535,-0.80389 1.01567,-1.65988 1.42109,-2.58008zM240.52724,182.05154c-0.97565,-1.39579 -0.15443,-3.65617 0.30374,-4.92667c0,0 0.08547,-0.23197 0.28856,-0.40641c-1.91239,-0.01182 -3.7882,-0.07852 -5.69693,-0.2264c0.14163,0.02833 0.27796,0.07469 0.40757,0.14321c0.67778,0.35834 0.9056,1.24115 1.28723,1.90609c0.66666,1.16155 1.02242,1.91664 1.86099,2.96481c0,0 0.36089,0.45111 0.13788,0.91728c0.47028,-0.12235 0.94059,-0.24751 1.41097,-0.37191zM242.75022,174.33778c-0.16875,-0.1128 -0.35713,0.21822 -0.55869,0.24224c-0.74064,0.08825 -1.50994,0.17731 -2.24856,0.0826c-0.07687,0.08131 -0.15346,0.1629 -0.23003,0.24451c1.1147,0.0241 2.23087,0.03103 3.35465,0.03236c-0.07583,-0.22922 -0.12729,-0.47465 -0.31737,-0.60171zM231.96186,176.09717c-0.32487,-0.00058 -0.65112,0.02514 -0.97459,-0.00495c-0.20097,-0.01869 -0.50349,-0.32332 -0.58899,-0.14049c-0.09592,0.20512 0.36385,0.32732 0.39686,0.55134c0.04482,0.3041 -0.22752,0.59988 -0.1824,0.90393c0.01812,0.12208 0.15984,-0.21651 0.28072,-0.24143c0.29066,-0.05992 0.59356,-0.00238 0.89033,0c0.93158,0.00747 2.15994,-0.68521 3.20359,-0.70859c-1.10768,-0.09244 -2.099,-0.10699 -2.94084,-0.35965c-0.02823,-0.00006 -0.05645,-0.00011 -0.08468,-0.00016zM249.95169,177.60681c0.01757,-0.01257 0.03571,-0.02454 0.0543,-0.03603c-0.07891,-0.23797 -0.14998,-0.47826 -0.20857,-0.72228c-0.35105,-1.46212 -0.34972,-2.02866 -0.62709,-3.48218c-0.07486,-0.39231 -0.05071,-0.83216 -0.2667,-1.1681c-0.07458,-0.116 -0.24488,0.14241 -0.38171,0.15958c-0.70672,0.08866 -1.42452,0 -2.13678,0c-1.24807,0 -2.75263,-0.25145 -3.94669,0.20492c-0.1605,0.06134 -0.32018,0.14652 -0.4767,0.24693c0.02331,-0.00112 0.04659,-0.00216 0.06987,-0.00309c0.46784,-0.0188 0.98128,-0.32336 1.40003,-0.11389c0.70787,0.35409 0.82766,1.52804 1.58065,1.7719c1.00638,0.32592 2.50265,-0.82208 3.36846,0.23389c0.39272,0.47897 0.15346,1.22925 0.23019,1.84387c0,0.41548 0.00339,0.83098 0,1.24646c-0.00228,0.27999 -0.19922,0.68597 -0.12729,0.92101c0.46299,-0.40017 0.9703,-0.74681 1.46803,-1.10298zM251.22169,173.20159c0.15001,-0.46804 0.49903,-0.84689 0.74854,-1.27034c0.04533,-0.01472 0.09044,-0.03055 0.13541,-0.04719c-0.28349,-0.25943 -0.28942,-0.67085 -0.28942,-0.67085l0.01028,-0.31797c-0.02285,-0.12702 -0.03026,-0.27278 -0.03292,-0.42545c-0.11622,-0.09871 -0.62478,-0.58614 -0.16528,-1.21494c-0.0625,-0.08909 -0.14908,-0.15314 -0.2691,-0.18179c-0.70119,-0.16741 -2.29949,0.27331 -2.9159,0.53481c-0.31927,0.13545 -0.54297,0.4621 -0.87463,0.56348c-0.45378,0.13871 -0.9446,0.09132 -1.41691,0.13697c-0.66478,-0.14319 -1.366,-0.16954 -1.99435,-0.42958c-0.93942,-0.38878 -1.55607,-1.49353 -2.64006,-1.52944c-1.48194,-0.04909 -2.45311,0.90593 -3.78377,1.44781c-0.40125,0.1634 -0.80974,0.30664 -1.22217,0.43909c0.02383,0.00695 0.04752,0.0146 0.07107,0.02301c0.63725,0.22771 1.19971,0.65336 1.7015,1.1074c0.40803,0.3692 0.6892,0.96957 1.12279,1.27837c0.69518,-0.72071 1.45592,-1.38433 2.37796,-1.73857c1.4387,-0.55274 3.09384,-0.32927 4.60044,-0.32927c0.55043,0 3.12883,-0.24077 3.53572,0.15958c0.71426,0.70279 1.01028,1.82664 1.19468,2.97449c0.02144,-0.17864 0.05486,-0.34959 0.10615,-0.50963zM231.84668,181.97293c-0.40887,-0.03634 -0.83205,-0.31797 -1.21835,-0.17915c-0.10117,0.03636 -0.098,0.14683 -0.07201,0.27351c0.48769,-0.02245 0.98289,-0.06568 1.45043,-0.08609c-0.05354,-0.00102 -0.10693,-0.00354 -0.16007,-0.00827zM232.71112,181.97408c0.07362,0.00262 0.14726,0.00551 0.22093,0.00865c-0.15821,-0.02072 -0.31941,-0.01861 -0.48129,-0.0127c0.08841,-0.00021 0.17529,0.00102 0.26036,0.00405zM250.54011,180.7257c0.45194,-0.11949 0.42924,-0.55145 0.31583,-0.88343c-0.06194,-0.18132 -0.12805,-0.36137 -0.19625,-0.54077c-0.23892,0.17868 -0.46451,0.34653 -0.64081,0.47751c0.05884,0.12769 0.1191,0.25414 0.18969,0.37162l0.09399,0.4872c0,0 0,0.05442 -0.01346,0.13636c0.08451,-0.0111 0.16829,-0.02662 0.25101,-0.04849z" fill="#c7c568" stroke="none" stroke-width="0.5"/><path d="M233.04865,175.77001c-0.14186,0.06268 -0.32182,0.08824 -0.54913,0.04277c-0.06915,-0.01383 -0.13172,-0.03204 -0.18833,-0.05385c-0.10725,0.04579 -0.22533,0.07114 -0.34932,0.07114c-0.49171,0 -0.89033,-0.39861 -0.89033,-0.89033c0,-0.2089 0.07195,-0.401 0.19242,-0.55287l0.61836,-0.79503l0.1173,0.09123l0.11741,-0.30198c0.98016,-0.20486 2.67237,-0.91791 3.20875,0.83993c0.17753,0.58182 -0.61188,1.05154 -0.91782,1.57731c0,0 -0.5915,0.66544 -1.25694,0.07394c-0.03813,-0.03389 -0.07214,-0.06803 -0.10236,-0.10228z" fill="#df4e30" stroke="none" stroke-width="0.5"/><path d="M250.83676,173.51522c0,0.89033 -0.89033,0.89033 -0.89033,0.89033l-0.40933,-0.05226c-0.1242,0.34209 -0.45213,0.58646 -0.83712,0.58646c-0.49171,0 -0.89033,-0.39861 -0.89033,-0.89033c0,-0.02844 0.00133,-0.05656 0.00394,-0.08431l0.04926,-0.59117c-0.03443,-0.09482 -0.0532,-0.19716 -0.0532,-0.30387c0,-0.1187 0.02323,-0.23198 0.06539,-0.33553c-0.02058,-0.21742 -0.04116,-0.43483 -0.06174,-0.65225c0,0 -0.08061,-0.88667 0.80606,-0.96728c0.62613,-0.05692 0.85031,0.3685 0.92799,0.62343c0.13204,-0.0211 0.26073,-0.04678 0.37932,-0.08622l0.10878,0.04517v-0.05184h0.97936c0.49171,0 0.89033,0.39861 0.89033,0.89033c0,0.45345 -0.33899,0.82772 -0.77737,0.88323l-0.29216,0.04174c0.00075,0.01775 0.00114,0.03588 0.00114,0.05439z" fill="#df4e30" stroke="none" stroke-width="0.5"/><path d="M242.99671,178.66342c0.12567,-0.18269 0.34268,-0.34044 0.71744,-0.34044c0.89033,0 0.89033,0.89033 0.89033,0.89033l-0.06164,0.53172l0.23804,-0.10077c-0.04929,0.70355 0.1662,1.47917 -0.14787,2.11066c-0.6127,1.23191 -2.53746,1.47171 -3.32824,0.14974c-0.44399,-0.74223 0.67566,-2.24322 1.03502,-2.81322c0,0 0.24385,-0.3832 0.65692,-0.42802z" fill="#df4e30" stroke="none" stroke-width="0.5"/><path d="M228.84572,182.86364c0.30022,-0.4003 0.65669,-0.4069 0.91135,-0.33588l0.00269,-0.00053l-0.10149,-0.3383l0.8705,-0.26115c0.08679,-0.02823 0.17944,-0.04349 0.27565,-0.04349c0.49171,0 0.89033,0.39861 0.89033,0.89033c0,0.13001 -0.02787,0.25351 -0.07795,0.36486c0.01256,0.31442 -0.16061,0.57417 -0.16061,0.57417l-0.09331,-0.01605l-0.19309,0.4248l-0.02704,-0.01229c-0.08249,0.40639 -0.44178,0.71226 -0.87252,0.71226c-0.20367,0 -0.39138,-0.06839 -0.54139,-0.18346l-0.70506,-0.5288c0,0 -0.71226,-0.5342 -0.17807,-1.24646z" fill="#df4e30" stroke="none" stroke-width="0.5"/><path d="M233.03025,178.85718c0,-0.44516 0.44516,-0.44516 0.44516,-0.44516h0.17807c0.49871,0 1.0072,-0.02254 1.51682,-0.03959c-0.00043,-0.00234 -0.00084,-0.00468 -0.00124,-0.00704c-0.1054,-0.61991 0.98714,-1.09349 1.32022,-1.18793c0.0498,-0.01412 0.10011,-0.02711 0.15091,-0.03904c-0.24786,-0.15192 -0.4569,-0.25974 -0.53499,-0.24254c-0.44584,0.09819 -0.76386,0.66875 -1.21834,0.62561c-0.29319,-0.02783 -0.63724,-0.12849 -0.80071,-0.37346c-0.2053,-0.30764 0.14738,-0.92337 -0.18034,-1.0948c-0.25691,-0.13439 -0.35354,0.14197 -0.35,0.3093c0,0 -0.0873,0.43652 -0.52382,0.34921c-0.43652,-0.0873 -0.34921,-0.52382 -0.34921,-0.52382c0.18057,-0.63293 0.78637,-1.40008 1.60871,-0.93715c0.88023,0.49551 0.49233,0.69117 0.53192,1.39811c0.00809,0.14457 0.28272,-0.07578 0.40873,-0.14712c0.26671,-0.15101 0.47254,-0.45933 0.77739,-0.49106c0.69356,-0.07218 1.35903,0.71313 1.97062,1.01152c1.13226,0.02103 2.34762,0.24726 3.37531,0.1455c1.61309,-0.15973 2.00309,-1.30834 3.42124,-1.69375c0.14787,0.03257 0.28768,0.07602 0.42181,0.12667c0.30399,-0.27134 0.59189,-0.55409 0.84725,-0.85995c0.58512,-0.70084 0.24047,-1.44852 0.44365,-2.23124c0.45258,-1.74355 2.20703,-3.08236 3.9022,-3.08973c0,0 0.44516,0 0.44516,0.44516c0,0.44516 -0.44516,0.44516 -0.44516,0.44516c-1.28796,-0.00653 -2.72058,1.07538 -3.04233,2.43028c-0.22597,0.95155 0.06375,1.70314 -0.62474,2.57652c-0.19725,0.25021 -0.41847,0.48362 -0.65421,0.70676c0.35261,0.18788 0.70419,0.36452 1.11439,0.43833l0.09076,-0.00865c0,0 0.44516,0 0.44516,0.44516c0,0.44516 -0.44516,0.44516 -0.44516,0.44516l-0.26537,-0.00865c-0.61489,-0.13167 -1.06859,-0.48508 -1.59062,-0.74068c-0.782,0.64697 -1.62267,1.25141 -2.24619,2.00446c-0.33035,0.39899 -0.59222,1.16526 -0.77942,1.62532c-0.11078,1.50138 -1.53834,1.64891 -2.79293,1.83253c-0.41238,0.06036 -0.70299,-0.03483 -0.99234,0.3095c-0.6077,0.72317 -0.45385,1.44359 -0.69771,2.30798c-0.16167,0.57307 -0.50817,1.08652 -0.86642,1.56213c-0.184,0.24427 -0.23197,0.63963 -0.51277,0.76077c-0.74179,0.32003 -2.50155,-0.27416 -2.89616,-1.04296c-0.28287,-0.55112 -0.24623,-0.94323 -0.24916,-1.4878c0,-0.77789 -0.12653,-1.68514 0.22532,-2.41487c0.19208,-0.39836 0.73065,-0.51246 1.14141,-0.67636c0.77242,-0.30822 1.50377,-0.69713 2.21922,-1.12044c-0.17027,-0.06251 -0.29175,-0.22608 -0.29175,-0.41802c0,-0.0033 0.00004,-0.00658 0.00011,-0.00986c-0.24734,-0.18493 -0.47383,-0.37404 -0.64588,-0.524c-0.79378,0 -1.58756,-0.00034 -2.38134,-0.00034h-0.17807c0,0 -0.44516,0 -0.44516,-0.44516zM238.14834,178.55454l0.01972,-0.13805l0.61675,0.08811c0.03988,0.00505 0.07812,0.01538 0.11399,0.03026c0.20509,-0.21265 0.40926,-0.39843 0.60748,-0.47169c-0.06976,-0.00211 -0.13876,-0.00389 -0.20686,-0.00515c-0.16863,0.01855 -0.36993,0.03782 -0.47646,0.02554c-0.08657,-0.00999 -0.17384,-0.018 -0.26115,-0.02637c-0.44903,0.0018 -0.89819,0.00424 -1.34702,-0.0013c-0.17368,-0.00214 -0.35208,-0.05255 -0.52095,-0.01191c-0.22067,0.0531 -0.83672,0.12604 -0.6385,0.2366c0.0436,0.02432 0.08715,0.04876 0.13063,0.07338c0.66878,0.0035 1.32952,0.04896 1.96238,0.20058zM238.83778,179.99835l-0.337,0.28885c-0.06825,0.11905 -0.14626,0.22145 -0.27121,0.24384c-0.00884,0.00158 -0.01779,0.00294 -0.02686,0.00407l-0.0121,0.01631c-1.00987,0.63331 -2.03711,1.22643 -3.14384,1.66408c-0.22297,0.08817 -0.54281,-0.06169 -0.64616,0.24854c-0.21379,0.64177 -0.1239,1.34032 -0.1239,2.00218c-0.0063,0.93978 0.29509,1.39518 1.24507,1.62579c0.19656,0.04772 0.41193,0.20211 0.59543,0.11701c0.15878,-0.07364 0.10282,-0.33979 0.19949,-0.48568c0.14313,-0.21602 0.38203,-0.36119 0.5107,-0.58612c0.63565,-1.11121 0.17146,-2.37487 1.13034,-3.37863c0.89233,-0.93409 3.53479,-0.18051 3.56634,-1.72469c0.22692,-0.57502 0.53756,-1.4839 0.95029,-1.98669c0.04964,-0.06048 0.10057,-0.12005 0.15265,-0.17879c-0.68715,0.23879 -1.49613,0.24903 -2.27555,0.22526c-0.06201,0.60577 -0.81256,1.3033 -1.37545,1.69516c-0.02527,0.08263 -0.07393,0.15504 -0.13826,0.20952z" fill="#abaa41" stroke="none" stroke-width="0.5"/><path d="M227.61079,183.49846c-0.10062,-0.43364 0.33302,-0.53426 0.33302,-0.53426l0.40711,-0.09027c0.20841,-0.11425 0.42895,-0.22518 0.65744,-0.29946c-0.2293,-0.15534 -0.48212,-0.29892 -0.51605,-0.552c-0.14215,-1.06025 1.28333,-0.8676 1.64059,-1.48163c0.17123,-0.2943 -0.16748,-0.66147 -0.21449,-0.9987c-0.16289,-1.16847 -0.17766,-2.97294 0.27083,-4.06336c0.00035,-0.55732 0.95785,-1.86624 0.68358,-2.24712c-0.03691,-0.05126 -0.09425,0.10517 -0.15742,0.10549c-0.65354,0.00339 -1.19601,-0.06011 -0.95004,-1.04921c0.18695,-0.75178 1.48966,-0.64542 2.02469,-0.87502c1.6085,-0.69025 3.32355,-0.56869 5.0686,-0.56869c0,0 0.44516,0 0.44516,0.44516c0,0.44516 -0.44516,0.44516 -0.44516,0.44516c-1.30717,0 -2.8708,-0.218 -4.13023,0.15638c-0.44425,0.13206 -0.83048,0.43061 -1.2803,0.54221c-0.04337,0.01076 -0.09758,0.02617 -0.15785,0.04383c0.23064,0.27588 0.37821,0.75987 0.40298,0.91249c0.14012,0.86324 -0.63028,1.40489 -0.62974,2.25768c-0.40526,1.03915 -0.42502,2.66936 -0.26337,3.7715c0.07508,0.51191 0.43296,0.93286 0.14164,1.49421c-0.18852,0.36326 -1.20383,0.85533 -1.39193,0.97141h0.36427c0.24586,0 0.44516,0.19931 0.44516,0.44516c0,0.13626 -0.06122,0.25822 -0.15765,0.33988l-0.62103,0.53231l-0.08172,-0.09534c-0.25499,0.23181 -0.53171,0.43699 -0.83125,0.59973l-0.52257,0.12546c0,0 -0.43364,0.10062 -0.53426,-0.33302z" fill="#abaa41" stroke="none" stroke-width="0.5"/><path d="M251.76844,174.80936c-0.31478,-0.31478 0,-0.62956 0,-0.62956l0.14277,0.12087c0.10015,-0.41401 -1.29731,-0.15109 -2.10851,-0.01937c0.2118,0.20609 0.41715,0.46322 0.40253,0.74402c-0.01324,0.25442 -0.38322,0.3358 -0.57482,0.5037c-0.15634,0.2247 -0.13855,0.53087 -0.23727,0.78618c-0.1628,0.42105 -0.63798,0.65944 -0.83712,1.06457c-0.12415,0.25258 -0.05703,0.57477 -0.19051,0.82254c-0.08836,0.16402 -0.33453,0.19168 -0.439,0.34594c-0.16132,0.23821 -0.04084,1.24176 -0.0848,1.47559c-0.20239,1.07646 -1.12664,2.35931 -2.14203,2.87888c-0.76574,0.39182 -2.94552,0.26527 -3.58286,-0.29932c-0.18096,-0.16031 -0.06286,-0.47941 -0.09428,-0.71912c0,0 0,-0.44516 0.44516,-0.44516c0.44516,0 0.44516,0.44516 0.44516,0.44516c-0.15191,0.27585 1.39635,0.36986 1.77609,0.35615c0.81927,-0.02957 1.23573,-0.74891 1.75269,-1.28465c0.84931,-0.88015 0.18895,-1.89979 0.71695,-2.85808c0.0935,-0.16971 0.3595,-0.1957 0.45133,-0.36632c0.12597,-0.23406 0.04526,-0.54304 0.16562,-0.78004c0.15863,-0.31236 0.64403,-0.52847 0.76546,-0.89414c0.12113,-0.36477 0.2245,-0.74536 0.41644,-1.07724c-0.37881,0.01665 -0.89416,-0.1447 -0.38659,-1.04446c0.47174,-0.83625 2.20711,-0.71076 2.97885,-0.67898c0.33366,0.01374 0.72682,-0.10047 0.99728,0.0954c0.22629,0.16388 0.16161,0.53492 0.24241,0.80238l-0.39142,0.65506c0,0 -0.31478,0.31478 -0.62956,0z" fill="#abaa41" stroke="none" stroke-width="0.5"/><path d="M240.10834,188.91785c-10.59642,0 -19.18651,-6.19842 -19.18651,-13.84456c0,-7.64614 8.59009,-13.84456 19.18651,-13.84456c10.59642,0 19.18651,6.19842 19.18651,13.84456c0,7.64614 -8.59009,13.84456 -19.18651,13.84456z" fill="none" stroke="#cfcfcf" stroke-width="2.5"/></g></g></svg>