<svg version="1.1" xmlns="http://www.w3.org/2000/svg" xmlns:xlink="http://www.w3.org/1999/xlink" width="17.55022" height="26.55372" viewBox="0,0,17.55022,26.55372"><g transform="translate(-231.20053,-166.74168)"><g fill="#fff652" stroke-miterlimit="10"><g stroke="#005dff"><path d="M232.02662,172.17567l-0.2821,-3.53891c0,0 5.19721,0.29798 7.84205,0.08713c2.74804,-0.21908 8.34853,-1.3778 8.34853,-1.3778l0.2821,3.53891c0,0 -5.67552,1.16474 -8.437,1.38485c-2.62884,0.20956 -7.75358,-0.09418 -7.75358,-0.09418z"/><path d="M244.88496,169.54631l3.0551,2.74277c0,0 -2.22353,4.3062 -3.35446,7.72489c-1.27649,3.85876 -3.60538,12.63994 -3.60538,12.63994l-3.37054,-1.11499c0,0 2.29647,-8.68322 3.56829,-12.52782c1.13849,-3.44156 3.70698,-9.46481 3.70698,-9.46481z"/></g><g stroke="none"><path d="M232.02662,172.17567l-0.2821,-3.53891c0,0 5.19721,0.29798 7.84205,0.08713c2.74804,-0.21908 8.34853,-1.3778 8.34853,-1.3778l0.2821,3.53891c0,0 -5.67552,1.16474 -8.437,1.38485c-2.62884,0.20956 -7.75358,-0.09418 -7.75358,-0.09418z"/><path d="M244.88496,169.54631l3.37054,1.11499c0,0 -2.53897,5.93398 -3.66989,9.35269c-1.27649,3.85876 -3.60538,12.63994 -3.60538,12.63994l-3.37054,-1.11499c0,0 2.29647,-8.68322 3.56829,-12.52782c1.13849,-3.44156 3.70698,-9.46481 3.70698,-9.46481z"/></g></g></g></svg>