<svg version="1.1" xmlns="http://www.w3.org/2000/svg" xmlns:xlink="http://www.w3.org/1999/xlink" width="53.21014" height="67.5706" viewBox="0,0,53.21014,67.5706"><defs><linearGradient x1="239.32808" y1="171.64594" x2="239.32808" y2="202.40328" gradientUnits="userSpaceOnUse" id="color-1"><stop offset="0" stop-color="#4eab0c"/><stop offset="1" stop-color="#10480c"/></linearGradient><linearGradient x1="241.37893" y1="170.66596" x2="241.37893" y2="199.70665" gradientUnits="userSpaceOnUse" id="color-2"><stop offset="0" stop-color="#a4ff63"/><stop offset="1" stop-color="#edff95"/></linearGradient><linearGradient x1="241.37904" y1="180.30124" x2="241.37904" y2="195.67113" gradientUnits="userSpaceOnUse" id="color-3"><stop offset="0" stop-color="#772c00"/><stop offset="1" stop-color="#784c35"/></linearGradient></defs><g transform="translate(-213.39493,-146.2147)"><g stroke-miterlimit="10"><path d="M215.89493,211.2853v-62.5706h48.21014v62.5706z" fill="#ffffff" stroke="#b5b5b5" stroke-width="5"/><g stroke="none" stroke-width="0"><path d="M226.65771,187.02461c0.0905,-7.44712 1.3903,-9.08895 4.64383,-14.10836c2.19951,-6.20521 0.82932,-15.22095 7.66453,-15.11111c6.34311,0.10194 5.83421,8.79678 8.27186,14.91808c3.50645,5.39623 4.67003,7.46598 4.76053,14.30138c0.11244,8.49231 -5.67272,15.37867 -12.67037,15.37867c-6.99766,0 -12.77358,-6.88619 -12.67037,-15.37867z" fill="url(#color-1)"/><path d="M229.41572,185.1863c0.08545,-7.03147 1.3127,-8.58167 4.38465,-13.32093c2.07675,-5.85888 0.78303,-14.37143 7.23675,-14.26771c5.98908,0.09625 5.50859,8.30581 7.81019,14.08546c3.31075,5.09505 4.40938,7.04929 4.49483,13.50318c0.10616,8.01833 -5.35611,14.52034 -11.9632,14.52034c-6.6071,0 -12.06065,-6.50185 -11.9632,-14.52034z" fill="url(#color-2)"/><path d="M246.54886,187.98619c0,4.24427 -2.3146,7.68494 -5.16981,7.68494c-2.85521,0 -5.16981,-3.44067 -5.16981,-7.68494c0,-4.24427 2.3146,-7.68494 5.16981,-7.68494c2.85521,0 5.16981,3.44067 5.16981,7.68494z" fill="url(#color-3)"/></g></g></g></svg>